DecovarA2_pattern.ufo
<glyph name="exclam" format="2">
  <advance width="528"/>
  <unicode hex="0021"/>
  <outline>
    <contour>
      <point x="264" y="-30" type="line"/>
      <point x="430" y="136" type="line"/>
      <point x="264" y="304" type="line"/>
      <point x="98" y="136" type="line"/>
    </contour>
    <contour>
      <point x="186" y="500" type="line"/>
      <point x="342" y="500" type="line"/>
      <point x="342" y="1500" type="line"/>
      <point x="186" y="1500" type="line"/>
    </contour>
  </outline>
</glyph>
<glyph name="quotedbl" format="2">
  <advance width="878"/>
  <unicode hex="0022"/>
  <outline>
    <contour>
      <point x="168" y="954" type="line"/>
      <point x="324" y="954" type="line"/>
      <point x="324" y="1344" type="line"/>
      <point x="168" y="1344" type="line"/>
    </contour>
    <contour>
      <point x="244" y="1213" type="line"/>
      <point x="393" y="1362" type="line"/>
      <point x="244" y="1514" type="line"/>
      <point x="95" y="1362" type="line"/>
    </contour>
    <contour>
      <point x="558" y="954" type="line"/>
      <point x="714" y="954" type="line"/>
      <point x="714" y="1344" type="line"/>
      <point x="558" y="1344" type="line"/>
    </contour>
    <contour>
      <point x="634" y="1213" type="line"/>
      <point x="783" y="1362" type="line"/>
      <point x="634" y="1514" type="line"/>
      <point x="485" y="1362" type="line"/>
    </contour>
  </outline>
</glyph>
<glyph name="quotesingle" format="2">
  <advance width="488"/>
  <unicode hex="0027"/>
  <outline>
    <contour>
      <point x="166" y="954" type="line"/>
      <point x="326" y="954" type="line"/>
      <point x="326" y="1344" type="line"/>
      <point x="166" y="1344" type="line"/>
    </contour>
    <contour>
      <point x="244" y="1197" type="line"/>
      <point x="402" y="1355" type="line"/>
      <point x="244" y="1514" type="line"/>
      <point x="86" y="1355" type="line"/>
    </contour>
  </outline>
</glyph>
<glyph name="parenleft" format="2">
  <advance width="696"/>
  <unicode hex="0028"/>
  <outline>
    <contour>
      <point x="660" y="-200" type="qcurve"/>
      <point x="671" y="-200"/>
      <point x="682" y="-200"/>
      <point x="692" y="-200" type="qcurve"/>
      <point x="692" y="-49" type="line"/>
      <point x="684" y="-49"/>
      <point x="674" y="-49"/>
      <point x="664" y="-49" type="qcurve"/>
      <point x="487" y="-49"/>
      <point x="268" y="306"/>
      <point x="268" y="616" type="qcurve"/>
      <point x="268" y="920"/>
      <point x="487" y="1280"/>
      <point x="664" y="1280" type="qcurve"/>
      <point x="671" y="1280"/>
      <point x="686" y="1280"/>
      <point x="692" y="1280" type="qcurve"/>
      <point x="692" y="1432" type="line"/>
      <point x="686" y="1432"/>
      <point x="668" y="1432"/>
      <point x="660" y="1432" type="qcurve"/>
      <point x="406" y="1432"/>
      <point x="96" y="986"/>
      <point x="96" y="613" type="qcurve"/>
      <point x="96" y="240"/>
      <point x="403" y="-200"/>
    </contour>
  </outline>
</glyph>
<glyph name="plus" format="2">
  <advance width="1040"/>
  <unicode hex="002B"/>
  <outline>
    <contour>
      <point x="442" y="230" type="line"/>
      <point x="598" y="230" type="line"/>
      <point x="598" y="1130" type="line"/>
      <point x="442" y="1130" type="line"/>
    </contour>
    <contour>
      <point x="70" y="604" type="line"/>
      <point x="970" y="604" type="line"/>
      <point x="970" y="756" type="line"/>
      <point x="70" y="756" type="line"/>
    </contour>
  </outline>
</glyph>
<glyph name="comma" format="2">
  <advance width="488"/>
  <unicode hex="002C"/>
  <outline>
    <contour>
      <point x="191" y="-255" type="line"/>
      <point x="413" y="-27" type="line"/>
      <point x="291" y="91" type="line"/>
      <point x="68" y="-138" type="line"/>
    </contour>
    <contour>
      <point x="244" y="-30" type="line"/>
      <point x="410" y="136" type="line"/>
      <point x="244" y="304" type="line"/>
      <point x="78" y="136" type="line"/>
    </contour>
  </outline>
</glyph>
<glyph name="hyphen" format="2">
  <advance width="1122"/>
  <unicode hex="002D"/>
  <outline>
    <contour>
      <point x="104" y="623" type="line"/>
      <point x="1018" y="623" type="line"/>
      <point x="1018" y="700" type="line"/>
      <point x="104" y="700" type="line"/>
    </contour>
    <contour>
      <point x="104" y="700" type="line"/>
      <point x="1018" y="700" type="line"/>
      <point x="1018" y="777" type="line"/>
      <point x="104" y="777" type="line"/>
    </contour>
  </outline>
</glyph>
<glyph name="period" format="2">
  <advance width="492"/>
  <unicode hex="002E"/>
  <outline>
    <contour>
      <point x="246" y="-19" type="qcurve"/>
      <point x="302" y="-19"/>
      <point x="380" y="57"/>
      <point x="379" y="114" type="qcurve"/>
      <point x="378" y="171"/>
      <point x="301" y="249"/>
      <point x="246" y="249" type="qcurve"/>
      <point x="191" y="249"/>
      <point x="113" y="172"/>
      <point x="113" y="114" type="qcurve"/>
      <point x="113" y="56"/>
      <point x="190" y="-19"/>
    </contour>
  </outline>
</glyph>
<glyph name="slash" format="2">
  <advance width="793"/>
  <unicode hex="002F"/>
  <outline>
    <contour>
      <point x="-74" y="-160" type="line"/>
      <point x="91" y="-160" type="line"/>
      <point x="793" y="1400" type="line"/>
      <point x="628" y="1400" type="line"/>
    </contour>
  </outline>
</glyph>
<glyph name="zero" format="2">
  <advance width="1067"/>
  <unicode hex="0030"/>
  <outline>
    <contour>
      <point x="535" y="1407" type="qcurve"/>
      <point x="334" y="1407"/>
      <point x="123" y="1190"/>
      <point x="123" y="989" type="qcurve"/>
      <point x="123" y="785"/>
      <point x="123" y="436"/>
      <point x="123" y="386" type="qcurve"/>
      <point x="123" y="176"/>
      <point x="368" y="-32"/>
      <point x="533" y="-32" type="qcurve"/>
      <point x="716" y="-32"/>
      <point x="944" y="191"/>
      <point x="944" y="386" type="qcurve"/>
      <point x="944" y="436"/>
      <point x="944" y="785"/>
      <point x="944" y="989" type="qcurve"/>
      <point x="944" y="1190"/>
      <point x="736" y="1407"/>
    </contour>
    <contour>
      <point x="535" y="1247" type="qcurve"/>
      <point x="417" y="1247"/>
      <point x="286" y="1121"/>
      <point x="286" y="966" type="qcurve"/>
      <point x="286" y="918"/>
      <point x="286" y="586"/>
      <point x="286" y="431" type="qcurve"/>
      <point x="286" y="251"/>
      <point x="413" y="116"/>
      <point x="533" y="116" type="qcurve"/>
      <point x="653" y="116"/>
      <point x="781" y="251"/>
      <point x="781" y="431" type="qcurve"/>
      <point x="781" y="586"/>
      <point x="781" y="918"/>
      <point x="781" y="966" type="qcurve"/>
      <point x="781" y="1121"/>
      <point x="653" y="1247"/>
    </contour>
    <contour>
      <point x="535" y="1327" type="qcurve"/>
      <point x="692" y="1327"/>
      <point x="862" y="1157"/>
      <point x="862" y="981" type="qcurve"/>
      <point x="862" y="927"/>
      <point x="862" y="586"/>
      <point x="862" y="410" type="qcurve"/>
      <point x="862" y="220"/>
      <point x="692" y="42"/>
      <point x="532" y="42" type="qcurve"/>
      <point x="373" y="42"/>
      <point x="205" y="226"/>
      <point x="205" y="410" type="qcurve"/>
      <point x="205" y="586"/>
      <point x="205" y="927"/>
      <point x="205" y="981" type="qcurve"/>
      <point x="205" y="1157"/>
      <point x="379" y="1327"/>
    </contour>
    <contour>
      <point x="535" y="1327" type="qcurve"/>
      <point x="692" y="1327"/>
      <point x="862" y="1157"/>
      <point x="862" y="981" type="qcurve"/>
      <point x="862" y="927"/>
      <point x="862" y="586"/>
      <point x="862" y="410" type="qcurve"/>
      <point x="862" y="220"/>
      <point x="692" y="42"/>
      <point x="532" y="42" type="qcurve"/>
      <point x="373" y="42"/>
      <point x="205" y="226"/>
      <point x="205" y="410" type="qcurve"/>
      <point x="205" y="586"/>
      <point x="205" y="927"/>
      <point x="205" y="981" type="qcurve"/>
      <point x="205" y="1157"/>
      <point x="379" y="1327"/>
    </contour>
  </outline>
</glyph>
<glyph name="one" format="2">
  <advance width="656"/>
  <unicode hex="0031"/>
  <outline>
    <contour>
      <point x="287" y="760" type="qcurve"/>
      <point x="328" y="760"/>
      <point x="328" y="760"/>
      <point x="328" y="798" type="qcurve"/>
      <point x="328" y="836"/>
      <point x="328" y="875"/>
      <point x="328" y="992" type="qcurve"/>
      <point x="328" y="1102"/>
      <point x="328" y="1140"/>
      <point x="328" y="1178" type="qcurve"/>
      <point x="328" y="1216"/>
      <point x="328" y="1216"/>
      <point x="287" y="1216" type="qcurve"/>
      <point x="246" y="1216"/>
      <point x="246" y="1216"/>
      <point x="246" y="1178" type="qcurve"/>
      <point x="246" y="1140"/>
      <point x="246" y="1103"/>
      <point x="246" y="992" type="qcurve"/>
      <point x="246" y="877"/>
      <point x="246" y="836"/>
      <point x="246" y="798" type="qcurve"/>
      <point x="246" y="760"/>
      <point x="246" y="760"/>
    </contour>
    <contour>
      <point x="369" y="760" type="qcurve"/>
      <point x="410" y="760"/>
      <point x="410" y="760"/>
      <point x="410" y="798" type="qcurve"/>
      <point x="410" y="836"/>
      <point x="410" y="875"/>
      <point x="410" y="992" type="qcurve"/>
      <point x="410" y="1102"/>
      <point x="410" y="1140"/>
      <point x="410" y="1178" type="qcurve"/>
      <point x="410" y="1216"/>
      <point x="410" y="1216"/>
      <point x="369" y="1216" type="qcurve"/>
      <point x="328" y="1216"/>
      <point x="328" y="1216"/>
      <point x="328" y="1178" type="qcurve"/>
      <point x="328" y="1140"/>
      <point x="328" y="1103"/>
      <point x="328" y="992" type="qcurve"/>
      <point x="328" y="877"/>
      <point x="328" y="836"/>
      <point x="328" y="798" type="qcurve"/>
      <point x="328" y="760"/>
      <point x="328" y="760"/>
    </contour>
    <contour>
      <point x="287" y="152" type="qcurve"/>
      <point x="328" y="152"/>
      <point x="328" y="152"/>
      <point x="328" y="190" type="qcurve"/>
      <point x="328" y="228"/>
      <point x="328" y="263"/>
      <point x="328" y="380" type="qcurve"/>
      <point x="328" y="490"/>
      <point x="328" y="532"/>
      <point x="328" y="570" type="qcurve"/>
      <point x="328" y="608"/>
      <point x="328" y="608"/>
      <point x="287" y="608" type="qcurve"/>
      <point x="246" y="608"/>
      <point x="246" y="608"/>
      <point x="246" y="570" type="qcurve"/>
      <point x="246" y="532"/>
      <point x="246" y="491"/>
      <point x="246" y="380" type="qcurve"/>
      <point x="246" y="265"/>
      <point x="246" y="228"/>
      <point x="246" y="190" type="qcurve"/>
      <point x="246" y="152"/>
      <point x="246" y="152"/>
    </contour>
    <contour>
      <point x="369" y="152" type="qcurve"/>
      <point x="410" y="152"/>
      <point x="410" y="152"/>
      <point x="410" y="190" type="qcurve"/>
      <point x="410" y="228"/>
      <point x="410" y="263"/>
      <point x="410" y="380" type="qcurve"/>
      <point x="410" y="490"/>
      <point x="410" y="532"/>
      <point x="410" y="570" type="qcurve"/>
      <point x="410" y="608"/>
      <point x="410" y="608"/>
      <point x="369" y="608" type="qcurve"/>
      <point x="328" y="608"/>
      <point x="328" y="608"/>
      <point x="328" y="570" type="qcurve"/>
      <point x="328" y="532"/>
      <point x="328" y="491"/>
      <point x="328" y="380" type="qcurve"/>
      <point x="328" y="265"/>
      <point x="328" y="228"/>
      <point x="328" y="190" type="qcurve"/>
      <point x="328" y="152"/>
      <point x="328" y="152"/>
    </contour>
    <contour>
      <point x="287" y="0" type="qcurve"/>
      <point x="328" y="0"/>
      <point x="328" y="0"/>
      <point x="328" y="38" type="qcurve"/>
      <point x="328" y="76"/>
      <point x="328" y="76"/>
      <point x="287" y="76" type="qcurve"/>
      <point x="246" y="76"/>
      <point x="246" y="76"/>
      <point x="246" y="38" type="qcurve"/>
      <point x="246" y="0"/>
      <point x="246" y="0"/>
    </contour>
    <contour>
      <point x="287" y="76" type="qcurve"/>
      <point x="328" y="76"/>
      <point x="328" y="76"/>
      <point x="328" y="114" type="qcurve"/>
      <point x="328" y="152"/>
      <point x="328" y="152"/>
      <point x="287" y="152" type="qcurve"/>
      <point x="246" y="152"/>
      <point x="246" y="152"/>
      <point x="246" y="114" type="qcurve"/>
      <point x="246" y="76"/>
      <point x="246" y="76"/>
    </contour>
    <contour>
      <point x="369" y="0" type="qcurve"/>
      <point x="410" y="0"/>
      <point x="410" y="0"/>
      <point x="410" y="38" type="qcurve"/>
      <point x="410" y="76"/>
      <point x="410" y="76"/>
      <point x="369" y="76" type="qcurve"/>
      <point x="328" y="76"/>
      <point x="328" y="76"/>
      <point x="328" y="38" type="qcurve"/>
      <point x="328" y="0"/>
      <point x="328" y="0"/>
    </contour>
    <contour>
      <point x="369" y="76" type="qcurve"/>
      <point x="410" y="76"/>
      <point x="410" y="76"/>
      <point x="410" y="114" type="qcurve"/>
      <point x="410" y="152"/>
      <point x="410" y="152"/>
      <point x="369" y="152" type="qcurve"/>
      <point x="328" y="152"/>
      <point x="328" y="152"/>
      <point x="328" y="114" type="qcurve"/>
      <point x="328" y="76"/>
      <point x="328" y="76"/>
    </contour>
    <contour>
      <point x="287" y="1216" type="qcurve"/>
      <point x="328" y="1216"/>
      <point x="328" y="1216"/>
      <point x="328" y="1254" type="qcurve"/>
      <point x="328" y="1292"/>
      <point x="328" y="1292"/>
      <point x="287" y="1292" type="qcurve"/>
      <point x="246" y="1292"/>
      <point x="246" y="1292"/>
      <point x="246" y="1254" type="qcurve"/>
      <point x="246" y="1216"/>
      <point x="246" y="1216"/>
    </contour>
    <contour>
      <point x="287" y="1292" type="qcurve"/>
      <point x="328" y="1292"/>
      <point x="328" y="1292"/>
      <point x="328" y="1330" type="qcurve"/>
      <point x="328" y="1368"/>
      <point x="328" y="1368"/>
      <point x="287" y="1368" type="qcurve"/>
      <point x="246" y="1368"/>
      <point x="246" y="1368"/>
      <point x="246" y="1330" type="qcurve"/>
      <point x="246" y="1292"/>
      <point x="246" y="1292"/>
    </contour>
    <contour>
      <point x="369" y="1216" type="qcurve"/>
      <point x="410" y="1216"/>
      <point x="410" y="1216"/>
      <point x="410" y="1254" type="qcurve"/>
      <point x="410" y="1292"/>
      <point x="410" y="1292"/>
      <point x="369" y="1292" type="qcurve"/>
      <point x="328" y="1292"/>
      <point x="328" y="1292"/>
      <point x="328" y="1254" type="qcurve"/>
      <point x="328" y="1216"/>
      <point x="328" y="1216"/>
    </contour>
    <contour>
      <point x="369" y="1292" type="qcurve"/>
      <point x="410" y="1292"/>
      <point x="410" y="1292"/>
      <point x="410" y="1330" type="qcurve"/>
      <point x="410" y="1368"/>
      <point x="410" y="1368"/>
      <point x="369" y="1368" type="qcurve"/>
      <point x="328" y="1368"/>
      <point x="328" y="1368"/>
      <point x="328" y="1330" type="qcurve"/>
      <point x="328" y="1292"/>
      <point x="328" y="1292"/>
    </contour>
    <contour>
      <point x="287" y="608" type="qcurve"/>
      <point x="328" y="608"/>
      <point x="328" y="608"/>
      <point x="328" y="646" type="qcurve"/>
      <point x="328" y="684"/>
      <point x="328" y="684"/>
      <point x="287" y="684" type="qcurve"/>
      <point x="246" y="684"/>
      <point x="246" y="684"/>
      <point x="246" y="646" type="qcurve"/>
      <point x="246" y="608"/>
      <point x="246" y="608"/>
    </contour>
    <contour>
      <point x="287" y="684" type="qcurve"/>
      <point x="328" y="684"/>
      <point x="328" y="684"/>
      <point x="328" y="722" type="qcurve"/>
      <point x="328" y="760"/>
      <point x="328" y="760"/>
      <point x="287" y="760" type="qcurve"/>
      <point x="246" y="760"/>
      <point x="246" y="760"/>
      <point x="246" y="722" type="qcurve"/>
      <point x="246" y="684"/>
      <point x="246" y="684"/>
    </contour>
    <contour>
      <point x="369" y="608" type="qcurve"/>
      <point x="410" y="608"/>
      <point x="410" y="608"/>
      <point x="410" y="646" type="qcurve"/>
      <point x="410" y="684"/>
      <point x="410" y="684"/>
      <point x="369" y="684" type="qcurve"/>
      <point x="328" y="684"/>
      <point x="328" y="684"/>
      <point x="328" y="646" type="qcurve"/>
      <point x="328" y="608"/>
      <point x="328" y="608"/>
    </contour>
    <contour>
      <point x="369" y="684" type="qcurve"/>
      <point x="410" y="684"/>
      <point x="410" y="684"/>
      <point x="410" y="722" type="qcurve"/>
      <point x="410" y="760"/>
      <point x="410" y="760"/>
      <point x="369" y="760" type="qcurve"/>
      <point x="328" y="760"/>
      <point x="328" y="760"/>
      <point x="328" y="722" type="qcurve"/>
      <point x="328" y="684"/>
      <point x="328" y="684"/>
    </contour>
  </outline>
</glyph>
<glyph name="seven" format="2">
  <advance width="738"/>
  <unicode hex="0037"/>
  <outline>
    <contour>
      <point x="230" y="1216" type="qcurve"/>
      <point x="296" y="1216"/>
      <point x="465" y="1216"/>
      <point x="496" y="1216" type="qcurve"/>
      <point x="574" y="1216"/>
      <point x="574" y="1216"/>
      <point x="574" y="1254" type="qcurve"/>
      <point x="574" y="1292"/>
      <point x="574" y="1292"/>
      <point x="496" y="1292" type="qcurve"/>
      <point x="466" y="1292"/>
      <point x="260" y="1292"/>
      <point x="230" y="1292" type="qcurve"/>
      <point x="164" y="1292"/>
      <point x="164" y="1292"/>
      <point x="164" y="1254" type="qcurve"/>
      <point x="164" y="1216"/>
      <point x="164" y="1216"/>
    </contour>
    <contour>
      <point x="230" y="1292" type="qcurve"/>
      <point x="296" y="1292"/>
      <point x="465" y="1292"/>
      <point x="496" y="1292" type="qcurve"/>
      <point x="574" y="1292"/>
      <point x="574" y="1292"/>
      <point x="574" y="1330" type="qcurve"/>
      <point x="574" y="1368"/>
      <point x="574" y="1368"/>
      <point x="496" y="1368" type="qcurve"/>
      <point x="466" y="1368"/>
      <point x="261" y="1368"/>
      <point x="230" y="1368" type="qcurve"/>
      <point x="164" y="1368"/>
      <point x="164" y="1368"/>
      <point x="164" y="1330" type="qcurve"/>
      <point x="164" y="1292"/>
      <point x="164" y="1292"/>
    </contour>
    <contour>
      <point x="185" y="147" type="qcurve"/>
      <point x="221" y="133"/>
      <point x="221" y="133"/>
      <point x="235" y="168" type="qcurve"/>
      <point x="639" y="1176" type="line"/>
      <point x="656" y="1216"/>
      <point x="656" y="1216"/>
      <point x="615" y="1216" type="qcurve"/>
      <point x="574" y="1216"/>
      <point x="574" y="1216"/>
      <point x="558" y="1177" type="qcurve"/>
      <point x="166" y="196" type="line"/>
      <point x="151" y="161"/>
      <point x="151" y="161"/>
    </contour>
    <contour>
      <point x="256" y="120" type="qcurve"/>
      <point x="290" y="106"/>
      <point x="290" y="106"/>
      <point x="304" y="140" type="qcurve"/>
      <point x="721" y="1175" type="line"/>
      <point x="738" y="1216"/>
      <point x="738" y="1216"/>
      <point x="697" y="1216" type="qcurve"/>
      <point x="656" y="1216"/>
      <point x="656" y="1216"/>
      <point x="639" y="1176" type="qcurve"/>
      <point x="235" y="168" type="line"/>
      <point x="221" y="133"/>
      <point x="221" y="133"/>
    </contour>
    <contour>
      <point x="131" y="7" type="qcurve"/>
      <point x="165" y="-7"/>
      <point x="165" y="-7"/>
      <point x="179" y="28" type="qcurve"/>
      <point x="193" y="64"/>
      <point x="193" y="64"/>
      <point x="157" y="77" type="qcurve"/>
      <point x="125" y="90"/>
      <point x="125" y="90"/>
      <point x="111" y="56" type="qcurve"/>
      <point x="97" y="21"/>
      <point x="97" y="21"/>
    </contour>
    <contour>
      <point x="201" y="-20" type="qcurve"/>
      <point x="234" y="-34"/>
      <point x="234" y="-34"/>
      <point x="248" y="0" type="qcurve"/>
      <point x="262" y="36"/>
      <point x="262" y="36"/>
      <point x="229" y="50" type="qcurve"/>
      <point x="193" y="64"/>
      <point x="193" y="64"/>
      <point x="179" y="28" type="qcurve"/>
      <point x="165" y="-7"/>
      <point x="165" y="-7"/>
    </contour>
    <contour>
      <point x="157" y="77" type="qcurve"/>
      <point x="193" y="64"/>
      <point x="193" y="64"/>
      <point x="207" y="99" type="qcurve"/>
      <point x="221" y="133"/>
      <point x="221" y="133"/>
      <point x="185" y="147" type="qcurve"/>
      <point x="151" y="161"/>
      <point x="151" y="161"/>
      <point x="138" y="125" type="qcurve"/>
      <point x="125" y="90"/>
      <point x="125" y="90"/>
    </contour>
    <contour>
      <point x="229" y="50" type="qcurve"/>
      <point x="262" y="36"/>
      <point x="262" y="36"/>
      <point x="276" y="72" type="qcurve"/>
      <point x="290" y="106"/>
      <point x="290" y="106"/>
      <point x="256" y="120" type="qcurve"/>
      <point x="221" y="133"/>
      <point x="221" y="133"/>
      <point x="207" y="99" type="qcurve"/>
      <point x="193" y="64"/>
      <point x="193" y="64"/>
    </contour>
    <contour>
      <point x="41" y="1216" type="qcurve"/>
      <point x="82" y="1216"/>
      <point x="82" y="1216"/>
      <point x="82" y="1254" type="qcurve"/>
      <point x="82" y="1292"/>
      <point x="82" y="1292"/>
      <point x="41" y="1292" type="qcurve"/>
      <point x="0" y="1292"/>
      <point x="0" y="1292"/>
      <point x="0" y="1254" type="qcurve"/>
      <point x="0" y="1216"/>
      <point x="0" y="1216"/>
    </contour>
    <contour>
      <point x="41" y="1292" type="qcurve"/>
      <point x="82" y="1292"/>
      <point x="82" y="1292"/>
      <point x="82" y="1330" type="qcurve"/>
      <point x="82" y="1368"/>
      <point x="82" y="1368"/>
      <point x="41" y="1368" type="qcurve"/>
      <point x="0" y="1368"/>
      <point x="0" y="1368"/>
      <point x="0" y="1330" type="qcurve"/>
      <point x="0" y="1292"/>
      <point x="0" y="1292"/>
    </contour>
    <contour>
      <point x="123" y="1216" type="qcurve"/>
      <point x="164" y="1216"/>
      <point x="164" y="1216"/>
      <point x="164" y="1254" type="qcurve"/>
      <point x="164" y="1292"/>
      <point x="164" y="1292"/>
      <point x="123" y="1292" type="qcurve"/>
      <point x="82" y="1292"/>
      <point x="82" y="1292"/>
      <point x="82" y="1254" type="qcurve"/>
      <point x="82" y="1216"/>
      <point x="82" y="1216"/>
    </contour>
    <contour>
      <point x="123" y="1292" type="qcurve"/>
      <point x="164" y="1292"/>
      <point x="164" y="1292"/>
      <point x="164" y="1330" type="qcurve"/>
      <point x="164" y="1368"/>
      <point x="164" y="1368"/>
      <point x="123" y="1368" type="qcurve"/>
      <point x="82" y="1368"/>
      <point x="82" y="1368"/>
      <point x="82" y="1330" type="qcurve"/>
      <point x="82" y="1292"/>
      <point x="82" y="1292"/>
    </contour>
    <contour>
      <point x="615" y="1216" type="qcurve"/>
      <point x="656" y="1216"/>
      <point x="656" y="1216"/>
      <point x="656" y="1254" type="qcurve"/>
      <point x="656" y="1292"/>
      <point x="656" y="1292"/>
      <point x="615" y="1292" type="qcurve"/>
      <point x="574" y="1292"/>
      <point x="574" y="1292"/>
      <point x="574" y="1254" type="qcurve"/>
      <point x="574" y="1216"/>
      <point x="574" y="1216"/>
    </contour>
    <contour>
      <point x="615" y="1292" type="qcurve"/>
      <point x="656" y="1292"/>
      <point x="656" y="1292"/>
      <point x="656" y="1330" type="qcurve"/>
      <point x="656" y="1368"/>
      <point x="656" y="1368"/>
      <point x="615" y="1368" type="qcurve"/>
      <point x="574" y="1368"/>
      <point x="574" y="1368"/>
      <point x="574" y="1330" type="qcurve"/>
      <point x="574" y="1292"/>
      <point x="574" y="1292"/>
    </contour>
    <contour>
      <point x="697" y="1216" type="qcurve"/>
      <point x="738" y="1216"/>
      <point x="738" y="1216"/>
      <point x="738" y="1254" type="qcurve"/>
      <point x="738" y="1292"/>
      <point x="738" y="1292"/>
      <point x="697" y="1292" type="qcurve"/>
      <point x="656" y="1292"/>
      <point x="656" y="1292"/>
      <point x="656" y="1254" type="qcurve"/>
      <point x="656" y="1216"/>
      <point x="656" y="1216"/>
    </contour>
    <contour>
      <point x="697" y="1292" type="qcurve"/>
      <point x="738" y="1292"/>
      <point x="738" y="1292"/>
      <point x="738" y="1330" type="qcurve"/>
      <point x="738" y="1368"/>
      <point x="738" y="1368"/>
      <point x="697" y="1368" type="qcurve"/>
      <point x="656" y="1368"/>
      <point x="656" y="1368"/>
      <point x="656" y="1330" type="qcurve"/>
      <point x="656" y="1292"/>
      <point x="656" y="1292"/>
    </contour>
  </outline>
</glyph>
<glyph name="question" format="2">
  <advance width="857"/>
  <unicode hex="003F"/>
  <outline>
    <contour>
      <point x="344" y="579" type="qcurve"/>
      <point x="571" y="579"/>
      <point x="833" y="825"/>
      <point x="833" y="1049" type="qcurve"/>
      <point x="833" y="1276"/>
      <point x="568" y="1523"/>
      <point x="344" y="1523" type="qcurve"/>
      <point x="261" y="1523"/>
      <point x="142" y="1495"/>
      <point x="78" y="1464" type="qcurve"/>
      <point x="78" y="1305" type="line"/>
      <point x="131" y="1337"/>
      <point x="269" y="1373"/>
      <point x="344" y="1373" type="qcurve"/>
      <point x="497" y="1373"/>
      <point x="660" y="1206"/>
      <point x="660" y="1049" type="qcurve"/>
      <point x="660" y="888"/>
      <point x="493" y="727"/>
      <point x="344" y="727" type="qcurve"/>
      <point x="301" y="727"/>
      <point x="221" y="728"/>
      <point x="188" y="729" type="qcurve"/>
      <point x="188" y="599" type="line"/>
      <point x="224" y="590"/>
      <point x="303" y="579"/>
    </contour>
    <contour>
      <point x="264" y="-30" type="line"/>
      <point x="430" y="136" type="line"/>
      <point x="264" y="304" type="line"/>
      <point x="98" y="136" type="line"/>
    </contour>
    <contour>
      <point x="187" y="407" type="line"/>
      <point x="347" y="407" type="line"/>
      <point x="347" y="665" type="line"/>
      <point x="187" y="665" type="line"/>
    </contour>
  </outline>
</glyph>
<glyph name="at" format="2">
  <advance width="1626"/>
  <unicode hex="0040"/>
  <outline>
    <contour>
      <point x="821" y="-32" type="qcurve"/>
      <point x="885" y="-32"/>
      <point x="1007" y="-15"/>
      <point x="1062" y="1" type="qcurve"/>
      <point x="1062" y="131" type="line"/>
      <point x="1008" y="110"/>
      <point x="887" y="88"/>
      <point x="821" y="88" type="qcurve"/>
      <point x="559" y="88"/>
      <point x="236" y="418"/>
      <point x="236" y="697" type="qcurve"/>
      <point x="236" y="974"/>
      <point x="559" y="1305"/>
      <point x="821" y="1305" type="qcurve"/>
      <point x="1083" y="1305"/>
      <point x="1416" y="974"/>
      <point x="1416" y="697" type="qcurve"/>
      <point x="1416" y="642"/>
      <point x="1395" y="528"/>
      <point x="1378" y="492" type="qcurve"/>
      <point x="1130" y="492" type="line"/>
      <point x="1130" y="1026" type="line"/>
      <point x="1001" y="1026" type="line"/>
      <point x="1001" y="456" type="line"/>
      <point x="1048" y="380" type="line"/>
      <point x="1120" y="368" type="line"/>
      <point x="1437" y="368" type="line"/>
      <point x="1518" y="444" type="line"/>
      <point x="1538" y="492"/>
      <point x="1566" y="631"/>
      <point x="1566" y="700" type="qcurve"/>
      <point x="1566" y="1031"/>
      <point x="1147" y="1432"/>
      <point x="821" y="1432" type="qcurve"/>
      <point x="495" y="1432"/>
      <point x="86" y="1034"/>
      <point x="86" y="700" type="qcurve"/>
      <point x="86" y="366"/>
      <point x="495" y="-32"/>
    </contour>
    <contour>
      <point x="756" y="348" type="qcurve"/>
      <point x="901" y="348"/>
      <point x="1078" y="538"/>
      <point x="1078" y="697" type="qcurve"/>
      <point x="1078" y="855"/>
      <point x="898" y="1044"/>
      <point x="757" y="1044" type="qcurve"/>
      <point x="609" y="1044"/>
      <point x="415" y="854"/>
      <point x="415" y="697" type="qcurve"/>
      <point x="415" y="539"/>
      <point x="609" y="348"/>
    </contour>
    <contour>
      <point x="778" y="467" type="qcurve"/>
      <point x="680" y="467"/>
      <point x="558" y="591"/>
      <point x="558" y="695" type="qcurve"/>
      <point x="558" y="802"/>
      <point x="680" y="925"/>
      <point x="778" y="925" type="qcurve"/>
      <point x="876" y="925"/>
      <point x="996" y="802"/>
      <point x="996" y="695" type="qcurve"/>
      <point x="996" y="591"/>
      <point x="876" y="467"/>
    </contour>
  </outline>
</glyph>
<glyph name="A" format="2">
  <advance width="1274"/>
  <unicode hex="0041"/>
  <unicode hex="0061"/>
  <outline>
    <contour>
      <point x="350" y="244" type="qcurve"/>
      <point x="392" y="244"/>
      <point x="544" y="244"/>
      <point x="629" y="244" type="qcurve"/>
      <point x="715" y="244"/>
      <point x="889" y="244"/>
      <point x="963" y="244" type="qcurve"/>
      <point x="1018" y="244"/>
      <point x="1018" y="244"/>
      <point x="1003" y="278" type="qcurve"/>
      <point x="988" y="312"/>
      <point x="988" y="312"/>
      <point x="938" y="312" type="qcurve"/>
      <point x="868" y="312"/>
      <point x="707" y="312"/>
      <point x="629" y="312" type="qcurve"/>
      <point x="544" y="312"/>
      <point x="395" y="312"/>
      <point x="350" y="312" type="qcurve"/>
      <point x="279" y="312"/>
      <point x="279" y="312"/>
      <point x="264" y="278" type="qcurve"/>
      <point x="249" y="244"/>
      <point x="249" y="244"/>
    </contour>
    <contour>
      <point x="350" y="312" type="qcurve"/>
      <point x="387" y="312"/>
      <point x="540" y="312"/>
      <point x="629" y="312" type="qcurve"/>
      <point x="709" y="312"/>
      <point x="870" y="312"/>
      <point x="938" y="312" type="qcurve"/>
      <point x="988" y="312"/>
      <point x="988" y="312"/>
      <point x="973" y="346" type="qcurve"/>
      <point x="958" y="380"/>
      <point x="958" y="380"/>
      <point x="910" y="380" type="qcurve"/>
      <point x="845" y="380"/>
      <point x="704" y="380"/>
      <point x="629" y="380" type="qcurve"/>
      <point x="554" y="380"/>
      <point x="406" y="380"/>
      <point x="350" y="380" type="qcurve"/>
      <point x="309" y="380"/>
      <point x="309" y="380"/>
      <point x="294" y="346" type="qcurve"/>
      <point x="279" y="312"/>
      <point x="279" y="312"/>
    </contour>
    <contour>
      <point x="339" y="723" type="qcurve"/>
      <point x="374" y="707"/>
      <point x="374" y="707"/>
      <point x="386" y="736" type="qcurve"/>
      <point x="465" y="916"/>
      <point x="542" y="1092"/>
      <point x="574" y="1161" type="qcurve"/>
      <point x="598" y="1216"/>
      <point x="598" y="1216"/>
      <point x="558" y="1216" type="qcurve"/>
      <point x="517" y="1216"/>
      <point x="517" y="1216"/>
      <point x="505" y="1190" type="qcurve"/>
      <point x="483" y="1143"/>
      <point x="411" y="973"/>
      <point x="321" y="772" type="qcurve"/>
      <point x="306" y="737"/>
      <point x="306" y="737"/>
    </contour>
    <contour>
      <point x="408" y="692" type="qcurve"/>
      <point x="441" y="676"/>
      <point x="441" y="676"/>
      <point x="457" y="713" type="qcurve"/>
      <point x="537" y="896"/>
      <point x="609" y="1055"/>
      <point x="627" y="1097" type="qcurve"/>
      <point x="638" y="1123"/>
      <point x="638" y="1123"/>
      <point x="618" y="1168" type="qcurve"/>
      <point x="598" y="1216"/>
      <point x="598" y="1216"/>
      <point x="574" y="1161" type="qcurve"/>
      <point x="542" y="1092"/>
      <point x="465" y="916"/>
      <point x="386" y="736" type="qcurve"/>
      <point x="374" y="707"/>
      <point x="374" y="707"/>
    </contour>
    <contour>
      <point x="938" y="721" type="qcurve"/>
      <point x="972" y="736"/>
      <point x="972" y="736"/>
      <point x="960" y="763" type="qcurve"/>
      <point x="886" y="931"/>
      <point x="812" y="1102"/>
      <point x="771" y="1191" type="qcurve"/>
      <point x="759" y="1216"/>
      <point x="759" y="1216"/>
      <point x="718" y="1216" type="qcurve"/>
      <point x="679" y="1216"/>
      <point x="679" y="1216"/>
      <point x="710" y="1145" type="qcurve"/>
      <point x="745" y="1066"/>
      <point x="817" y="892"/>
      <point x="888" y="734" type="qcurve"/>
      <point x="901" y="705"/>
      <point x="901" y="705"/>
    </contour>
    <contour>
      <point x="865" y="690" type="qcurve"/>
      <point x="901" y="705"/>
      <point x="901" y="705"/>
      <point x="888" y="734" type="qcurve"/>
      <point x="817" y="892"/>
      <point x="745" y="1066"/>
      <point x="710" y="1145" type="qcurve"/>
      <point x="679" y="1216"/>
      <point x="679" y="1216"/>
      <point x="657" y="1169" type="qcurve"/>
      <point x="638" y="1123"/>
      <point x="638" y="1123"/>
      <point x="649" y="1097" type="qcurve"/>
      <point x="668" y="1054"/>
      <point x="735" y="890"/>
      <point x="816" y="704" type="qcurve"/>
      <point x="829" y="674"/>
      <point x="829" y="674"/>
    </contour>
    <contour>
      <point x="558" y="1216" type="qcurve"/>
      <point x="598" y="1216"/>
      <point x="598" y="1216"/>
      <point x="618" y="1251" type="qcurve"/>
      <point x="638" y="1288"/>
      <point x="638" y="1288"/>
      <point x="592" y="1288" type="qcurve"/>
      <point x="549" y="1288"/>
      <point x="549" y="1288"/>
      <point x="533" y="1252" type="qcurve"/>
      <point x="517" y="1216"/>
      <point x="517" y="1216"/>
    </contour>
    <contour>
      <point x="592" y="1288" type="qcurve"/>
      <point x="638" y="1288"/>
      <point x="638" y="1288"/>
      <point x="638" y="1329" type="qcurve"/>
      <point x="638" y="1368"/>
      <point x="638" y="1368"/>
      <point x="612" y="1368" type="qcurve"/>
      <point x="584" y="1368"/>
      <point x="584" y="1368"/>
      <point x="567" y="1329" type="qcurve"/>
      <point x="549" y="1288"/>
      <point x="549" y="1288"/>
    </contour>
    <contour>
      <point x="618" y="1168" type="qcurve"/>
      <point x="638" y="1123"/>
      <point x="638" y="1123"/>
      <point x="658" y="1169" type="qcurve"/>
      <point x="679" y="1216"/>
      <point x="679" y="1216"/>
      <point x="660" y="1250" type="qcurve"/>
      <point x="638" y="1288"/>
      <point x="638" y="1288"/>
      <point x="618" y="1251" type="qcurve"/>
      <point x="598" y="1216"/>
      <point x="598" y="1216"/>
    </contour>
    <contour>
      <point x="718" y="1216" type="qcurve"/>
      <point x="759" y="1216"/>
      <point x="759" y="1216"/>
      <point x="743" y="1252" type="qcurve"/>
      <point x="727" y="1288"/>
      <point x="727" y="1288"/>
      <point x="684" y="1288" type="qcurve"/>
      <point x="638" y="1288"/>
      <point x="638" y="1288"/>
      <point x="660" y="1250" type="qcurve"/>
      <point x="679" y="1216"/>
      <point x="679" y="1216"/>
    </contour>
    <contour>
      <point x="684" y="1288" type="qcurve"/>
      <point x="727" y="1288"/>
      <point x="727" y="1288"/>
      <point x="709" y="1329" type="qcurve"/>
      <point x="692" y="1368"/>
      <point x="692" y="1368"/>
      <point x="664" y="1368" type="qcurve"/>
      <point x="638" y="1368"/>
      <point x="638" y="1368"/>
      <point x="638" y="1329" type="qcurve"/>
      <point x="638" y="1288"/>
      <point x="638" y="1288"/>
    </contour>
    <contour>
      <point x="162" y="134" type="qcurve"/>
      <point x="129" y="149"/>
      <point x="129" y="149"/>
      <point x="114" y="115" type="qcurve"/>
      <point x="99" y="81"/>
      <point x="99" y="81"/>
      <point x="132" y="66" type="qcurve"/>
      <point x="166" y="52"/>
      <point x="166" y="52"/>
      <point x="181" y="85" type="qcurve"/>
      <point x="196" y="119"/>
      <point x="196" y="119"/>
    </contour>
    <contour>
      <point x="132" y="66" type="qcurve"/>
      <point x="99" y="81"/>
      <point x="99" y="81"/>
      <point x="84" y="48" type="qcurve"/>
      <point x="69" y="14"/>
      <point x="69" y="14"/>
      <point x="103" y="-1" type="qcurve"/>
      <point x="136" y="-16"/>
      <point x="136" y="-16"/>
      <point x="151" y="18" type="qcurve"/>
      <point x="166" y="52"/>
      <point x="166" y="52"/>
    </contour>
    <contour>
      <point x="95" y="164" type="qcurve"/>
      <point x="61" y="179"/>
      <point x="61" y="179"/>
      <point x="46" y="145" type="qcurve"/>
      <point x="31" y="111"/>
      <point x="31" y="111"/>
      <point x="65" y="96" type="qcurve"/>
      <point x="99" y="81"/>
      <point x="99" y="81"/>
      <point x="114" y="115" type="qcurve"/>
      <point x="129" y="149"/>
      <point x="129" y="149"/>
    </contour>
    <contour>
      <point x="65" y="96" type="qcurve"/>
      <point x="31" y="111"/>
      <point x="31" y="111"/>
      <point x="16" y="78" type="qcurve"/>
      <point x="1" y="44"/>
      <point x="1" y="44"/>
      <point x="35" y="29" type="qcurve"/>
      <point x="69" y="14"/>
      <point x="69" y="14"/>
      <point x="84" y="48" type="qcurve"/>
      <point x="99" y="81"/>
      <point x="99" y="81"/>
    </contour>
    <contour>
      <point x="409" y="692" type="qcurve"/>
      <point x="375" y="707"/>
      <point x="375" y="707"/>
      <point x="360" y="673" type="qcurve"/>
      <point x="345" y="639"/>
      <point x="345" y="639"/>
      <point x="379" y="624" type="qcurve"/>
      <point x="413" y="609"/>
      <point x="413" y="609"/>
      <point x="428" y="643" type="qcurve"/>
      <point x="443" y="677"/>
      <point x="443" y="677"/>
    </contour>
    <contour>
      <point x="379" y="624" type="qcurve"/>
      <point x="345" y="639"/>
      <point x="345" y="639"/>
      <point x="331" y="605" type="qcurve"/>
      <point x="316" y="572"/>
      <point x="316" y="572"/>
      <point x="349" y="557" type="qcurve"/>
      <point x="383" y="542"/>
      <point x="383" y="542"/>
      <point x="398" y="576" type="qcurve"/>
      <point x="413" y="609"/>
      <point x="413" y="609"/>
    </contour>
    <contour>
      <point x="342" y="722" type="qcurve"/>
      <point x="308" y="737"/>
      <point x="308" y="737"/>
      <point x="293" y="703" type="qcurve"/>
      <point x="278" y="669"/>
      <point x="278" y="669"/>
      <point x="312" y="654" type="qcurve"/>
      <point x="345" y="639"/>
      <point x="345" y="639"/>
      <point x="360" y="673" type="qcurve"/>
      <point x="375" y="707"/>
      <point x="375" y="707"/>
    </contour>
    <contour>
      <point x="312" y="654" type="qcurve"/>
      <point x="278" y="669"/>
      <point x="278" y="669"/>
      <point x="263" y="635" type="qcurve"/>
      <point x="248" y="602"/>
      <point x="248" y="602"/>
      <point x="282" y="587" type="qcurve"/>
      <point x="316" y="572"/>
      <point x="316" y="572"/>
      <point x="331" y="605" type="qcurve"/>
      <point x="345" y="639"/>
      <point x="345" y="639"/>
    </contour>
    <contour>
      <point x="349" y="557" type="qcurve"/>
      <point x="316" y="572"/>
      <point x="316" y="572"/>
      <point x="301" y="538" type="qcurve"/>
      <point x="286" y="504"/>
      <point x="268" y="465"/>
      <point x="221" y="358" type="qcurve"/>
      <point x="176" y="257"/>
      <point x="159" y="219"/>
      <point x="144" y="184" type="qcurve"/>
      <point x="129" y="149"/>
      <point x="129" y="149"/>
      <point x="162" y="134" type="qcurve"/>
      <point x="196" y="119"/>
      <point x="196" y="119"/>
      <point x="212" y="154" type="qcurve"/>
      <point x="227" y="189"/>
      <point x="244" y="226"/>
      <point x="289" y="328" type="qcurve"/>
      <point x="335" y="433"/>
      <point x="353" y="474"/>
      <point x="368" y="508" type="qcurve"/>
      <point x="383" y="542"/>
      <point x="383" y="542"/>
    </contour>
    <contour>
      <point x="282" y="587" type="qcurve"/>
      <point x="248" y="602"/>
      <point x="248" y="602"/>
      <point x="233" y="568" type="qcurve"/>
      <point x="218" y="534"/>
      <point x="201" y="495"/>
      <point x="153" y="388" type="qcurve"/>
      <point x="109" y="287"/>
      <point x="92" y="249"/>
      <point x="76" y="214" type="qcurve"/>
      <point x="61" y="179"/>
      <point x="61" y="179"/>
      <point x="95" y="164" type="qcurve"/>
      <point x="129" y="149"/>
      <point x="129" y="149"/>
      <point x="144" y="184" type="qcurve"/>
      <point x="159" y="219"/>
      <point x="176" y="256"/>
      <point x="221" y="358" type="qcurve"/>
      <point x="267" y="463"/>
      <point x="286" y="504"/>
      <point x="301" y="538" type="qcurve"/>
      <point x="316" y="572"/>
      <point x="316" y="572"/>
    </contour>
    <contour>
      <point x="1181" y="162" type="qcurve"/>
      <point x="1145" y="146"/>
      <point x="1145" y="146"/>
      <point x="1160" y="112" type="qcurve"/>
      <point x="1175" y="78"/>
      <point x="1175" y="78"/>
      <point x="1211" y="94" type="qcurve"/>
      <point x="1246" y="110"/>
      <point x="1246" y="110"/>
      <point x="1232" y="144" type="qcurve"/>
      <point x="1217" y="177"/>
      <point x="1217" y="177"/>
    </contour>
    <contour>
      <point x="1211" y="94" type="qcurve"/>
      <point x="1175" y="78"/>
      <point x="1175" y="78"/>
      <point x="1190" y="45" type="qcurve"/>
      <point x="1204" y="11"/>
      <point x="1204" y="11"/>
      <point x="1240" y="26" type="qcurve"/>
      <point x="1276" y="42"/>
      <point x="1276" y="42"/>
      <point x="1261" y="76" type="qcurve"/>
      <point x="1246" y="110"/>
      <point x="1246" y="110"/>
    </contour>
    <contour>
      <point x="1109" y="131" type="qcurve"/>
      <point x="1074" y="115"/>
      <point x="1074" y="115"/>
      <point x="1089" y="81" type="qcurve"/>
      <point x="1103" y="47"/>
      <point x="1103" y="47"/>
      <point x="1139" y="63" type="qcurve"/>
      <point x="1175" y="78"/>
      <point x="1175" y="78"/>
      <point x="1160" y="112" type="qcurve"/>
      <point x="1145" y="146"/>
      <point x="1145" y="146"/>
    </contour>
    <contour>
      <point x="1139" y="63" type="qcurve"/>
      <point x="1103" y="47"/>
      <point x="1103" y="47"/>
      <point x="1118" y="13" type="qcurve"/>
      <point x="1133" y="-21"/>
      <point x="1133" y="-21"/>
      <point x="1169" y="-5" type="qcurve"/>
      <point x="1204" y="11"/>
      <point x="1204" y="11"/>
      <point x="1190" y="45" type="qcurve"/>
      <point x="1175" y="78"/>
      <point x="1175" y="78"/>
    </contour>
    <contour>
      <point x="996" y="585" type="qcurve"/>
      <point x="960" y="570"/>
      <point x="960" y="570"/>
      <point x="975" y="536" type="qcurve"/>
      <point x="990" y="501"/>
      <point x="1008" y="462"/>
      <point x="1054" y="354" type="qcurve"/>
      <point x="1098" y="253"/>
      <point x="1115" y="216"/>
      <point x="1130" y="181" type="qcurve"/>
      <point x="1145" y="146"/>
      <point x="1145" y="146"/>
      <point x="1181" y="162" type="qcurve"/>
      <point x="1217" y="177"/>
      <point x="1217" y="177"/>
      <point x="1202" y="212" type="qcurve"/>
      <point x="1186" y="247"/>
      <point x="1170" y="284"/>
      <point x="1126" y="386" type="qcurve"/>
      <point x="1080" y="491"/>
      <point x="1062" y="532"/>
      <point x="1047" y="567" type="qcurve"/>
      <point x="1032" y="601"/>
      <point x="1032" y="601"/>
    </contour>
    <contour>
      <point x="925" y="554" type="qcurve"/>
      <point x="889" y="538"/>
      <point x="889" y="538"/>
      <point x="904" y="505" type="qcurve"/>
      <point x="919" y="470"/>
      <point x="936" y="430"/>
      <point x="983" y="323" type="qcurve"/>
      <point x="1027" y="222"/>
      <point x="1043" y="185"/>
      <point x="1059" y="150" type="qcurve"/>
      <point x="1074" y="115"/>
      <point x="1074" y="115"/>
      <point x="1109" y="131" type="qcurve"/>
      <point x="1145" y="146"/>
      <point x="1145" y="146"/>
      <point x="1130" y="181" type="qcurve"/>
      <point x="1115" y="216"/>
      <point x="1099" y="253"/>
      <point x="1054" y="354" type="qcurve"/>
      <point x="1008" y="460"/>
      <point x="990" y="501"/>
      <point x="975" y="536" type="qcurve"/>
      <point x="960" y="570"/>
      <point x="960" y="570"/>
    </contour>
    <contour>
      <point x="937" y="721" type="qcurve"/>
      <point x="901" y="705"/>
      <point x="901" y="705"/>
      <point x="916" y="671" type="qcurve"/>
      <point x="931" y="638"/>
      <point x="931" y="638"/>
      <point x="967" y="653" type="qcurve"/>
      <point x="1002" y="669"/>
      <point x="1002" y="669"/>
      <point x="988" y="703" type="qcurve"/>
      <point x="973" y="737"/>
      <point x="973" y="737"/>
    </contour>
    <contour>
      <point x="967" y="653" type="qcurve"/>
      <point x="931" y="638"/>
      <point x="931" y="638"/>
      <point x="946" y="604" type="qcurve"/>
      <point x="960" y="570"/>
      <point x="960" y="570"/>
      <point x="996" y="585" type="qcurve"/>
      <point x="1032" y="601"/>
      <point x="1032" y="601"/>
      <point x="1017" y="635" type="qcurve"/>
      <point x="1002" y="669"/>
      <point x="1002" y="669"/>
    </contour>
    <contour>
      <point x="865" y="690" type="qcurve"/>
      <point x="830" y="674"/>
      <point x="830" y="674"/>
      <point x="845" y="640" type="qcurve"/>
      <point x="859" y="606"/>
      <point x="859" y="606"/>
      <point x="895" y="622" type="qcurve"/>
      <point x="931" y="638"/>
      <point x="931" y="638"/>
      <point x="916" y="671" type="qcurve"/>
      <point x="901" y="705"/>
      <point x="901" y="705"/>
    </contour>
    <contour>
      <point x="895" y="622" type="qcurve"/>
      <point x="859" y="606"/>
      <point x="859" y="606"/>
      <point x="874" y="572" type="qcurve"/>
      <point x="889" y="538"/>
      <point x="889" y="538"/>
      <point x="925" y="554" type="qcurve"/>
      <point x="960" y="570"/>
      <point x="960" y="570"/>
      <point x="946" y="604" type="qcurve"/>
      <point x="931" y="638"/>
      <point x="931" y="638"/>
    </contour>
  </outline>
</glyph>
<glyph name="B" format="2">
  <advance width="960"/>
  <unicode hex="0042"/>
  <unicode hex="0062"/>
  <outline>
    <contour>
      <point x="205" y="152" type="qcurve"/>
      <point x="246" y="152"/>
      <point x="246" y="152"/>
      <point x="246" y="190" type="qcurve"/>
      <point x="246" y="228"/>
      <point x="246" y="309"/>
      <point x="246" y="424" type="qcurve"/>
      <point x="246" y="534"/>
      <point x="246" y="621"/>
      <point x="246" y="659" type="qcurve"/>
      <point x="246" y="697"/>
      <point x="246" y="697"/>
      <point x="205" y="697" type="qcurve"/>
      <point x="164" y="697"/>
      <point x="164" y="697"/>
      <point x="164" y="659" type="qcurve"/>
      <point x="164" y="621"/>
      <point x="164" y="535"/>
      <point x="164" y="424" type="qcurve"/>
      <point x="164" y="309"/>
      <point x="164" y="228"/>
      <point x="164" y="190" type="qcurve"/>
      <point x="164" y="152"/>
      <point x="164" y="152"/>
    </contour>
    <contour>
      <point x="205" y="849" type="qcurve"/>
      <point x="246" y="849"/>
      <point x="246" y="849"/>
      <point x="246" y="887" type="qcurve"/>
      <point x="246" y="925"/>
      <point x="246" y="947"/>
      <point x="246" y="1027" type="qcurve"/>
      <point x="246" y="1103"/>
      <point x="246" y="1140"/>
      <point x="246" y="1178" type="qcurve"/>
      <point x="246" y="1216"/>
      <point x="246" y="1216"/>
      <point x="205" y="1216" type="qcurve"/>
      <point x="164" y="1216"/>
      <point x="164" y="1216"/>
      <point x="164" y="1178" type="qcurve"/>
      <point x="164" y="1140"/>
      <point x="164" y="1103"/>
      <point x="164" y="1027" type="qcurve"/>
      <point x="164" y="947"/>
      <point x="164" y="925"/>
      <point x="164" y="887" type="qcurve"/>
      <point x="164" y="849"/>
      <point x="164" y="849"/>
    </contour>
    <contour>
      <point x="287" y="152" type="qcurve"/>
      <point x="328" y="152"/>
      <point x="328" y="152"/>
      <point x="328" y="190" type="qcurve"/>
      <point x="328" y="228"/>
      <point x="328" y="309"/>
      <point x="328" y="424" type="qcurve"/>
      <point x="328" y="534"/>
      <point x="328" y="621"/>
      <point x="328" y="659" type="qcurve"/>
      <point x="328" y="697"/>
      <point x="328" y="697"/>
      <point x="287" y="697" type="qcurve"/>
      <point x="246" y="697"/>
      <point x="246" y="697"/>
      <point x="246" y="659" type="qcurve"/>
      <point x="246" y="621"/>
      <point x="246" y="534"/>
      <point x="246" y="424" type="qcurve"/>
      <point x="246" y="309"/>
      <point x="246" y="228"/>
      <point x="246" y="190" type="qcurve"/>
      <point x="246" y="152"/>
      <point x="246" y="152"/>
    </contour>
    <contour>
      <point x="287" y="849" type="qcurve"/>
      <point x="328" y="849"/>
      <point x="328" y="849"/>
      <point x="328" y="887" type="qcurve"/>
      <point x="328" y="925"/>
      <point x="328" y="947"/>
      <point x="328" y="1027" type="qcurve"/>
      <point x="328" y="1103"/>
      <point x="328" y="1140"/>
      <point x="328" y="1178" type="qcurve"/>
      <point x="328" y="1216"/>
      <point x="328" y="1216"/>
      <point x="287" y="1216" type="qcurve"/>
      <point x="246" y="1216"/>
      <point x="246" y="1216"/>
      <point x="246" y="1178" type="qcurve"/>
      <point x="246" y="1140"/>
      <point x="246" y="1103"/>
      <point x="246" y="1027" type="qcurve"/>
      <point x="246" y="947"/>
      <point x="246" y="925"/>
      <point x="246" y="887" type="qcurve"/>
      <point x="246" y="849"/>
      <point x="246" y="849"/>
    </contour>
    <contour>
      <point x="688" y="1044" type="qcurve"/>
      <point x="729" y="1044"/>
      <point x="729" y="1044"/>
      <point x="729" y="1052" type="qcurve"/>
      <point x="729" y="1165"/>
      <point x="580" y="1292"/>
      <point x="423" y="1292" type="qcurve"/>
      <point x="413" y="1292"/>
      <point x="378" y="1292"/>
      <point x="368" y="1292" type="qcurve"/>
      <point x="328" y="1292"/>
      <point x="328" y="1292"/>
      <point x="328" y="1253" type="qcurve"/>
      <point x="328" y="1216"/>
      <point x="328" y="1216"/>
      <point x="368" y="1216" type="qcurve"/>
      <point x="378" y="1216"/>
      <point x="406" y="1216"/>
      <point x="451" y="1216" type="qcurve"/>
      <point x="547" y="1216"/>
      <point x="648" y="1128"/>
      <point x="648" y="1052" type="qcurve"/>
      <point x="648" y="1044"/>
      <point x="648" y="1044"/>
    </contour>
    <contour>
      <point x="368" y="76" type="qcurve"/>
      <point x="379" y="76"/>
      <point x="409" y="76"/>
      <point x="420" y="76" type="qcurve"/>
      <point x="623" y="76"/>
      <point x="830" y="263"/>
      <point x="830" y="407" type="qcurve"/>
      <point x="830" y="417"/>
      <point x="830" y="417"/>
      <point x="790" y="417" type="qcurve"/>
      <point x="749" y="417"/>
      <point x="749" y="417"/>
      <point x="749" y="406" type="qcurve"/>
      <point x="749" y="287"/>
      <point x="580" y="152"/>
      <point x="420" y="152" type="qcurve"/>
      <point x="409" y="152"/>
      <point x="379" y="152"/>
      <point x="368" y="152" type="qcurve"/>
      <point x="328" y="152"/>
      <point x="328" y="152"/>
      <point x="328" y="114" type="qcurve"/>
      <point x="328" y="76"/>
      <point x="328" y="76"/>
    </contour>
    <contour>
      <point x="768" y="1044" type="qcurve"/>
      <point x="808" y="1044"/>
      <point x="808" y="1044"/>
      <point x="808" y="1058" type="qcurve"/>
      <point x="806" y="1194"/>
      <point x="601" y="1368"/>
      <point x="436" y="1368" type="qcurve"/>
      <point x="403" y="1368"/>
      <point x="378" y="1368"/>
      <point x="368" y="1368" type="qcurve"/>
      <point x="328" y="1368"/>
      <point x="328" y="1368"/>
      <point x="328" y="1330" type="qcurve"/>
      <point x="328" y="1292"/>
      <point x="328" y="1292"/>
      <point x="368" y="1292" type="qcurve"/>
      <point x="378" y="1292"/>
      <point x="413" y="1292"/>
      <point x="423" y="1292" type="qcurve"/>
      <point x="580" y="1292"/>
      <point x="729" y="1165"/>
      <point x="729" y="1052" type="qcurve"/>
      <point x="729" y="1044"/>
      <point x="729" y="1044"/>
    </contour>
    <contour>
      <point x="368" y="0" type="qcurve"/>
      <point x="379" y="0"/>
      <point x="437" y="0"/>
      <point x="447" y="0" type="qcurve"/>
      <point x="664" y="0"/>
      <point x="912" y="219"/>
      <point x="912" y="411" type="qcurve"/>
      <point x="912" y="417"/>
      <point x="912" y="417"/>
      <point x="871" y="417" type="qcurve"/>
      <point x="830" y="417"/>
      <point x="830" y="417"/>
      <point x="830" y="407" type="qcurve"/>
      <point x="830" y="263"/>
      <point x="623" y="76"/>
      <point x="420" y="76" type="qcurve"/>
      <point x="409" y="76"/>
      <point x="379" y="76"/>
      <point x="368" y="76" type="qcurve"/>
      <point x="328" y="76"/>
      <point x="328" y="76"/>
      <point x="328" y="39" type="qcurve"/>
      <point x="328" y="0"/>
      <point x="328" y="0"/>
    </contour>
    <contour>
      <point x="368" y="697" type="qcurve"/>
      <point x="379" y="697"/>
      <point x="414" y="697"/>
      <point x="425" y="697" type="qcurve"/>
      <point x="465" y="697"/>
      <point x="465" y="697"/>
      <point x="465" y="734" type="qcurve"/>
      <point x="465" y="773"/>
      <point x="465" y="773"/>
      <point x="425" y="773" type="qcurve"/>
      <point x="414" y="773"/>
      <point x="379" y="773"/>
      <point x="368" y="773" type="qcurve"/>
      <point x="328" y="773"/>
      <point x="328" y="773"/>
      <point x="328" y="735" type="qcurve"/>
      <point x="328" y="697"/>
      <point x="328" y="697"/>
    </contour>
    <contour>
      <point x="368" y="773" type="qcurve"/>
      <point x="384" y="773"/>
      <point x="411" y="773"/>
      <point x="425" y="773" type="qcurve"/>
      <point x="465" y="773"/>
      <point x="465" y="773"/>
      <point x="465" y="810" type="qcurve"/>
      <point x="465" y="849"/>
      <point x="465" y="849"/>
      <point x="425" y="849" type="qcurve"/>
      <point x="414" y="849"/>
      <point x="379" y="849"/>
      <point x="368" y="849" type="qcurve"/>
      <point x="328" y="849"/>
      <point x="328" y="849"/>
      <point x="328" y="811" type="qcurve"/>
      <point x="328" y="773"/>
      <point x="328" y="773"/>
    </contour>
    <contour>
      <point x="671" y="837" type="qcurve"/>
      <point x="710" y="871"/>
      <point x="729" y="958"/>
      <point x="729" y="1001" type="qcurve"/>
      <point x="729" y="1024"/>
      <point x="729" y="1024"/>
      <point x="688" y="1024" type="qcurve"/>
      <point x="648" y="1024"/>
      <point x="648" y="1024"/>
      <point x="648" y="994" type="qcurve"/>
      <point x="648" y="963"/>
      <point x="647" y="952"/>
      <point x="640" y="921" type="qcurve"/>
      <point x="619" y="896"/>
      <point x="619" y="896"/>
      <point x="619" y="851" type="qcurve"/>
      <point x="619" y="808"/>
      <point x="619" y="808"/>
    </contour>
    <contour>
      <point x="790" y="437" type="qcurve"/>
      <point x="830" y="437"/>
      <point x="830" y="437"/>
      <point x="830" y="447" type="qcurve"/>
      <point x="830" y="538"/>
      <point x="747" y="673"/>
      <point x="668" y="714" type="qcurve"/>
      <point x="619" y="740"/>
      <point x="619" y="740"/>
      <point x="619" y="695" type="qcurve"/>
      <point x="619" y="660"/>
      <point x="619" y="660"/>
      <point x="652" y="637" type="qcurve"/>
      <point x="702" y="601"/>
      <point x="749" y="510"/>
      <point x="749" y="445" type="qcurve"/>
      <point x="749" y="437"/>
      <point x="749" y="437"/>
    </contour>
    <contour>
      <point x="726" y="791" type="qcurve"/>
      <point x="777" y="830"/>
      <point x="807" y="956"/>
      <point x="808" y="1014" type="qcurve"/>
      <point x="808" y="1024"/>
      <point x="808" y="1024"/>
      <point x="768" y="1024" type="qcurve"/>
      <point x="729" y="1024"/>
      <point x="729" y="1024"/>
      <point x="729" y="1002" type="qcurve"/>
      <point x="729" y="958"/>
      <point x="710" y="871"/>
      <point x="671" y="837" type="qcurve"/>
      <point x="619" y="808"/>
      <point x="619" y="808"/>
      <point x="658" y="792" type="qcurve"/>
      <point x="698" y="775"/>
      <point x="698" y="775"/>
    </contour>
    <contour>
      <point x="871" y="437" type="qcurve"/>
      <point x="912" y="437"/>
      <point x="912" y="437"/>
      <point x="912" y="447" type="qcurve"/>
      <point x="912" y="550"/>
      <point x="802" y="726"/>
      <point x="725" y="763" type="qcurve"/>
      <point x="698" y="775"/>
      <point x="698" y="775"/>
      <point x="658" y="757" type="qcurve"/>
      <point x="619" y="740"/>
      <point x="619" y="740"/>
      <point x="668" y="714" type="qcurve"/>
      <point x="747" y="673"/>
      <point x="830" y="538"/>
      <point x="830" y="448" type="qcurve"/>
      <point x="830" y="437"/>
      <point x="830" y="437"/>
    </contour>
    <contour>
      <point x="688" y="1024" type="qcurve"/>
      <point x="729" y="1024"/>
      <point x="729" y="1024"/>
      <point x="729" y="1029" type="qcurve"/>
      <point x="729" y="1034"/>
      <point x="729" y="1034"/>
      <point x="688" y="1034" type="qcurve"/>
      <point x="648" y="1034"/>
      <point x="648" y="1034"/>
      <point x="648" y="1029" type="qcurve"/>
      <point x="648" y="1024"/>
      <point x="648" y="1024"/>
    </contour>
    <contour>
      <point x="688" y="1034" type="qcurve"/>
      <point x="729" y="1034"/>
      <point x="729" y="1034"/>
      <point x="729" y="1039" type="qcurve"/>
      <point x="729" y="1044"/>
      <point x="729" y="1044"/>
      <point x="688" y="1044" type="qcurve"/>
      <point x="648" y="1044"/>
      <point x="648" y="1044"/>
      <point x="648" y="1039" type="qcurve"/>
      <point x="648" y="1034"/>
      <point x="648" y="1034"/>
    </contour>
    <contour>
      <point x="790" y="417" type="qcurve"/>
      <point x="830" y="417"/>
      <point x="830" y="417"/>
      <point x="830" y="422" type="qcurve"/>
      <point x="830" y="427"/>
      <point x="830" y="427"/>
      <point x="790" y="427" type="qcurve"/>
      <point x="749" y="427"/>
      <point x="749" y="427"/>
      <point x="749" y="422" type="qcurve"/>
      <point x="749" y="417"/>
      <point x="749" y="417"/>
    </contour>
    <contour>
      <point x="790" y="427" type="qcurve"/>
      <point x="830" y="427"/>
      <point x="830" y="427"/>
      <point x="830" y="432" type="qcurve"/>
      <point x="830" y="437"/>
      <point x="830" y="437"/>
      <point x="790" y="437" type="qcurve"/>
      <point x="749" y="437"/>
      <point x="749" y="437"/>
      <point x="749" y="432" type="qcurve"/>
      <point x="749" y="427"/>
      <point x="749" y="427"/>
    </contour>
    <contour>
      <point x="768" y="1024" type="qcurve"/>
      <point x="808" y="1024"/>
      <point x="808" y="1024"/>
      <point x="808" y="1029" type="qcurve"/>
      <point x="808" y="1034"/>
      <point x="808" y="1034"/>
      <point x="768" y="1034" type="qcurve"/>
      <point x="729" y="1034"/>
      <point x="729" y="1034"/>
      <point x="729" y="1029" type="qcurve"/>
      <point x="729" y="1024"/>
      <point x="729" y="1024"/>
    </contour>
    <contour>
      <point x="768" y="1034" type="qcurve"/>
      <point x="808" y="1034"/>
      <point x="808" y="1034"/>
      <point x="808" y="1039" type="qcurve"/>
      <point x="808" y="1044"/>
      <point x="808" y="1044"/>
      <point x="768" y="1044" type="qcurve"/>
      <point x="729" y="1044"/>
      <point x="729" y="1044"/>
      <point x="729" y="1039" type="qcurve"/>
      <point x="729" y="1034"/>
      <point x="729" y="1034"/>
    </contour>
    <contour>
      <point x="871" y="417" type="qcurve"/>
      <point x="912" y="417"/>
      <point x="912" y="417"/>
      <point x="912" y="422" type="qcurve"/>
      <point x="912" y="427"/>
      <point x="912" y="427"/>
      <point x="871" y="427" type="qcurve"/>
      <point x="830" y="427"/>
      <point x="830" y="427"/>
      <point x="830" y="422" type="qcurve"/>
      <point x="830" y="417"/>
      <point x="830" y="417"/>
    </contour>
    <contour>
      <point x="871" y="427" type="qcurve"/>
      <point x="912" y="427"/>
      <point x="912" y="427"/>
      <point x="912" y="432" type="qcurve"/>
      <point x="912" y="437"/>
      <point x="912" y="437"/>
      <point x="871" y="437" type="qcurve"/>
      <point x="830" y="437"/>
      <point x="830" y="437"/>
      <point x="830" y="432" type="qcurve"/>
      <point x="830" y="427"/>
      <point x="830" y="427"/>
    </contour>
    <contour>
      <point x="205" y="697" type="qcurve"/>
      <point x="246" y="697"/>
      <point x="246" y="697"/>
      <point x="246" y="735" type="qcurve"/>
      <point x="246" y="773"/>
      <point x="246" y="773"/>
      <point x="205" y="773" type="qcurve"/>
      <point x="164" y="773"/>
      <point x="164" y="773"/>
      <point x="164" y="735" type="qcurve"/>
      <point x="164" y="697"/>
      <point x="164" y="697"/>
    </contour>
    <contour>
      <point x="205" y="773" type="qcurve"/>
      <point x="246" y="773"/>
      <point x="246" y="773"/>
      <point x="246" y="811" type="qcurve"/>
      <point x="246" y="849"/>
      <point x="246" y="849"/>
      <point x="205" y="849" type="qcurve"/>
      <point x="164" y="849"/>
      <point x="164" y="849"/>
      <point x="164" y="811" type="qcurve"/>
      <point x="164" y="773"/>
      <point x="164" y="773"/>
    </contour>
    <contour>
      <point x="287" y="697" type="qcurve"/>
      <point x="328" y="697"/>
      <point x="328" y="697"/>
      <point x="328" y="735" type="qcurve"/>
      <point x="328" y="773"/>
      <point x="328" y="773"/>
      <point x="287" y="773" type="qcurve"/>
      <point x="246" y="773"/>
      <point x="246" y="773"/>
      <point x="246" y="735" type="qcurve"/>
      <point x="246" y="697"/>
      <point x="246" y="697"/>
    </contour>
    <contour>
      <point x="287" y="773" type="qcurve"/>
      <point x="328" y="773"/>
      <point x="328" y="773"/>
      <point x="328" y="811" type="qcurve"/>
      <point x="328" y="849"/>
      <point x="328" y="849"/>
      <point x="287" y="849" type="qcurve"/>
      <point x="246" y="849"/>
      <point x="246" y="849"/>
      <point x="246" y="811" type="qcurve"/>
      <point x="246" y="773"/>
      <point x="246" y="773"/>
    </contour>
    <contour>
      <point x="205" y="0" type="qcurve"/>
      <point x="246" y="0"/>
      <point x="246" y="0"/>
      <point x="246" y="38" type="qcurve"/>
      <point x="246" y="76"/>
      <point x="246" y="76"/>
      <point x="205" y="76" type="qcurve"/>
      <point x="164" y="76"/>
      <point x="164" y="76"/>
      <point x="164" y="38" type="qcurve"/>
      <point x="164" y="0"/>
      <point x="164" y="0"/>
    </contour>
    <contour>
      <point x="205" y="76" type="qcurve"/>
      <point x="246" y="76"/>
      <point x="246" y="76"/>
      <point x="246" y="114" type="qcurve"/>
      <point x="246" y="152"/>
      <point x="246" y="152"/>
      <point x="205" y="152" type="qcurve"/>
      <point x="164" y="152"/>
      <point x="164" y="152"/>
      <point x="164" y="114" type="qcurve"/>
      <point x="164" y="76"/>
      <point x="164" y="76"/>
    </contour>
    <contour>
      <point x="287" y="0" type="qcurve"/>
      <point x="328" y="0"/>
      <point x="328" y="0"/>
      <point x="328" y="38" type="qcurve"/>
      <point x="328" y="76"/>
      <point x="328" y="76"/>
      <point x="287" y="76" type="qcurve"/>
      <point x="246" y="76"/>
      <point x="246" y="76"/>
      <point x="246" y="38" type="qcurve"/>
      <point x="246" y="0"/>
      <point x="246" y="0"/>
    </contour>
    <contour>
      <point x="287" y="76" type="qcurve"/>
      <point x="328" y="76"/>
      <point x="328" y="76"/>
      <point x="328" y="114" type="qcurve"/>
      <point x="328" y="152"/>
      <point x="328" y="152"/>
      <point x="287" y="152" type="qcurve"/>
      <point x="246" y="152"/>
      <point x="246" y="152"/>
      <point x="246" y="114" type="qcurve"/>
      <point x="246" y="76"/>
      <point x="246" y="76"/>
    </contour>
    <contour>
      <point x="205" y="1216" type="qcurve"/>
      <point x="246" y="1216"/>
      <point x="246" y="1216"/>
      <point x="246" y="1254" type="qcurve"/>
      <point x="246" y="1292"/>
      <point x="246" y="1292"/>
      <point x="205" y="1292" type="qcurve"/>
      <point x="164" y="1292"/>
      <point x="164" y="1292"/>
      <point x="164" y="1254" type="qcurve"/>
      <point x="164" y="1216"/>
      <point x="164" y="1216"/>
    </contour>
    <contour>
      <point x="205" y="1292" type="qcurve"/>
      <point x="246" y="1292"/>
      <point x="246" y="1292"/>
      <point x="246" y="1330" type="qcurve"/>
      <point x="246" y="1368"/>
      <point x="246" y="1368"/>
      <point x="205" y="1368" type="qcurve"/>
      <point x="164" y="1368"/>
      <point x="164" y="1368"/>
      <point x="164" y="1330" type="qcurve"/>
      <point x="164" y="1292"/>
      <point x="164" y="1292"/>
    </contour>
    <contour>
      <point x="287" y="1216" type="qcurve"/>
      <point x="328" y="1216"/>
      <point x="328" y="1216"/>
      <point x="328" y="1254" type="qcurve"/>
      <point x="328" y="1292"/>
      <point x="328" y="1292"/>
      <point x="287" y="1292" type="qcurve"/>
      <point x="246" y="1292"/>
      <point x="246" y="1292"/>
      <point x="246" y="1254" type="qcurve"/>
      <point x="246" y="1216"/>
      <point x="246" y="1216"/>
    </contour>
    <contour>
      <point x="287" y="1292" type="qcurve"/>
      <point x="328" y="1292"/>
      <point x="328" y="1292"/>
      <point x="328" y="1330" type="qcurve"/>
      <point x="328" y="1368"/>
      <point x="328" y="1368"/>
      <point x="287" y="1368" type="qcurve"/>
      <point x="246" y="1368"/>
      <point x="246" y="1368"/>
      <point x="246" y="1330" type="qcurve"/>
      <point x="246" y="1292"/>
      <point x="246" y="1292"/>
    </contour>
    <contour>
      <point x="507" y="695" type="qcurve"/>
      <point x="547" y="691"/>
      <point x="547" y="691"/>
      <point x="547" y="733" type="qcurve"/>
      <point x="547" y="773"/>
      <point x="547" y="773"/>
      <point x="506" y="773" type="qcurve"/>
      <point x="465" y="773"/>
      <point x="465" y="773"/>
      <point x="465" y="735" type="qcurve"/>
      <point x="465" y="697"/>
      <point x="465" y="697"/>
    </contour>
    <contour>
      <point x="506" y="773" type="qcurve"/>
      <point x="547" y="773"/>
      <point x="547" y="773"/>
      <point x="547" y="811" type="qcurve"/>
      <point x="547" y="855"/>
      <point x="547" y="855"/>
      <point x="506" y="851" type="qcurve"/>
      <point x="465" y="849"/>
      <point x="465" y="849"/>
      <point x="465" y="811" type="qcurve"/>
      <point x="465" y="773"/>
      <point x="465" y="773"/>
    </contour>
    <contour>
      <point x="581" y="680" type="qcurve"/>
      <point x="619" y="660"/>
      <point x="619" y="660"/>
      <point x="619" y="695" type="qcurve"/>
      <point x="619" y="740"/>
      <point x="619" y="740"/>
      <point x="586" y="755" type="qcurve"/>
      <point x="547" y="773"/>
      <point x="547" y="773"/>
      <point x="547" y="733" type="qcurve"/>
      <point x="547" y="691"/>
      <point x="547" y="691"/>
    </contour>
    <contour>
      <point x="586" y="792" type="qcurve"/>
      <point x="619" y="808"/>
      <point x="619" y="808"/>
      <point x="619" y="851" type="qcurve"/>
      <point x="619" y="896"/>
      <point x="619" y="896"/>
      <point x="582" y="871" type="qcurve"/>
      <point x="547" y="855"/>
      <point x="547" y="855"/>
      <point x="547" y="811" type="qcurve"/>
      <point x="547" y="773"/>
      <point x="547" y="773"/>
    </contour>
    <contour>
      <point x="586" y="755" type="qcurve"/>
      <point x="619" y="740"/>
      <point x="619" y="740"/>
      <point x="656" y="756" type="qcurve"/>
      <point x="698" y="775"/>
      <point x="698" y="775"/>
      <point x="656" y="793" type="qcurve"/>
      <point x="619" y="808"/>
      <point x="619" y="808"/>
      <point x="586" y="792" type="qcurve"/>
      <point x="547" y="773"/>
      <point x="547" y="773"/>
    </contour>
  </outline>
</glyph>
<glyph name="I" format="2">
  <advance width="492"/>
  <unicode hex="0049"/>
  <unicode hex="0069"/>
  <outline>
    <contour>
      <point x="205" y="608" type="qcurve"/>
      <point x="246" y="608"/>
      <point x="246" y="608"/>
      <point x="246" y="646" type="qcurve"/>
      <point x="246" y="684"/>
      <point x="246" y="684"/>
      <point x="205" y="684" type="qcurve"/>
      <point x="164" y="684"/>
      <point x="164" y="684"/>
      <point x="164" y="646" type="qcurve"/>
      <point x="164" y="608"/>
      <point x="164" y="608"/>
    </contour>
    <contour>
      <point x="205" y="684" type="qcurve"/>
      <point x="246" y="684"/>
      <point x="246" y="684"/>
      <point x="246" y="722" type="qcurve"/>
      <point x="246" y="760"/>
      <point x="246" y="760"/>
      <point x="205" y="760" type="qcurve"/>
      <point x="164" y="760"/>
      <point x="164" y="760"/>
      <point x="164" y="722" type="qcurve"/>
      <point x="164" y="684"/>
      <point x="164" y="684"/>
    </contour>
    <contour>
      <point x="287" y="608" type="qcurve"/>
      <point x="328" y="608"/>
      <point x="328" y="608"/>
      <point x="328" y="646" type="qcurve"/>
      <point x="328" y="684"/>
      <point x="328" y="684"/>
      <point x="287" y="684" type="qcurve"/>
      <point x="246" y="684"/>
      <point x="246" y="684"/>
      <point x="246" y="646" type="qcurve"/>
      <point x="246" y="608"/>
      <point x="246" y="608"/>
    </contour>
    <contour>
      <point x="287" y="684" type="qcurve"/>
      <point x="328" y="684"/>
      <point x="328" y="684"/>
      <point x="328" y="722" type="qcurve"/>
      <point x="328" y="760"/>
      <point x="328" y="760"/>
      <point x="287" y="760" type="qcurve"/>
      <point x="246" y="760"/>
      <point x="246" y="760"/>
      <point x="246" y="722" type="qcurve"/>
      <point x="246" y="684"/>
      <point x="246" y="684"/>
    </contour>
    <contour>
      <point x="205" y="760" type="qcurve"/>
      <point x="246" y="760"/>
      <point x="246" y="760"/>
      <point x="246" y="798" type="qcurve"/>
      <point x="246" y="836"/>
      <point x="246" y="875"/>
      <point x="246" y="992" type="qcurve"/>
      <point x="246" y="1102"/>
      <point x="246" y="1140"/>
      <point x="246" y="1178" type="qcurve"/>
      <point x="246" y="1216"/>
      <point x="246" y="1216"/>
      <point x="205" y="1216" type="qcurve"/>
      <point x="164" y="1216"/>
      <point x="164" y="1216"/>
      <point x="164" y="1178" type="qcurve"/>
      <point x="164" y="1140"/>
      <point x="164" y="1103"/>
      <point x="164" y="992" type="qcurve"/>
      <point x="164" y="877"/>
      <point x="164" y="836"/>
      <point x="164" y="798" type="qcurve"/>
      <point x="164" y="760"/>
      <point x="164" y="760"/>
    </contour>
    <contour>
      <point x="287" y="760" type="qcurve"/>
      <point x="328" y="760"/>
      <point x="328" y="760"/>
      <point x="328" y="798" type="qcurve"/>
      <point x="328" y="836"/>
      <point x="328" y="875"/>
      <point x="328" y="992" type="qcurve"/>
      <point x="328" y="1102"/>
      <point x="328" y="1140"/>
      <point x="328" y="1178" type="qcurve"/>
      <point x="328" y="1216"/>
      <point x="328" y="1216"/>
      <point x="287" y="1216" type="qcurve"/>
      <point x="246" y="1216"/>
      <point x="246" y="1216"/>
      <point x="246" y="1178" type="qcurve"/>
      <point x="246" y="1140"/>
      <point x="246" y="1103"/>
      <point x="246" y="992" type="qcurve"/>
      <point x="246" y="877"/>
      <point x="246" y="836"/>
      <point x="246" y="798" type="qcurve"/>
      <point x="246" y="760"/>
      <point x="246" y="760"/>
    </contour>
    <contour>
      <point x="205" y="152" type="qcurve"/>
      <point x="246" y="152"/>
      <point x="246" y="152"/>
      <point x="246" y="190" type="qcurve"/>
      <point x="246" y="228"/>
      <point x="246" y="263"/>
      <point x="246" y="380" type="qcurve"/>
      <point x="246" y="490"/>
      <point x="246" y="532"/>
      <point x="246" y="570" type="qcurve"/>
      <point x="246" y="608"/>
      <point x="246" y="608"/>
      <point x="205" y="608" type="qcurve"/>
      <point x="164" y="608"/>
      <point x="164" y="608"/>
      <point x="164" y="570" type="qcurve"/>
      <point x="164" y="532"/>
      <point x="164" y="491"/>
      <point x="164" y="380" type="qcurve"/>
      <point x="164" y="265"/>
      <point x="164" y="228"/>
      <point x="164" y="190" type="qcurve"/>
      <point x="164" y="152"/>
      <point x="164" y="152"/>
    </contour>
    <contour>
      <point x="287" y="152" type="qcurve"/>
      <point x="328" y="152"/>
      <point x="328" y="152"/>
      <point x="328" y="190" type="qcurve"/>
      <point x="328" y="228"/>
      <point x="328" y="263"/>
      <point x="328" y="380" type="qcurve"/>
      <point x="328" y="490"/>
      <point x="328" y="532"/>
      <point x="328" y="570" type="qcurve"/>
      <point x="328" y="608"/>
      <point x="328" y="608"/>
      <point x="287" y="608" type="qcurve"/>
      <point x="246" y="608"/>
      <point x="246" y="608"/>
      <point x="246" y="570" type="qcurve"/>
      <point x="246" y="532"/>
      <point x="246" y="491"/>
      <point x="246" y="380" type="qcurve"/>
      <point x="246" y="265"/>
      <point x="246" y="228"/>
      <point x="246" y="190" type="qcurve"/>
      <point x="246" y="152"/>
      <point x="246" y="152"/>
    </contour>
    <contour>
      <point x="205" y="0" type="qcurve"/>
      <point x="246" y="0"/>
      <point x="246" y="0"/>
      <point x="246" y="38" type="qcurve"/>
      <point x="246" y="76"/>
      <point x="246" y="76"/>
      <point x="205" y="76" type="qcurve"/>
      <point x="164" y="76"/>
      <point x="164" y="76"/>
      <point x="164" y="38" type="qcurve"/>
      <point x="164" y="0"/>
      <point x="164" y="0"/>
    </contour>
    <contour>
      <point x="205" y="76" type="qcurve"/>
      <point x="246" y="76"/>
      <point x="246" y="76"/>
      <point x="246" y="114" type="qcurve"/>
      <point x="246" y="152"/>
      <point x="246" y="152"/>
      <point x="205" y="152" type="qcurve"/>
      <point x="164" y="152"/>
      <point x="164" y="152"/>
      <point x="164" y="114" type="qcurve"/>
      <point x="164" y="76"/>
      <point x="164" y="76"/>
    </contour>
    <contour>
      <point x="287" y="0" type="qcurve"/>
      <point x="328" y="0"/>
      <point x="328" y="0"/>
      <point x="328" y="38" type="qcurve"/>
      <point x="328" y="76"/>
      <point x="328" y="76"/>
      <point x="287" y="76" type="qcurve"/>
      <point x="246" y="76"/>
      <point x="246" y="76"/>
      <point x="246" y="38" type="qcurve"/>
      <point x="246" y="0"/>
      <point x="246" y="0"/>
    </contour>
    <contour>
      <point x="287" y="76" type="qcurve"/>
      <point x="328" y="76"/>
      <point x="328" y="76"/>
      <point x="328" y="114" type="qcurve"/>
      <point x="328" y="152"/>
      <point x="328" y="152"/>
      <point x="287" y="152" type="qcurve"/>
      <point x="246" y="152"/>
      <point x="246" y="152"/>
      <point x="246" y="114" type="qcurve"/>
      <point x="246" y="76"/>
      <point x="246" y="76"/>
    </contour>
    <contour>
      <point x="205" y="1216" type="qcurve"/>
      <point x="246" y="1216"/>
      <point x="246" y="1216"/>
      <point x="246" y="1254" type="qcurve"/>
      <point x="246" y="1292"/>
      <point x="246" y="1292"/>
      <point x="205" y="1292" type="qcurve"/>
      <point x="164" y="1292"/>
      <point x="164" y="1292"/>
      <point x="164" y="1254" type="qcurve"/>
      <point x="164" y="1216"/>
      <point x="164" y="1216"/>
    </contour>
    <contour>
      <point x="205" y="1292" type="qcurve"/>
      <point x="246" y="1292"/>
      <point x="246" y="1292"/>
      <point x="246" y="1330" type="qcurve"/>
      <point x="246" y="1368"/>
      <point x="246" y="1368"/>
      <point x="205" y="1368" type="qcurve"/>
      <point x="164" y="1368"/>
      <point x="164" y="1368"/>
      <point x="164" y="1330" type="qcurve"/>
      <point x="164" y="1292"/>
      <point x="164" y="1292"/>
    </contour>
    <contour>
      <point x="287" y="1216" type="qcurve"/>
      <point x="328" y="1216"/>
      <point x="328" y="1216"/>
      <point x="328" y="1254" type="qcurve"/>
      <point x="328" y="1292"/>
      <point x="328" y="1292"/>
      <point x="287" y="1292" type="qcurve"/>
      <point x="246" y="1292"/>
      <point x="246" y="1292"/>
      <point x="246" y="1254" type="qcurve"/>
      <point x="246" y="1216"/>
      <point x="246" y="1216"/>
    </contour>
    <contour>
      <point x="287" y="1292" type="qcurve"/>
      <point x="328" y="1292"/>
      <point x="328" y="1292"/>
      <point x="328" y="1330" type="qcurve"/>
      <point x="328" y="1368"/>
      <point x="328" y="1368"/>
      <point x="287" y="1368" type="qcurve"/>
      <point x="246" y="1368"/>
      <point x="246" y="1368"/>
      <point x="246" y="1330" type="qcurve"/>
      <point x="246" y="1292"/>
      <point x="246" y="1292"/>
    </contour>
  </outline>
</glyph>
<glyph name="J" format="2">
  <advance width="863"/>
  <unicode hex="004A"/>
  <unicode hex="006A"/>
  <outline>
    <contour>
      <point x="200" y="-23" type="qcurve"/>
      <point x="220" y="-24"/>
      <point x="220" y="-24"/>
      <point x="220" y="17" type="qcurve"/>
      <point x="220" y="51"/>
      <point x="220" y="51"/>
      <point x="200" y="51" type="qcurve"/>
      <point x="180" y="51"/>
      <point x="180" y="51"/>
      <point x="180" y="17" type="qcurve"/>
      <point x="180" y="-22"/>
      <point x="180" y="-22"/>
    </contour>
    <contour>
      <point x="200" y="51" type="qcurve"/>
      <point x="220" y="51"/>
      <point x="220" y="51"/>
      <point x="220" y="86" type="qcurve"/>
      <point x="220" y="124"/>
      <point x="220" y="124"/>
      <point x="200" y="124" type="qcurve"/>
      <point x="180" y="125"/>
      <point x="180" y="125"/>
      <point x="180" y="86" type="qcurve"/>
      <point x="180" y="51"/>
      <point x="180" y="51"/>
    </contour>
    <contour>
      <point x="240" y="-24" type="qcurve"/>
      <point x="260" y="-24"/>
      <point x="260" y="-24"/>
      <point x="260" y="17" type="qcurve"/>
      <point x="260" y="51"/>
      <point x="260" y="51"/>
      <point x="240" y="51" type="qcurve"/>
      <point x="220" y="51"/>
      <point x="220" y="51"/>
      <point x="220" y="17" type="qcurve"/>
      <point x="220" y="-24"/>
      <point x="220" y="-24"/>
    </contour>
    <contour>
      <point x="240" y="51" type="qcurve"/>
      <point x="260" y="51"/>
      <point x="260" y="51"/>
      <point x="260" y="86" type="qcurve"/>
      <point x="260" y="124"/>
      <point x="260" y="124"/>
      <point x="240" y="124" type="qcurve"/>
      <point x="220" y="124"/>
      <point x="220" y="124"/>
      <point x="220" y="86" type="qcurve"/>
      <point x="220" y="51"/>
      <point x="220" y="51"/>
    </contour>
    <contour>
      <point x="57" y="2" type="qcurve"/>
      <point x="98" y="-9"/>
      <point x="98" y="-9"/>
      <point x="98" y="31" type="qcurve"/>
      <point x="98" y="66"/>
      <point x="98" y="66"/>
      <point x="57" y="80" type="qcurve"/>
      <point x="16" y="100"/>
      <point x="16" y="100"/>
      <point x="16" y="61" type="qcurve"/>
      <point x="16" y="18"/>
      <point x="16" y="18"/>
    </contour>
    <contour>
      <point x="57" y="80" type="qcurve"/>
      <point x="98" y="66"/>
      <point x="98" y="66"/>
      <point x="98" y="111" type="qcurve"/>
      <point x="98" y="145"/>
      <point x="98" y="145"/>
      <point x="59" y="161" type="qcurve"/>
      <point x="16" y="184"/>
      <point x="16" y="184"/>
      <point x="16" y="149" type="qcurve"/>
      <point x="16" y="100"/>
      <point x="16" y="100"/>
    </contour>
    <contour>
      <point x="139" y="-17" type="qcurve"/>
      <point x="180" y="-22"/>
      <point x="180" y="-22"/>
      <point x="180" y="14" type="qcurve"/>
      <point x="180" y="50"/>
      <point x="180" y="50"/>
      <point x="138" y="57" type="qcurve"/>
      <point x="98" y="66"/>
      <point x="98" y="66"/>
      <point x="98" y="31" type="qcurve"/>
      <point x="98" y="-9"/>
      <point x="98" y="-9"/>
    </contour>
    <contour>
      <point x="138" y="57" type="qcurve"/>
      <point x="180" y="50"/>
      <point x="180" y="50"/>
      <point x="180" y="87" type="qcurve"/>
      <point x="180" y="125"/>
      <point x="180" y="125"/>
      <point x="140" y="132" type="qcurve"/>
      <point x="98" y="145"/>
      <point x="98" y="145"/>
      <point x="98" y="111" type="qcurve"/>
      <point x="98" y="66"/>
      <point x="98" y="66"/>
    </contour>
    <contour>
      <point x="590" y="1216" type="qcurve"/>
      <point x="631" y="1216"/>
      <point x="631" y="1216"/>
      <point x="631" y="1254" type="qcurve"/>
      <point x="631" y="1292"/>
      <point x="631" y="1292"/>
      <point x="590" y="1292" type="qcurve"/>
      <point x="549" y="1292"/>
      <point x="549" y="1292"/>
      <point x="549" y="1254" type="qcurve"/>
      <point x="549" y="1216"/>
      <point x="549" y="1216"/>
    </contour>
    <contour>
      <point x="590" y="1292" type="qcurve"/>
      <point x="631" y="1292"/>
      <point x="631" y="1292"/>
      <point x="631" y="1330" type="qcurve"/>
      <point x="631" y="1368"/>
      <point x="631" y="1368"/>
      <point x="590" y="1368" type="qcurve"/>
      <point x="549" y="1368"/>
      <point x="549" y="1368"/>
      <point x="549" y="1330" type="qcurve"/>
      <point x="549" y="1292"/>
      <point x="549" y="1292"/>
    </contour>
    <contour>
      <point x="672" y="1216" type="qcurve"/>
      <point x="713" y="1216"/>
      <point x="713" y="1216"/>
      <point x="713" y="1254" type="qcurve"/>
      <point x="713" y="1292"/>
      <point x="713" y="1292"/>
      <point x="672" y="1292" type="qcurve"/>
      <point x="631" y="1292"/>
      <point x="631" y="1292"/>
      <point x="631" y="1254" type="qcurve"/>
      <point x="631" y="1216"/>
      <point x="631" y="1216"/>
    </contour>
    <contour>
      <point x="672" y="1292" type="qcurve"/>
      <point x="713" y="1292"/>
      <point x="713" y="1292"/>
      <point x="713" y="1330" type="qcurve"/>
      <point x="713" y="1368"/>
      <point x="713" y="1368"/>
      <point x="672" y="1368" type="qcurve"/>
      <point x="631" y="1368"/>
      <point x="631" y="1368"/>
      <point x="631" y="1330" type="qcurve"/>
      <point x="631" y="1292"/>
      <point x="631" y="1292"/>
    </contour>
    <contour>
      <point x="590" y="608" type="qcurve"/>
      <point x="631" y="608"/>
      <point x="631" y="608"/>
      <point x="631" y="646" type="qcurve"/>
      <point x="631" y="684"/>
      <point x="631" y="684"/>
      <point x="590" y="684" type="qcurve"/>
      <point x="549" y="684"/>
      <point x="549" y="684"/>
      <point x="549" y="646" type="qcurve"/>
      <point x="549" y="608"/>
      <point x="549" y="608"/>
    </contour>
    <contour>
      <point x="590" y="684" type="qcurve"/>
      <point x="631" y="684"/>
      <point x="631" y="684"/>
      <point x="631" y="722" type="qcurve"/>
      <point x="631" y="760"/>
      <point x="631" y="760"/>
      <point x="590" y="760" type="qcurve"/>
      <point x="549" y="760"/>
      <point x="549" y="760"/>
      <point x="549" y="722" type="qcurve"/>
      <point x="549" y="684"/>
      <point x="549" y="684"/>
    </contour>
    <contour>
      <point x="672" y="608" type="qcurve"/>
      <point x="713" y="608"/>
      <point x="713" y="608"/>
      <point x="713" y="646" type="qcurve"/>
      <point x="713" y="684"/>
      <point x="713" y="684"/>
      <point x="672" y="684" type="qcurve"/>
      <point x="631" y="684"/>
      <point x="631" y="684"/>
      <point x="631" y="646" type="qcurve"/>
      <point x="631" y="608"/>
      <point x="631" y="608"/>
    </contour>
    <contour>
      <point x="672" y="684" type="qcurve"/>
      <point x="713" y="684"/>
      <point x="713" y="684"/>
      <point x="713" y="722" type="qcurve"/>
      <point x="713" y="760"/>
      <point x="713" y="760"/>
      <point x="672" y="760" type="qcurve"/>
      <point x="631" y="760"/>
      <point x="631" y="760"/>
      <point x="631" y="722" type="qcurve"/>
      <point x="631" y="684"/>
      <point x="631" y="684"/>
    </contour>
    <contour>
      <point x="590" y="760" type="qcurve"/>
      <point x="631" y="760"/>
      <point x="631" y="760"/>
      <point x="631" y="798" type="qcurve"/>
      <point x="631" y="836"/>
      <point x="631" y="875"/>
      <point x="631" y="992" type="qcurve"/>
      <point x="631" y="1102"/>
      <point x="631" y="1140"/>
      <point x="631" y="1178" type="qcurve"/>
      <point x="631" y="1216"/>
      <point x="631" y="1216"/>
      <point x="590" y="1216" type="qcurve"/>
      <point x="549" y="1216"/>
      <point x="549" y="1216"/>
      <point x="549" y="1178" type="qcurve"/>
      <point x="549" y="1140"/>
      <point x="549" y="1103"/>
      <point x="549" y="992" type="qcurve"/>
      <point x="549" y="877"/>
      <point x="549" y="836"/>
      <point x="549" y="798" type="qcurve"/>
      <point x="549" y="760"/>
      <point x="549" y="760"/>
    </contour>
    <contour>
      <point x="672" y="760" type="qcurve"/>
      <point x="713" y="760"/>
      <point x="713" y="760"/>
      <point x="713" y="798" type="qcurve"/>
      <point x="713" y="836"/>
      <point x="713" y="875"/>
      <point x="713" y="992" type="qcurve"/>
      <point x="713" y="1102"/>
      <point x="713" y="1140"/>
      <point x="713" y="1178" type="qcurve"/>
      <point x="713" y="1216"/>
      <point x="713" y="1216"/>
      <point x="672" y="1216" type="qcurve"/>
      <point x="631" y="1216"/>
      <point x="631" y="1216"/>
      <point x="631" y="1178" type="qcurve"/>
      <point x="631" y="1140"/>
      <point x="631" y="1103"/>
      <point x="631" y="992" type="qcurve"/>
      <point x="631" y="877"/>
      <point x="631" y="836"/>
      <point x="631" y="798" type="qcurve"/>
      <point x="631" y="760"/>
      <point x="631" y="760"/>
    </contour>
    <contour>
      <point x="287" y="-23" type="qcurve"/>
      <point x="260" y="-24"/>
      <point x="260" y="-24"/>
      <point x="260" y="15" type="qcurve"/>
      <point x="260" y="51"/>
      <point x="260" y="51"/>
      <point x="278" y="51" type="qcurve"/>
      <point x="358" y="54"/>
      <point x="498" y="115"/>
      <point x="547" y="178" type="qcurve"/>
      <point x="602" y="249"/>
      <point x="631" y="426"/>
      <point x="631" y="551" type="qcurve"/>
      <point x="631" y="608"/>
      <point x="631" y="608"/>
      <point x="672" y="608" type="qcurve"/>
      <point x="713" y="608"/>
      <point x="713" y="608"/>
      <point x="713" y="542" type="qcurve"/>
      <point x="713" y="408"/>
      <point x="667" y="191"/>
      <point x="605" y="120" type="qcurve"/>
      <point x="544" y="49"/>
      <point x="373" y="-23"/>
    </contour>
    <contour>
      <point x="278" y="51" type="qcurve"/>
      <point x="260" y="51"/>
      <point x="260" y="51"/>
      <point x="260" y="86" type="qcurve"/>
      <point x="260" y="124"/>
      <point x="260" y="124"/>
      <point x="276" y="125" type="qcurve"/>
      <point x="339" y="128"/>
      <point x="450" y="182"/>
      <point x="486" y="235" type="qcurve"/>
      <point x="517" y="280"/>
      <point x="549" y="411"/>
      <point x="549" y="560" type="qcurve"/>
      <point x="549" y="608"/>
      <point x="549" y="608"/>
      <point x="589" y="608" type="qcurve"/>
      <point x="631" y="608"/>
      <point x="631" y="608"/>
      <point x="631" y="551" type="qcurve"/>
      <point x="631" y="426"/>
      <point x="602" y="249"/>
      <point x="547" y="178" type="qcurve"/>
      <point x="498" y="115"/>
      <point x="358" y="54"/>
    </contour>
  </outline>
</glyph>
<glyph name="P" format="2">
  <advance width="969"/>
  <unicode hex="0050"/>
  <unicode hex="0070"/>
  <outline>
    <contour>
      <point x="205" y="152" type="qcurve"/>
      <point x="246" y="152"/>
      <point x="246" y="152"/>
      <point x="246" y="190" type="qcurve"/>
      <point x="246" y="228"/>
      <point x="246" y="247"/>
      <point x="246" y="308" type="qcurve"/>
      <point x="246" y="368"/>
      <point x="246" y="386"/>
      <point x="246" y="424" type="qcurve"/>
      <point x="246" y="462"/>
      <point x="246" y="462"/>
      <point x="205" y="462" type="qcurve"/>
      <point x="164" y="462"/>
      <point x="164" y="462"/>
      <point x="164" y="424" type="qcurve"/>
      <point x="164" y="386"/>
      <point x="164" y="368"/>
      <point x="164" y="308" type="qcurve"/>
      <point x="164" y="247"/>
      <point x="164" y="228"/>
      <point x="164" y="190" type="qcurve"/>
      <point x="164" y="152"/>
      <point x="164" y="152"/>
    </contour>
    <contour>
      <point x="205" y="614" type="qcurve"/>
      <point x="246" y="614"/>
      <point x="246" y="614"/>
      <point x="246" y="652" type="qcurve"/>
      <point x="246" y="690"/>
      <point x="246" y="801"/>
      <point x="246" y="916" type="qcurve"/>
      <point x="246" y="1026"/>
      <point x="246" y="1140"/>
      <point x="246" y="1178" type="qcurve"/>
      <point x="246" y="1216"/>
      <point x="246" y="1216"/>
      <point x="205" y="1216" type="qcurve"/>
      <point x="164" y="1216"/>
      <point x="164" y="1216"/>
      <point x="164" y="1178" type="qcurve"/>
      <point x="164" y="1140"/>
      <point x="164" y="1026"/>
      <point x="164" y="916" type="qcurve"/>
      <point x="164" y="801"/>
      <point x="164" y="690"/>
      <point x="164" y="652" type="qcurve"/>
      <point x="164" y="614"/>
      <point x="164" y="614"/>
    </contour>
    <contour>
      <point x="287" y="152" type="qcurve"/>
      <point x="328" y="152"/>
      <point x="328" y="152"/>
      <point x="328" y="190" type="qcurve"/>
      <point x="328" y="228"/>
      <point x="328" y="247"/>
      <point x="328" y="308" type="qcurve"/>
      <point x="328" y="368"/>
      <point x="328" y="386"/>
      <point x="328" y="424" type="qcurve"/>
      <point x="328" y="462"/>
      <point x="328" y="462"/>
      <point x="287" y="462" type="qcurve"/>
      <point x="246" y="462"/>
      <point x="246" y="462"/>
      <point x="246" y="424" type="qcurve"/>
      <point x="246" y="386"/>
      <point x="246" y="368"/>
      <point x="246" y="308" type="qcurve"/>
      <point x="246" y="247"/>
      <point x="246" y="228"/>
      <point x="246" y="190" type="qcurve"/>
      <point x="246" y="152"/>
      <point x="246" y="152"/>
    </contour>
    <contour>
      <point x="287" y="614" type="qcurve"/>
      <point x="328" y="614"/>
      <point x="328" y="614"/>
      <point x="328" y="652" type="qcurve"/>
      <point x="328" y="690"/>
      <point x="328" y="801"/>
      <point x="328" y="916" type="qcurve"/>
      <point x="328" y="1026"/>
      <point x="328" y="1140"/>
      <point x="328" y="1178" type="qcurve"/>
      <point x="328" y="1216"/>
      <point x="328" y="1216"/>
      <point x="287" y="1216" type="qcurve"/>
      <point x="246" y="1216"/>
      <point x="246" y="1216"/>
      <point x="246" y="1178" type="qcurve"/>
      <point x="246" y="1140"/>
      <point x="246" y="1026"/>
      <point x="246" y="916" type="qcurve"/>
      <point x="246" y="801"/>
      <point x="246" y="690"/>
      <point x="246" y="652" type="qcurve"/>
      <point x="246" y="614"/>
      <point x="246" y="614"/>
    </contour>
    <contour>
      <point x="379" y="538" type="qcurve"/>
      <point x="390" y="538"/>
      <point x="409" y="538"/>
      <point x="427" y="538" type="qcurve"/>
      <point x="617" y="538"/>
      <point x="849" y="730"/>
      <point x="849" y="899" type="qcurve"/>
      <point x="849" y="908"/>
      <point x="849" y="908"/>
      <point x="808" y="908" type="qcurve"/>
      <point x="766" y="908"/>
      <point x="766" y="908"/>
      <point x="766" y="901" type="qcurve"/>
      <point x="766" y="771"/>
      <point x="578" y="614"/>
      <point x="420" y="614" type="qcurve"/>
      <point x="409" y="614"/>
      <point x="390" y="614"/>
      <point x="379" y="614" type="qcurve"/>
      <point x="328" y="614"/>
      <point x="328" y="614"/>
      <point x="328" y="576" type="qcurve"/>
      <point x="328" y="538"/>
      <point x="328" y="538"/>
    </contour>
    <contour>
      <point x="808" y="928" type="qcurve"/>
      <point x="849" y="928"/>
      <point x="849" y="928"/>
      <point x="849" y="936" type="qcurve"/>
      <point x="849" y="1080"/>
      <point x="603" y="1292"/>
      <point x="420" y="1292" type="qcurve"/>
      <point x="412" y="1292"/>
      <point x="388" y="1292"/>
      <point x="382" y="1292" type="qcurve"/>
      <point x="328" y="1292"/>
      <point x="328" y="1292"/>
      <point x="328" y="1252" type="qcurve"/>
      <point x="328" y="1216"/>
      <point x="328" y="1216"/>
      <point x="382" y="1216" type="qcurve"/>
      <point x="388" y="1216"/>
      <point x="412" y="1216"/>
      <point x="420" y="1216" type="qcurve"/>
      <point x="571" y="1216"/>
      <point x="766" y="1046"/>
      <point x="766" y="935" type="qcurve"/>
      <point x="766" y="928"/>
      <point x="766" y="928"/>
    </contour>
    <contour>
      <point x="384" y="462" type="qcurve"/>
      <point x="395" y="462"/>
      <point x="418" y="462"/>
      <point x="438" y="462" type="qcurve"/>
      <point x="658" y="462"/>
      <point x="933" y="715"/>
      <point x="933" y="901" type="qcurve"/>
      <point x="933" y="908"/>
      <point x="933" y="908"/>
      <point x="891" y="908" type="qcurve"/>
      <point x="849" y="908"/>
      <point x="849" y="908"/>
      <point x="849" y="899" type="qcurve"/>
      <point x="849" y="730"/>
      <point x="617" y="538"/>
      <point x="427" y="538" type="qcurve"/>
      <point x="412" y="538"/>
      <point x="393" y="538"/>
      <point x="379" y="538" type="qcurve"/>
      <point x="328" y="538"/>
      <point x="328" y="538"/>
      <point x="328" y="500" type="qcurve"/>
      <point x="328" y="462"/>
      <point x="328" y="462"/>
    </contour>
    <contour>
      <point x="891" y="928" type="qcurve"/>
      <point x="933" y="928"/>
      <point x="933" y="928"/>
      <point x="933" y="943" type="qcurve"/>
      <point x="933" y="1115"/>
      <point x="648" y="1368"/>
      <point x="428" y="1368" type="qcurve"/>
      <point x="418" y="1368"/>
      <point x="395" y="1368"/>
      <point x="383" y="1368" type="qcurve"/>
      <point x="328" y="1368"/>
      <point x="328" y="1368"/>
      <point x="328" y="1330" type="qcurve"/>
      <point x="328" y="1292"/>
      <point x="328" y="1292"/>
      <point x="383" y="1292" type="qcurve"/>
      <point x="393" y="1292"/>
      <point x="412" y="1292"/>
      <point x="420" y="1292" type="qcurve"/>
      <point x="603" y="1292"/>
      <point x="849" y="1080"/>
      <point x="849" y="936" type="qcurve"/>
      <point x="849" y="928"/>
      <point x="849" y="928"/>
    </contour>
    <contour>
      <point x="808" y="908" type="qcurve"/>
      <point x="849" y="908"/>
      <point x="849" y="908"/>
      <point x="849" y="913" type="qcurve"/>
      <point x="849" y="918"/>
      <point x="849" y="918"/>
      <point x="808" y="918" type="qcurve"/>
      <point x="766" y="918"/>
      <point x="766" y="918"/>
      <point x="766" y="913" type="qcurve"/>
      <point x="766" y="908"/>
      <point x="766" y="908"/>
    </contour>
    <contour>
      <point x="808" y="918" type="qcurve"/>
      <point x="849" y="918"/>
      <point x="849" y="918"/>
      <point x="849" y="923" type="qcurve"/>
      <point x="849" y="928"/>
      <point x="849" y="928"/>
      <point x="808" y="928" type="qcurve"/>
      <point x="766" y="928"/>
      <point x="766" y="928"/>
      <point x="766" y="923" type="qcurve"/>
      <point x="766" y="918"/>
      <point x="766" y="918"/>
    </contour>
    <contour>
      <point x="891" y="908" type="qcurve"/>
      <point x="933" y="908"/>
      <point x="933" y="908"/>
      <point x="933" y="913" type="qcurve"/>
      <point x="933" y="918"/>
      <point x="933" y="918"/>
      <point x="891" y="918" type="qcurve"/>
      <point x="849" y="918"/>
      <point x="849" y="918"/>
      <point x="849" y="913" type="qcurve"/>
      <point x="849" y="908"/>
      <point x="849" y="908"/>
    </contour>
    <contour>
      <point x="891" y="918" type="qcurve"/>
      <point x="933" y="918"/>
      <point x="933" y="918"/>
      <point x="933" y="923" type="qcurve"/>
      <point x="933" y="928"/>
      <point x="933" y="928"/>
      <point x="891" y="928" type="qcurve"/>
      <point x="849" y="928"/>
      <point x="849" y="928"/>
      <point x="849" y="923" type="qcurve"/>
      <point x="849" y="918"/>
      <point x="849" y="918"/>
    </contour>
    <contour>
      <point x="205" y="462" type="qcurve"/>
      <point x="246" y="462"/>
      <point x="246" y="462"/>
      <point x="246" y="500" type="qcurve"/>
      <point x="246" y="538"/>
      <point x="246" y="538"/>
      <point x="205" y="538" type="qcurve"/>
      <point x="164" y="538"/>
      <point x="164" y="538"/>
      <point x="164" y="500" type="qcurve"/>
      <point x="164" y="462"/>
      <point x="164" y="462"/>
    </contour>
    <contour>
      <point x="205" y="538" type="qcurve"/>
      <point x="246" y="538"/>
      <point x="246" y="538"/>
      <point x="246" y="576" type="qcurve"/>
      <point x="246" y="614"/>
      <point x="246" y="614"/>
      <point x="205" y="614" type="qcurve"/>
      <point x="164" y="614"/>
      <point x="164" y="614"/>
      <point x="164" y="576" type="qcurve"/>
      <point x="164" y="538"/>
      <point x="164" y="538"/>
    </contour>
    <contour>
      <point x="287" y="462" type="qcurve"/>
      <point x="328" y="462"/>
      <point x="328" y="462"/>
      <point x="328" y="500" type="qcurve"/>
      <point x="328" y="538"/>
      <point x="328" y="538"/>
      <point x="287" y="538" type="qcurve"/>
      <point x="246" y="538"/>
      <point x="246" y="538"/>
      <point x="246" y="500" type="qcurve"/>
      <point x="246" y="462"/>
      <point x="246" y="462"/>
    </contour>
    <contour>
      <point x="287" y="538" type="qcurve"/>
      <point x="328" y="538"/>
      <point x="328" y="538"/>
      <point x="328" y="576" type="qcurve"/>
      <point x="328" y="614"/>
      <point x="328" y="614"/>
      <point x="287" y="614" type="qcurve"/>
      <point x="246" y="614"/>
      <point x="246" y="614"/>
      <point x="246" y="576" type="qcurve"/>
      <point x="246" y="538"/>
      <point x="246" y="538"/>
    </contour>
    <contour>
      <point x="205" y="0" type="qcurve"/>
      <point x="246" y="0"/>
      <point x="246" y="0"/>
      <point x="246" y="38" type="qcurve"/>
      <point x="246" y="76"/>
      <point x="246" y="76"/>
      <point x="205" y="76" type="qcurve"/>
      <point x="164" y="76"/>
      <point x="164" y="76"/>
      <point x="164" y="38" type="qcurve"/>
      <point x="164" y="0"/>
      <point x="164" y="0"/>
    </contour>
    <contour>
      <point x="205" y="76" type="qcurve"/>
      <point x="246" y="76"/>
      <point x="246" y="76"/>
      <point x="246" y="114" type="qcurve"/>
      <point x="246" y="152"/>
      <point x="246" y="152"/>
      <point x="205" y="152" type="qcurve"/>
      <point x="164" y="152"/>
      <point x="164" y="152"/>
      <point x="164" y="114" type="qcurve"/>
      <point x="164" y="76"/>
      <point x="164" y="76"/>
    </contour>
    <contour>
      <point x="287" y="0" type="qcurve"/>
      <point x="328" y="0"/>
      <point x="328" y="0"/>
      <point x="328" y="38" type="qcurve"/>
      <point x="328" y="76"/>
      <point x="328" y="76"/>
      <point x="287" y="76" type="qcurve"/>
      <point x="246" y="76"/>
      <point x="246" y="76"/>
      <point x="246" y="38" type="qcurve"/>
      <point x="246" y="0"/>
      <point x="246" y="0"/>
    </contour>
    <contour>
      <point x="287" y="76" type="qcurve"/>
      <point x="328" y="76"/>
      <point x="328" y="76"/>
      <point x="328" y="114" type="qcurve"/>
      <point x="328" y="152"/>
      <point x="328" y="152"/>
      <point x="287" y="152" type="qcurve"/>
      <point x="246" y="152"/>
      <point x="246" y="152"/>
      <point x="246" y="114" type="qcurve"/>
      <point x="246" y="76"/>
      <point x="246" y="76"/>
    </contour>
    <contour>
      <point x="205" y="1216" type="qcurve"/>
      <point x="246" y="1216"/>
      <point x="246" y="1216"/>
      <point x="246" y="1254" type="qcurve"/>
      <point x="246" y="1292"/>
      <point x="246" y="1292"/>
      <point x="205" y="1292" type="qcurve"/>
      <point x="164" y="1292"/>
      <point x="164" y="1292"/>
      <point x="164" y="1254" type="qcurve"/>
      <point x="164" y="1216"/>
      <point x="164" y="1216"/>
    </contour>
    <contour>
      <point x="205" y="1292" type="qcurve"/>
      <point x="246" y="1292"/>
      <point x="246" y="1292"/>
      <point x="246" y="1330" type="qcurve"/>
      <point x="246" y="1368"/>
      <point x="246" y="1368"/>
      <point x="205" y="1368" type="qcurve"/>
      <point x="164" y="1368"/>
      <point x="164" y="1368"/>
      <point x="164" y="1330" type="qcurve"/>
      <point x="164" y="1292"/>
      <point x="164" y="1292"/>
    </contour>
    <contour>
      <point x="287" y="1216" type="qcurve"/>
      <point x="328" y="1216"/>
      <point x="328" y="1216"/>
      <point x="328" y="1254" type="qcurve"/>
      <point x="328" y="1292"/>
      <point x="328" y="1292"/>
      <point x="287" y="1292" type="qcurve"/>
      <point x="246" y="1292"/>
      <point x="246" y="1292"/>
      <point x="246" y="1254" type="qcurve"/>
      <point x="246" y="1216"/>
      <point x="246" y="1216"/>
    </contour>
    <contour>
      <point x="287" y="1292" type="qcurve"/>
      <point x="328" y="1292"/>
      <point x="328" y="1292"/>
      <point x="328" y="1330" type="qcurve"/>
      <point x="328" y="1368"/>
      <point x="328" y="1368"/>
      <point x="287" y="1368" type="qcurve"/>
      <point x="246" y="1368"/>
      <point x="246" y="1368"/>
      <point x="246" y="1330" type="qcurve"/>
      <point x="246" y="1292"/>
      <point x="246" y="1292"/>
    </contour>
  </outline>
</glyph>
<glyph name="X" format="2">
  <advance width="1168"/>
  <unicode hex="0058"/>
  <unicode hex="0078"/>
  <outline>
    <contour>
      <point x="134" y="169" type="qcurve"/>
      <point x="163" y="147"/>
      <point x="163" y="147"/>
      <point x="186" y="177" type="qcurve"/>
      <point x="209" y="208"/>
      <point x="273" y="296"/>
      <point x="333" y="376" type="qcurve"/>
      <point x="409" y="476"/>
      <point x="476" y="565"/>
      <point x="506" y="605" type="qcurve"/>
      <point x="533" y="642"/>
      <point x="533" y="642"/>
      <point x="511" y="673" type="qcurve"/>
      <point x="487" y="705"/>
      <point x="487" y="705"/>
      <point x="454" y="660" type="qcurve"/>
      <point x="411" y="602"/>
      <point x="346" y="512"/>
      <point x="276" y="419" type="qcurve"/>
      <point x="209" y="331"/>
      <point x="150" y="253"/>
      <point x="127" y="222" type="qcurve"/>
      <point x="104" y="191"/>
      <point x="104" y="191"/>
    </contour>
    <contour>
      <point x="192" y="124" type="qcurve"/>
      <point x="222" y="102"/>
      <point x="222" y="102"/>
      <point x="245" y="133" type="qcurve"/>
      <point x="268" y="163"/>
      <point x="327" y="243"/>
      <point x="394" y="331" type="qcurve"/>
      <point x="463" y="423"/>
      <point x="534" y="520"/>
      <point x="556" y="550" type="qcurve"/>
      <point x="579" y="579"/>
      <point x="579" y="579"/>
      <point x="556" y="611" type="qcurve"/>
      <point x="533" y="642"/>
      <point x="533" y="642"/>
      <point x="506" y="605" type="qcurve"/>
      <point x="476" y="565"/>
      <point x="410" y="477"/>
      <point x="333" y="376" type="qcurve"/>
      <point x="273" y="296"/>
      <point x="209" y="208"/>
      <point x="186" y="177" type="qcurve"/>
      <point x="163" y="147"/>
      <point x="163" y="147"/>
    </contour>
    <contour>
      <point x="511" y="737" type="qcurve"/>
      <point x="535" y="770"/>
      <point x="535" y="770"/>
      <point x="499" y="819" type="qcurve"/>
      <point x="476" y="849"/>
      <point x="408" y="935"/>
      <point x="339" y="1027" type="qcurve"/>
      <point x="273" y="1115"/>
      <point x="239" y="1160"/>
      <point x="216" y="1190" type="qcurve"/>
      <point x="193" y="1221"/>
      <point x="193" y="1221"/>
      <point x="162" y="1197" type="qcurve"/>
      <point x="131" y="1173"/>
      <point x="131" y="1174"/>
      <point x="154" y="1143" type="qcurve"/>
      <point x="177" y="1113"/>
      <point x="210" y="1068"/>
      <point x="277" y="980" type="qcurve"/>
      <point x="346" y="888"/>
      <point x="414" y="802"/>
      <point x="437" y="772" type="qcurve"/>
      <point x="487" y="705"/>
      <point x="487" y="705"/>
    </contour>
    <contour>
      <point x="559" y="802" type="qcurve"/>
      <point x="584" y="834"/>
      <point x="584" y="834"/>
      <point x="560" y="866" type="qcurve"/>
      <point x="539" y="896"/>
      <point x="472" y="980"/>
      <point x="401" y="1074" type="qcurve"/>
      <point x="335" y="1162"/>
      <point x="303" y="1207"/>
      <point x="279" y="1237" type="qcurve"/>
      <point x="255" y="1268"/>
      <point x="255" y="1268"/>
      <point x="225" y="1245" type="qcurve"/>
      <point x="193" y="1221"/>
      <point x="193" y="1221"/>
      <point x="216" y="1190" type="qcurve"/>
      <point x="239" y="1160"/>
      <point x="273" y="1115"/>
      <point x="339" y="1027" type="qcurve"/>
      <point x="408" y="935"/>
      <point x="476" y="849"/>
      <point x="499" y="819" type="qcurve"/>
      <point x="535" y="770"/>
      <point x="535" y="770"/>
    </contour>
    <contour>
      <point x="969" y="128" type="qcurve"/>
      <point x="1000" y="152"/>
      <point x="1000" y="152"/>
      <point x="977" y="182" type="qcurve"/>
      <point x="954" y="212"/>
      <point x="924" y="252"/>
      <point x="855" y="343" type="qcurve"/>
      <point x="789" y="431"/>
      <point x="687" y="566"/>
      <point x="664" y="596" type="qcurve"/>
      <point x="627" y="644"/>
      <point x="627" y="644"/>
      <point x="602" y="610" type="qcurve"/>
      <point x="579" y="579"/>
      <point x="579" y="579"/>
      <point x="602" y="549" type="qcurve"/>
      <point x="624" y="519"/>
      <point x="725" y="385"/>
      <point x="792" y="296" type="qcurve"/>
      <point x="861" y="205"/>
      <point x="891" y="165"/>
      <point x="914" y="135" type="qcurve"/>
      <point x="938" y="104"/>
      <point x="938" y="104"/>
    </contour>
    <contour>
      <point x="608" y="804" type="qcurve"/>
      <point x="631" y="773"/>
      <point x="631" y="773"/>
      <point x="666" y="821" type="qcurve"/>
      <point x="677" y="835"/>
      <point x="749" y="933"/>
      <point x="792" y="992" type="qcurve"/>
      <point x="836" y="1051"/>
      <point x="929" y="1175"/>
      <point x="941" y="1191" type="qcurve"/>
      <point x="964" y="1221"/>
      <point x="964" y="1221"/>
      <point x="935" y="1243" type="qcurve"/>
      <point x="905" y="1266"/>
      <point x="905" y="1266"/>
      <point x="882" y="1235" type="qcurve"/>
      <point x="871" y="1220"/>
      <point x="781" y="1102"/>
      <point x="737" y="1042" type="qcurve"/>
      <point x="694" y="983"/>
      <point x="618" y="880"/>
      <point x="607" y="865" type="qcurve"/>
      <point x="584" y="834"/>
      <point x="584" y="834"/>
    </contour>
    <contour>
      <point x="1031" y="175" type="qcurve"/>
      <point x="1063" y="198"/>
      <point x="1063" y="198"/>
      <point x="1039" y="229" type="qcurve"/>
      <point x="1015" y="259"/>
      <point x="987" y="297"/>
      <point x="917" y="390" type="qcurve"/>
      <point x="851" y="478"/>
      <point x="748" y="612"/>
      <point x="726" y="643" type="qcurve"/>
      <point x="678" y="711"/>
      <point x="678" y="711"/>
      <point x="651" y="676" type="qcurve"/>
      <point x="627" y="644"/>
      <point x="627" y="644"/>
      <point x="664" y="596" type="qcurve"/>
      <point x="687" y="566"/>
      <point x="788" y="432"/>
      <point x="855" y="343" type="qcurve"/>
      <point x="924" y="252"/>
      <point x="954" y="212"/>
      <point x="977" y="182" type="qcurve"/>
      <point x="1000" y="152"/>
      <point x="1000" y="152"/>
    </contour>
    <contour>
      <point x="654" y="742" type="qcurve"/>
      <point x="678" y="711"/>
      <point x="678" y="711"/>
      <point x="725" y="776" type="qcurve"/>
      <point x="736" y="791"/>
      <point x="808" y="890"/>
      <point x="850" y="947" type="qcurve"/>
      <point x="895" y="1008"/>
      <point x="988" y="1131"/>
      <point x="1000" y="1146" type="qcurve"/>
      <point x="1023" y="1177"/>
      <point x="1023" y="1177"/>
      <point x="994" y="1199" type="qcurve"/>
      <point x="964" y="1221"/>
      <point x="964" y="1221"/>
      <point x="941" y="1191" type="qcurve"/>
      <point x="929" y="1175"/>
      <point x="836" y="1051"/>
      <point x="792" y="992" type="qcurve"/>
      <point x="749" y="933"/>
      <point x="677" y="835"/>
      <point x="666" y="821" type="qcurve"/>
      <point x="631" y="773"/>
      <point x="631" y="773"/>
    </contour>
    <contour>
      <point x="511" y="673" type="qcurve"/>
      <point x="533" y="642"/>
      <point x="533" y="642"/>
      <point x="557" y="674" type="qcurve"/>
      <point x="582" y="707"/>
      <point x="582" y="707"/>
      <point x="560" y="737" type="qcurve"/>
      <point x="535" y="770"/>
      <point x="535" y="770"/>
      <point x="511" y="737" type="qcurve"/>
      <point x="487" y="705"/>
      <point x="487" y="705"/>
    </contour>
    <contour>
      <point x="602" y="610" type="qcurve"/>
      <point x="627" y="644"/>
      <point x="627" y="644"/>
      <point x="605" y="674" type="qcurve"/>
      <point x="582" y="707"/>
      <point x="582" y="707"/>
      <point x="557" y="674" type="qcurve"/>
      <point x="533" y="642"/>
      <point x="533" y="642"/>
      <point x="556" y="611" type="qcurve"/>
      <point x="579" y="579"/>
      <point x="579" y="579"/>
    </contour>
    <contour>
      <point x="560" y="737" type="qcurve"/>
      <point x="582" y="707"/>
      <point x="582" y="707"/>
      <point x="606" y="738" type="qcurve"/>
      <point x="631" y="773"/>
      <point x="631" y="773"/>
      <point x="608" y="804" type="qcurve"/>
      <point x="584" y="834"/>
      <point x="584" y="834"/>
      <point x="559" y="802" type="qcurve"/>
      <point x="535" y="770"/>
      <point x="535" y="770"/>
    </contour>
    <contour>
      <point x="605" y="674" type="qcurve"/>
      <point x="627" y="644"/>
      <point x="627" y="644"/>
      <point x="651" y="676" type="qcurve"/>
      <point x="678" y="711"/>
      <point x="678" y="711"/>
      <point x="654" y="742" type="qcurve"/>
      <point x="631" y="773"/>
      <point x="631" y="773"/>
      <point x="606" y="738" type="qcurve"/>
      <point x="582" y="707"/>
      <point x="582" y="707"/>
    </contour>
    <contour>
      <point x="934" y="1243" type="qcurve"/>
      <point x="964" y="1221"/>
      <point x="964" y="1221"/>
      <point x="986" y="1250" type="qcurve"/>
      <point x="1008" y="1280"/>
      <point x="1008" y="1280"/>
      <point x="979" y="1302" type="qcurve"/>
      <point x="949" y="1325"/>
      <point x="949" y="1325"/>
      <point x="927" y="1295" type="qcurve"/>
      <point x="905" y="1265"/>
      <point x="905" y="1265"/>
    </contour>
    <contour>
      <point x="979" y="1302" type="qcurve"/>
      <point x="1008" y="1280"/>
      <point x="1008" y="1280"/>
      <point x="1031" y="1310" type="qcurve"/>
      <point x="1053" y="1339"/>
      <point x="1053" y="1339"/>
      <point x="1023" y="1361" type="qcurve"/>
      <point x="994" y="1384"/>
      <point x="994" y="1384"/>
      <point x="972" y="1354" type="qcurve"/>
      <point x="949" y="1325"/>
      <point x="949" y="1325"/>
    </contour>
    <contour>
      <point x="993" y="1199" type="qcurve"/>
      <point x="1023" y="1176"/>
      <point x="1023" y="1176"/>
      <point x="1045" y="1206" type="qcurve"/>
      <point x="1068" y="1235"/>
      <point x="1068" y="1235"/>
      <point x="1038" y="1258" type="qcurve"/>
      <point x="1008" y="1280"/>
      <point x="1008" y="1280"/>
      <point x="986" y="1250" type="qcurve"/>
      <point x="964" y="1221"/>
      <point x="964" y="1221"/>
    </contour>
    <contour>
      <point x="1038" y="1258" type="qcurve"/>
      <point x="1068" y="1235"/>
      <point x="1068" y="1235"/>
      <point x="1090" y="1265" type="qcurve"/>
      <point x="1112" y="1295"/>
      <point x="1112" y="1295"/>
      <point x="1082" y="1317" type="qcurve"/>
      <point x="1053" y="1339"/>
      <point x="1053" y="1339"/>
      <point x="1031" y="1310" type="qcurve"/>
      <point x="1008" y="1280"/>
      <point x="1008" y="1280"/>
    </contour>
    <contour>
      <point x="1031" y="175" type="qcurve"/>
      <point x="999" y="152"/>
      <point x="999" y="152"/>
      <point x="1022" y="122" type="qcurve"/>
      <point x="1044" y="93"/>
      <point x="1044" y="93"/>
      <point x="1075" y="116" type="qcurve"/>
      <point x="1106" y="140"/>
      <point x="1106" y="140"/>
      <point x="1084" y="169" type="qcurve"/>
      <point x="1062" y="199"/>
      <point x="1062" y="199"/>
    </contour>
    <contour>
      <point x="1075" y="116" type="qcurve"/>
      <point x="1044" y="93"/>
      <point x="1044" y="93"/>
      <point x="1066" y="63" type="qcurve"/>
      <point x="1088" y="34"/>
      <point x="1088" y="34"/>
      <point x="1120" y="57" type="qcurve"/>
      <point x="1151" y="81"/>
      <point x="1151" y="81"/>
      <point x="1128" y="110" type="qcurve"/>
      <point x="1106" y="140"/>
      <point x="1106" y="140"/>
    </contour>
    <contour>
      <point x="968" y="128" type="qcurve"/>
      <point x="937" y="105"/>
      <point x="937" y="105"/>
      <point x="959" y="75" type="qcurve"/>
      <point x="982" y="46"/>
      <point x="982" y="46"/>
      <point x="1013" y="69" type="qcurve"/>
      <point x="1044" y="93"/>
      <point x="1044" y="93"/>
      <point x="1022" y="122" type="qcurve"/>
      <point x="999" y="152"/>
      <point x="999" y="152"/>
    </contour>
    <contour>
      <point x="1013" y="69" type="qcurve"/>
      <point x="982" y="46"/>
      <point x="982" y="46"/>
      <point x="1004" y="16" type="qcurve"/>
      <point x="1026" y="-13"/>
      <point x="1026" y="-13"/>
      <point x="1057" y="10" type="qcurve"/>
      <point x="1088" y="34"/>
      <point x="1088" y="34"/>
      <point x="1066" y="63" type="qcurve"/>
      <point x="1044" y="93"/>
      <point x="1044" y="93"/>
    </contour>
    <contour>
      <point x="163" y="1196" type="qcurve"/>
      <point x="195" y="1219"/>
      <point x="195" y="1219"/>
      <point x="172" y="1249" type="qcurve"/>
      <point x="150" y="1278"/>
      <point x="150" y="1278"/>
      <point x="119" y="1255" type="qcurve"/>
      <point x="88" y="1231"/>
      <point x="88" y="1231"/>
      <point x="110" y="1202" type="qcurve"/>
      <point x="132" y="1172"/>
      <point x="132" y="1172"/>
    </contour>
    <contour>
      <point x="119" y="1255" type="qcurve"/>
      <point x="150" y="1278"/>
      <point x="150" y="1278"/>
      <point x="128" y="1308" type="qcurve"/>
      <point x="106" y="1337"/>
      <point x="106" y="1337"/>
      <point x="74" y="1314" type="qcurve"/>
      <point x="43" y="1290"/>
      <point x="43" y="1290"/>
      <point x="66" y="1261" type="qcurve"/>
      <point x="88" y="1231"/>
      <point x="88" y="1231"/>
    </contour>
    <contour>
      <point x="226" y="1243" type="qcurve"/>
      <point x="257" y="1266"/>
      <point x="257" y="1266"/>
      <point x="235" y="1296" type="qcurve"/>
      <point x="212" y="1325"/>
      <point x="212" y="1325"/>
      <point x="181" y="1302" type="qcurve"/>
      <point x="150" y="1278"/>
      <point x="150" y="1278"/>
      <point x="172" y="1249" type="qcurve"/>
      <point x="195" y="1219"/>
      <point x="195" y="1219"/>
    </contour>
    <contour>
      <point x="181" y="1302" type="qcurve"/>
      <point x="212" y="1325"/>
      <point x="212" y="1325"/>
      <point x="190" y="1355" type="qcurve"/>
      <point x="168" y="1384"/>
      <point x="168" y="1384"/>
      <point x="137" y="1361" type="qcurve"/>
      <point x="106" y="1337"/>
      <point x="106" y="1337"/>
      <point x="128" y="1308" type="qcurve"/>
      <point x="150" y="1278"/>
      <point x="150" y="1278"/>
    </contour>
    <contour>
      <point x="193" y="125" type="qcurve"/>
      <point x="163" y="147"/>
      <point x="163" y="147"/>
      <point x="141" y="118" type="qcurve"/>
      <point x="119" y="88"/>
      <point x="119" y="88"/>
      <point x="148" y="66" type="qcurve"/>
      <point x="178" y="43"/>
      <point x="178" y="43"/>
      <point x="200" y="73" type="qcurve"/>
      <point x="222" y="103"/>
      <point x="222" y="103"/>
    </contour>
    <contour>
      <point x="148" y="66" type="qcurve"/>
      <point x="119" y="88"/>
      <point x="119" y="88"/>
      <point x="96" y="58" type="qcurve"/>
      <point x="74" y="29"/>
      <point x="74" y="29"/>
      <point x="104" y="7" type="qcurve"/>
      <point x="133" y="-16"/>
      <point x="133" y="-16"/>
      <point x="155" y="14" type="qcurve"/>
      <point x="178" y="43"/>
      <point x="178" y="43"/>
    </contour>
    <contour>
      <point x="134" y="169" type="qcurve"/>
      <point x="104" y="192"/>
      <point x="104" y="192"/>
      <point x="82" y="162" type="qcurve"/>
      <point x="59" y="133"/>
      <point x="59" y="133"/>
      <point x="89" y="110" type="qcurve"/>
      <point x="119" y="88"/>
      <point x="119" y="88"/>
      <point x="141" y="118" type="qcurve"/>
      <point x="163" y="147"/>
      <point x="163" y="147"/>
    </contour>
    <contour>
      <point x="89" y="110" type="qcurve"/>
      <point x="59" y="133"/>
      <point x="59" y="133"/>
      <point x="37" y="103" type="qcurve"/>
      <point x="15" y="73"/>
      <point x="15" y="73"/>
      <point x="45" y="51" type="qcurve"/>
      <point x="74" y="29"/>
      <point x="74" y="29"/>
      <point x="96" y="58" type="qcurve"/>
      <point x="119" y="88"/>
      <point x="119" y="88"/>
    </contour>
  </outline>
</glyph>
<glyph name="Y" format="2">
  <advance width="1139"/>
  <unicode hex="0059"/>
  <unicode hex="0079"/>
  <outline>
    <contour>
      <point x="485" y="642" type="qcurve"/>
      <point x="525" y="642"/>
      <point x="525" y="642"/>
      <point x="502" y="680" type="qcurve"/>
      <point x="452" y="760"/>
      <point x="275" y="1035"/>
      <point x="204" y="1148" type="qcurve"/>
      <point x="164" y="1211"/>
      <point x="164" y="1211"/>
      <point x="131" y="1189" type="qcurve"/>
      <point x="99" y="1169"/>
      <point x="99" y="1169"/>
      <point x="138" y="1108" type="qcurve"/>
      <point x="206" y="997"/>
      <point x="360" y="764"/>
      <point x="428" y="661" type="qcurve"/>
      <point x="440" y="642"/>
      <point x="440" y="642"/>
    </contour>
    <contour>
      <point x="549" y="669" type="qcurve"/>
      <point x="572" y="699"/>
      <point x="572" y="699"/>
      <point x="544" y="744" type="qcurve"/>
      <point x="497" y="822"/>
      <point x="342" y="1076"/>
      <point x="271" y="1188" type="qcurve"/>
      <point x="231" y="1252"/>
      <point x="231" y="1252"/>
      <point x="200" y="1232" type="qcurve"/>
      <point x="164" y="1211"/>
      <point x="164" y="1211"/>
      <point x="204" y="1148" type="qcurve"/>
      <point x="275" y="1035"/>
      <point x="452" y="760"/>
      <point x="502" y="680" type="qcurve"/>
      <point x="525" y="642"/>
      <point x="525" y="642"/>
    </contour>
    <contour>
      <point x="530" y="152" type="qcurve"/>
      <point x="571" y="152"/>
      <point x="571" y="152"/>
      <point x="571" y="209" type="qcurve"/>
      <point x="571" y="265"/>
      <point x="571" y="378"/>
      <point x="571" y="433" type="qcurve"/>
      <point x="571" y="491"/>
      <point x="571" y="491"/>
      <point x="530" y="491" type="qcurve"/>
      <point x="489" y="491"/>
      <point x="489" y="491"/>
      <point x="489" y="433" type="qcurve"/>
      <point x="489" y="378"/>
      <point x="489" y="265"/>
      <point x="489" y="209" type="qcurve"/>
      <point x="489" y="152"/>
      <point x="489" y="152"/>
    </contour>
    <contour>
      <point x="612" y="152" type="qcurve"/>
      <point x="653" y="152"/>
      <point x="653" y="152"/>
      <point x="653" y="209" type="qcurve"/>
      <point x="653" y="265"/>
      <point x="653" y="378"/>
      <point x="653" y="433" type="qcurve"/>
      <point x="653" y="491"/>
      <point x="653" y="491"/>
      <point x="612" y="491" type="qcurve"/>
      <point x="571" y="491"/>
      <point x="571" y="491"/>
      <point x="571" y="433" type="qcurve"/>
      <point x="571" y="378"/>
      <point x="571" y="265"/>
      <point x="571" y="209" type="qcurve"/>
      <point x="571" y="152"/>
      <point x="571" y="152"/>
    </contour>
    <contour>
      <point x="594" y="671" type="qcurve"/>
      <point x="617" y="642"/>
      <point x="617" y="642"/>
      <point x="638" y="675" type="qcurve"/>
      <point x="697" y="768"/>
      <point x="871" y="1038"/>
      <point x="940" y="1149" type="qcurve"/>
      <point x="978" y="1209"/>
      <point x="978" y="1209"/>
      <point x="943" y="1230" type="qcurve"/>
      <point x="914" y="1248"/>
      <point x="914" y="1248"/>
      <point x="875" y="1187" type="qcurve"/>
      <point x="804" y="1074"/>
      <point x="647" y="822"/>
      <point x="600" y="744" type="qcurve"/>
      <point x="572" y="699"/>
      <point x="572" y="699"/>
    </contour>
    <contour>
      <point x="660" y="642" type="qcurve"/>
      <point x="702" y="642"/>
      <point x="702" y="642"/>
      <point x="715" y="661" type="qcurve"/>
      <point x="783" y="764"/>
      <point x="937" y="998"/>
      <point x="1003" y="1110" type="qcurve"/>
      <point x="1041" y="1170"/>
      <point x="1041" y="1170"/>
      <point x="1013" y="1187" type="qcurve"/>
      <point x="978" y="1209"/>
      <point x="978" y="1209"/>
      <point x="940" y="1149" type="qcurve"/>
      <point x="871" y="1038"/>
      <point x="697" y="768"/>
      <point x="638" y="675" type="qcurve"/>
      <point x="617" y="642"/>
      <point x="617" y="642"/>
    </contour>
    <contour>
      <point x="530" y="491" type="qcurve"/>
      <point x="571" y="491"/>
      <point x="571" y="491"/>
      <point x="571" y="529" type="qcurve"/>
      <point x="571" y="567"/>
      <point x="571" y="567"/>
      <point x="530" y="567" type="qcurve"/>
      <point x="489" y="567"/>
      <point x="489" y="567"/>
      <point x="489" y="529" type="qcurve"/>
      <point x="489" y="491"/>
      <point x="489" y="491"/>
    </contour>
    <contour>
      <point x="530" y="567" type="qcurve"/>
      <point x="571" y="567"/>
      <point x="571" y="567"/>
      <point x="547" y="606" type="qcurve"/>
      <point x="525" y="642"/>
      <point x="525" y="642"/>
      <point x="485" y="642" type="qcurve"/>
      <point x="440" y="642"/>
      <point x="440" y="642"/>
      <point x="465" y="605" type="qcurve"/>
      <point x="489" y="567"/>
      <point x="489" y="567"/>
    </contour>
    <contour>
      <point x="612" y="491" type="qcurve"/>
      <point x="653" y="491"/>
      <point x="653" y="491"/>
      <point x="653" y="529" type="qcurve"/>
      <point x="653" y="567"/>
      <point x="653" y="567"/>
      <point x="612" y="567" type="qcurve"/>
      <point x="571" y="567"/>
      <point x="571" y="567"/>
      <point x="571" y="529" type="qcurve"/>
      <point x="571" y="491"/>
      <point x="571" y="491"/>
    </contour>
    <contour>
      <point x="612" y="567" type="qcurve"/>
      <point x="653" y="567"/>
      <point x="653" y="567"/>
      <point x="677" y="605" type="qcurve"/>
      <point x="702" y="642"/>
      <point x="702" y="642"/>
      <point x="660" y="642" type="qcurve"/>
      <point x="617" y="642"/>
      <point x="617" y="642"/>
      <point x="595" y="606" type="qcurve"/>
      <point x="571" y="567"/>
      <point x="571" y="567"/>
    </contour>
    <contour>
      <point x="571" y="567" type="qcurve"/>
      <point x="617" y="642"/>
      <point x="617" y="642"/>
      <point x="594" y="671" type="qcurve"/>
      <point x="572" y="699"/>
      <point x="572" y="699"/>
      <point x="549" y="669" type="qcurve"/>
      <point x="525" y="642"/>
      <point x="525" y="642"/>
    </contour>
    <contour>
      <point x="530" y="0" type="qcurve"/>
      <point x="571" y="0"/>
      <point x="571" y="0"/>
      <point x="571" y="38" type="qcurve"/>
      <point x="571" y="76"/>
      <point x="571" y="76"/>
      <point x="530" y="76" type="qcurve"/>
      <point x="489" y="76"/>
      <point x="489" y="76"/>
      <point x="489" y="38" type="qcurve"/>
      <point x="489" y="0"/>
      <point x="489" y="0"/>
    </contour>
    <contour>
      <point x="530" y="76" type="qcurve"/>
      <point x="571" y="76"/>
      <point x="571" y="76"/>
      <point x="571" y="114" type="qcurve"/>
      <point x="571" y="152"/>
      <point x="571" y="152"/>
      <point x="530" y="152" type="qcurve"/>
      <point x="489" y="152"/>
      <point x="489" y="152"/>
      <point x="489" y="114" type="qcurve"/>
      <point x="489" y="76"/>
      <point x="489" y="76"/>
    </contour>
    <contour>
      <point x="612" y="0" type="qcurve"/>
      <point x="653" y="0"/>
      <point x="653" y="0"/>
      <point x="653" y="38" type="qcurve"/>
      <point x="653" y="76"/>
      <point x="653" y="76"/>
      <point x="612" y="76" type="qcurve"/>
      <point x="571" y="76"/>
      <point x="571" y="76"/>
      <point x="571" y="38" type="qcurve"/>
      <point x="571" y="0"/>
      <point x="571" y="0"/>
    </contour>
    <contour>
      <point x="612" y="76" type="qcurve"/>
      <point x="653" y="76"/>
      <point x="653" y="76"/>
      <point x="653" y="114" type="qcurve"/>
      <point x="653" y="152"/>
      <point x="653" y="152"/>
      <point x="612" y="152" type="qcurve"/>
      <point x="571" y="152"/>
      <point x="571" y="152"/>
      <point x="571" y="114" type="qcurve"/>
      <point x="571" y="76"/>
      <point x="571" y="76"/>
    </contour>
    <contour>
      <point x="946" y="1229" type="qcurve"/>
      <point x="978" y="1209"/>
      <point x="978" y="1209"/>
      <point x="997" y="1241" type="qcurve"/>
      <point x="1017" y="1272"/>
      <point x="1017" y="1272"/>
      <point x="985" y="1292" type="qcurve"/>
      <point x="954" y="1311"/>
      <point x="954" y="1311"/>
      <point x="934" y="1280" type="qcurve"/>
      <point x="915" y="1248"/>
      <point x="915" y="1248"/>
    </contour>
    <contour>
      <point x="985" y="1292" type="qcurve"/>
      <point x="1017" y="1272"/>
      <point x="1017" y="1272"/>
      <point x="1036" y="1303" type="qcurve"/>
      <point x="1056" y="1335"/>
      <point x="1056" y="1335"/>
      <point x="1025" y="1354" type="qcurve"/>
      <point x="993" y="1374"/>
      <point x="993" y="1374"/>
      <point x="974" y="1342" type="qcurve"/>
      <point x="954" y="1311"/>
      <point x="954" y="1311"/>
    </contour>
    <contour>
      <point x="1009" y="1190" type="qcurve"/>
      <point x="1040" y="1170"/>
      <point x="1040" y="1170"/>
      <point x="1060" y="1201" type="qcurve"/>
      <point x="1079" y="1233"/>
      <point x="1079" y="1233"/>
      <point x="1048" y="1252" type="qcurve"/>
      <point x="1017" y="1272"/>
      <point x="1017" y="1272"/>
      <point x="997" y="1241" type="qcurve"/>
      <point x="978" y="1209"/>
      <point x="978" y="1209"/>
    </contour>
    <contour>
      <point x="1048" y="1252" type="qcurve"/>
      <point x="1079" y="1233"/>
      <point x="1079" y="1233"/>
      <point x="1099" y="1264" type="qcurve"/>
      <point x="1119" y="1295"/>
      <point x="1119" y="1295"/>
      <point x="1087" y="1315" type="qcurve"/>
      <point x="1056" y="1335"/>
      <point x="1056" y="1335"/>
      <point x="1036" y="1303" type="qcurve"/>
      <point x="1017" y="1272"/>
      <point x="1017" y="1272"/>
    </contour>
    <contour>
      <point x="131" y="1191" type="qcurve"/>
      <point x="164" y="1212"/>
      <point x="164" y="1212"/>
      <point x="144" y="1243" type="qcurve"/>
      <point x="125" y="1275"/>
      <point x="125" y="1275"/>
      <point x="92" y="1254" type="qcurve"/>
      <point x="58" y="1233"/>
      <point x="58" y="1233"/>
      <point x="78" y="1202" type="qcurve"/>
      <point x="98" y="1170"/>
      <point x="98" y="1170"/>
    </contour>
    <contour>
      <point x="92" y="1254" type="qcurve"/>
      <point x="125" y="1275"/>
      <point x="125" y="1275"/>
      <point x="105" y="1306" type="qcurve"/>
      <point x="85" y="1337"/>
      <point x="85" y="1337"/>
      <point x="52" y="1317" type="qcurve"/>
      <point x="19" y="1296"/>
      <point x="19" y="1296"/>
      <point x="39" y="1265" type="qcurve"/>
      <point x="58" y="1233"/>
      <point x="58" y="1233"/>
    </contour>
    <contour>
      <point x="197" y="1233" type="qcurve"/>
      <point x="230" y="1253"/>
      <point x="230" y="1253"/>
      <point x="210" y="1285" type="qcurve"/>
      <point x="191" y="1316"/>
      <point x="191" y="1316"/>
      <point x="158" y="1295" type="qcurve"/>
      <point x="125" y="1275"/>
      <point x="125" y="1275"/>
      <point x="144" y="1243" type="qcurve"/>
      <point x="164" y="1212"/>
      <point x="164" y="1212"/>
    </contour>
    <contour>
      <point x="158" y="1295" type="qcurve"/>
      <point x="191" y="1316"/>
      <point x="191" y="1316"/>
      <point x="171" y="1347" type="qcurve"/>
      <point x="151" y="1379"/>
      <point x="151" y="1379"/>
      <point x="118" y="1358" type="qcurve"/>
      <point x="85" y="1337"/>
      <point x="85" y="1337"/>
      <point x="105" y="1306" type="qcurve"/>
      <point x="125" y="1275"/>
      <point x="125" y="1275"/>
    </contour>
  </outline>
</glyph>
<glyph name="underscore" format="2">
  <advance width="1122"/>
  <unicode hex="005F"/>
  <outline>
    <contour>
      <point x="6" y="-500" type="line"/>
      <point x="6" y="-329" type="line"/>
      <point x="1123" y="-329" type="line"/>
      <point x="1123" y="-500" type="line"/>
    </contour>
  </outline>
</glyph>
<glyph name="E" format="2">
  <advance width="860"/>
  <unicode hex="0065"/>
  <unicode hex="0045"/>
  <outline>
    <contour>
      <point x="368" y="0" type="qcurve"/>
      <point x="404" y="0"/>
      <point x="463" y="0"/>
      <point x="490" y="0" type="qcurve"/>
      <point x="518" y="0"/>
      <point x="578" y="0"/>
      <point x="616" y="0" type="qcurve"/>
      <point x="656" y="0"/>
      <point x="656" y="0"/>
      <point x="656" y="37" type="qcurve"/>
      <point x="656" y="76"/>
      <point x="656" y="76"/>
      <point x="616" y="76" type="qcurve"/>
      <point x="578" y="76"/>
      <point x="518" y="76"/>
      <point x="490" y="76" type="qcurve"/>
      <point x="463" y="76"/>
      <point x="404" y="76"/>
      <point x="368" y="76" type="qcurve"/>
      <point x="328" y="76"/>
      <point x="328" y="76"/>
      <point x="328" y="38" type="qcurve"/>
      <point x="328" y="0"/>
      <point x="328" y="0"/>
    </contour>
    <contour>
      <point x="368" y="76" type="qcurve"/>
      <point x="404" y="76"/>
      <point x="463" y="76"/>
      <point x="490" y="76" type="qcurve"/>
      <point x="518" y="76"/>
      <point x="578" y="76"/>
      <point x="616" y="76" type="qcurve"/>
      <point x="656" y="76"/>
      <point x="656" y="76"/>
      <point x="656" y="113" type="qcurve"/>
      <point x="656" y="152"/>
      <point x="656" y="152"/>
      <point x="616" y="152" type="qcurve"/>
      <point x="578" y="152"/>
      <point x="518" y="152"/>
      <point x="490" y="152" type="qcurve"/>
      <point x="463" y="152"/>
      <point x="404" y="152"/>
      <point x="368" y="152" type="qcurve"/>
      <point x="328" y="152"/>
      <point x="328" y="152"/>
      <point x="328" y="114" type="qcurve"/>
      <point x="328" y="76"/>
      <point x="328" y="76"/>
    </contour>
    <contour>
      <point x="368" y="608" type="qcurve"/>
      <point x="386" y="608"/>
      <point x="431" y="608"/>
      <point x="455" y="608" type="qcurve"/>
      <point x="476" y="608"/>
      <point x="518" y="608"/>
      <point x="534" y="608" type="qcurve"/>
      <point x="574" y="608"/>
      <point x="574" y="608"/>
      <point x="574" y="645" type="qcurve"/>
      <point x="574" y="684"/>
      <point x="574" y="684"/>
      <point x="534" y="684" type="qcurve"/>
      <point x="517" y="684"/>
      <point x="475" y="684"/>
      <point x="453" y="684" type="qcurve"/>
      <point x="430" y="684"/>
      <point x="385" y="684"/>
      <point x="368" y="684" type="qcurve"/>
      <point x="328" y="684"/>
      <point x="328" y="684"/>
      <point x="328" y="646" type="qcurve"/>
      <point x="328" y="608"/>
      <point x="328" y="608"/>
    </contour>
    <contour>
      <point x="368" y="684" type="qcurve"/>
      <point x="386" y="684"/>
      <point x="431" y="684"/>
      <point x="453" y="684" type="qcurve"/>
      <point x="476" y="684"/>
      <point x="518" y="684"/>
      <point x="534" y="684" type="qcurve"/>
      <point x="574" y="684"/>
      <point x="574" y="684"/>
      <point x="574" y="721" type="qcurve"/>
      <point x="574" y="760"/>
      <point x="574" y="760"/>
      <point x="534" y="760" type="qcurve"/>
      <point x="518" y="760"/>
      <point x="477" y="760"/>
      <point x="455" y="760" type="qcurve"/>
      <point x="432" y="760"/>
      <point x="386" y="760"/>
      <point x="368" y="760" type="qcurve"/>
      <point x="328" y="760"/>
      <point x="328" y="760"/>
      <point x="328" y="722" type="qcurve"/>
      <point x="328" y="684"/>
      <point x="328" y="684"/>
    </contour>
    <contour>
      <point x="368" y="1216" type="qcurve"/>
      <point x="404" y="1216"/>
      <point x="462" y="1216"/>
      <point x="489" y="1216" type="qcurve"/>
      <point x="517" y="1216"/>
      <point x="578" y="1216"/>
      <point x="616" y="1216" type="qcurve"/>
      <point x="656" y="1216"/>
      <point x="656" y="1216"/>
      <point x="656" y="1253" type="qcurve"/>
      <point x="656" y="1292"/>
      <point x="656" y="1292"/>
      <point x="616" y="1292" type="qcurve"/>
      <point x="578" y="1292"/>
      <point x="517" y="1292"/>
      <point x="489" y="1292" type="qcurve"/>
      <point x="462" y="1292"/>
      <point x="404" y="1292"/>
      <point x="368" y="1292" type="qcurve"/>
      <point x="328" y="1292"/>
      <point x="328" y="1292"/>
      <point x="328" y="1254" type="qcurve"/>
      <point x="328" y="1216"/>
      <point x="328" y="1216"/>
    </contour>
    <contour>
      <point x="368" y="1292" type="qcurve"/>
      <point x="404" y="1292"/>
      <point x="462" y="1292"/>
      <point x="489" y="1292" type="qcurve"/>
      <point x="517" y="1292"/>
      <point x="578" y="1292"/>
      <point x="616" y="1292" type="qcurve"/>
      <point x="656" y="1292"/>
      <point x="656" y="1292"/>
      <point x="656" y="1329" type="qcurve"/>
      <point x="656" y="1368"/>
      <point x="656" y="1368"/>
      <point x="616" y="1368" type="qcurve"/>
      <point x="578" y="1368"/>
      <point x="517" y="1368"/>
      <point x="489" y="1368" type="qcurve"/>
      <point x="462" y="1368"/>
      <point x="404" y="1368"/>
      <point x="368" y="1368" type="qcurve"/>
      <point x="328" y="1368"/>
      <point x="328" y="1368"/>
      <point x="328" y="1330" type="qcurve"/>
      <point x="328" y="1292"/>
      <point x="328" y="1292"/>
    </contour>
    <contour>
      <point x="205" y="608" type="qcurve"/>
      <point x="246" y="608"/>
      <point x="246" y="608"/>
      <point x="246" y="646" type="qcurve"/>
      <point x="246" y="684"/>
      <point x="246" y="684"/>
      <point x="205" y="684" type="qcurve"/>
      <point x="164" y="684"/>
      <point x="164" y="684"/>
      <point x="164" y="646" type="qcurve"/>
      <point x="164" y="608"/>
      <point x="164" y="608"/>
    </contour>
    <contour>
      <point x="205" y="684" type="qcurve"/>
      <point x="246" y="684"/>
      <point x="246" y="684"/>
      <point x="246" y="722" type="qcurve"/>
      <point x="246" y="760"/>
      <point x="246" y="760"/>
      <point x="205" y="760" type="qcurve"/>
      <point x="164" y="760"/>
      <point x="164" y="760"/>
      <point x="164" y="722" type="qcurve"/>
      <point x="164" y="684"/>
      <point x="164" y="684"/>
    </contour>
    <contour>
      <point x="287" y="608" type="qcurve"/>
      <point x="328" y="608"/>
      <point x="328" y="608"/>
      <point x="328" y="646" type="qcurve"/>
      <point x="328" y="684"/>
      <point x="328" y="684"/>
      <point x="287" y="684" type="qcurve"/>
      <point x="246" y="684"/>
      <point x="246" y="684"/>
      <point x="246" y="646" type="qcurve"/>
      <point x="246" y="608"/>
      <point x="246" y="608"/>
    </contour>
    <contour>
      <point x="287" y="684" type="qcurve"/>
      <point x="328" y="684"/>
      <point x="328" y="684"/>
      <point x="328" y="722" type="qcurve"/>
      <point x="328" y="760"/>
      <point x="328" y="760"/>
      <point x="287" y="760" type="qcurve"/>
      <point x="246" y="760"/>
      <point x="246" y="760"/>
      <point x="246" y="722" type="qcurve"/>
      <point x="246" y="684"/>
      <point x="246" y="684"/>
    </contour>
    <contour>
      <point x="205" y="760" type="qcurve"/>
      <point x="246" y="760"/>
      <point x="246" y="760"/>
      <point x="246" y="798" type="qcurve"/>
      <point x="246" y="836"/>
      <point x="246" y="875"/>
      <point x="246" y="992" type="qcurve"/>
      <point x="246" y="1102"/>
      <point x="246" y="1140"/>
      <point x="246" y="1178" type="qcurve"/>
      <point x="246" y="1216"/>
      <point x="246" y="1216"/>
      <point x="205" y="1216" type="qcurve"/>
      <point x="164" y="1216"/>
      <point x="164" y="1216"/>
      <point x="164" y="1178" type="qcurve"/>
      <point x="164" y="1140"/>
      <point x="164" y="1103"/>
      <point x="164" y="992" type="qcurve"/>
      <point x="164" y="877"/>
      <point x="164" y="836"/>
      <point x="164" y="798" type="qcurve"/>
      <point x="164" y="760"/>
      <point x="164" y="760"/>
    </contour>
    <contour>
      <point x="287" y="760" type="qcurve"/>
      <point x="328" y="760"/>
      <point x="328" y="760"/>
      <point x="328" y="798" type="qcurve"/>
      <point x="328" y="836"/>
      <point x="328" y="875"/>
      <point x="328" y="992" type="qcurve"/>
      <point x="328" y="1102"/>
      <point x="328" y="1140"/>
      <point x="328" y="1178" type="qcurve"/>
      <point x="328" y="1216"/>
      <point x="328" y="1216"/>
      <point x="287" y="1216" type="qcurve"/>
      <point x="246" y="1216"/>
      <point x="246" y="1216"/>
      <point x="246" y="1178" type="qcurve"/>
      <point x="246" y="1140"/>
      <point x="246" y="1103"/>
      <point x="246" y="992" type="qcurve"/>
      <point x="246" y="877"/>
      <point x="246" y="836"/>
      <point x="246" y="798" type="qcurve"/>
      <point x="246" y="760"/>
      <point x="246" y="760"/>
    </contour>
    <contour>
      <point x="205" y="152" type="qcurve"/>
      <point x="246" y="152"/>
      <point x="246" y="152"/>
      <point x="246" y="190" type="qcurve"/>
      <point x="246" y="228"/>
      <point x="246" y="263"/>
      <point x="246" y="380" type="qcurve"/>
      <point x="246" y="490"/>
      <point x="246" y="532"/>
      <point x="246" y="570" type="qcurve"/>
      <point x="246" y="608"/>
      <point x="246" y="608"/>
      <point x="205" y="608" type="qcurve"/>
      <point x="164" y="608"/>
      <point x="164" y="608"/>
      <point x="164" y="570" type="qcurve"/>
      <point x="164" y="532"/>
      <point x="164" y="491"/>
      <point x="164" y="380" type="qcurve"/>
      <point x="164" y="265"/>
      <point x="164" y="228"/>
      <point x="164" y="190" type="qcurve"/>
      <point x="164" y="152"/>
      <point x="164" y="152"/>
    </contour>
    <contour>
      <point x="287" y="152" type="qcurve"/>
      <point x="328" y="152"/>
      <point x="328" y="152"/>
      <point x="328" y="190" type="qcurve"/>
      <point x="328" y="228"/>
      <point x="328" y="263"/>
      <point x="328" y="380" type="qcurve"/>
      <point x="328" y="490"/>
      <point x="328" y="532"/>
      <point x="328" y="570" type="qcurve"/>
      <point x="328" y="608"/>
      <point x="328" y="608"/>
      <point x="287" y="608" type="qcurve"/>
      <point x="246" y="608"/>
      <point x="246" y="608"/>
      <point x="246" y="570" type="qcurve"/>
      <point x="246" y="532"/>
      <point x="246" y="491"/>
      <point x="246" y="380" type="qcurve"/>
      <point x="246" y="265"/>
      <point x="246" y="228"/>
      <point x="246" y="190" type="qcurve"/>
      <point x="246" y="152"/>
      <point x="246" y="152"/>
    </contour>
    <contour>
      <point x="205" y="1216" type="qcurve"/>
      <point x="246" y="1216"/>
      <point x="246" y="1216"/>
      <point x="246" y="1254" type="qcurve"/>
      <point x="246" y="1292"/>
      <point x="246" y="1292"/>
      <point x="205" y="1292" type="qcurve"/>
      <point x="164" y="1292"/>
      <point x="164" y="1292"/>
      <point x="164" y="1254" type="qcurve"/>
      <point x="164" y="1216"/>
      <point x="164" y="1216"/>
    </contour>
    <contour>
      <point x="205" y="1292" type="qcurve"/>
      <point x="246" y="1292"/>
      <point x="246" y="1292"/>
      <point x="246" y="1330" type="qcurve"/>
      <point x="246" y="1368"/>
      <point x="246" y="1368"/>
      <point x="205" y="1368" type="qcurve"/>
      <point x="164" y="1368"/>
      <point x="164" y="1368"/>
      <point x="164" y="1330" type="qcurve"/>
      <point x="164" y="1292"/>
      <point x="164" y="1292"/>
    </contour>
    <contour>
      <point x="287" y="1216" type="qcurve"/>
      <point x="328" y="1216"/>
      <point x="328" y="1216"/>
      <point x="328" y="1254" type="qcurve"/>
      <point x="328" y="1292"/>
      <point x="328" y="1292"/>
      <point x="287" y="1292" type="qcurve"/>
      <point x="246" y="1292"/>
      <point x="246" y="1292"/>
      <point x="246" y="1254" type="qcurve"/>
      <point x="246" y="1216"/>
      <point x="246" y="1216"/>
    </contour>
    <contour>
      <point x="287" y="1292" type="qcurve"/>
      <point x="328" y="1292"/>
      <point x="328" y="1292"/>
      <point x="328" y="1330" type="qcurve"/>
      <point x="328" y="1368"/>
      <point x="328" y="1368"/>
      <point x="287" y="1368" type="qcurve"/>
      <point x="246" y="1368"/>
      <point x="246" y="1368"/>
      <point x="246" y="1330" type="qcurve"/>
      <point x="246" y="1292"/>
      <point x="246" y="1292"/>
    </contour>
    <contour>
      <point x="205" y="0" type="qcurve"/>
      <point x="246" y="0"/>
      <point x="246" y="0"/>
      <point x="246" y="38" type="qcurve"/>
      <point x="246" y="76"/>
      <point x="246" y="76"/>
      <point x="205" y="76" type="qcurve"/>
      <point x="164" y="76"/>
      <point x="164" y="76"/>
      <point x="164" y="38" type="qcurve"/>
      <point x="164" y="0"/>
      <point x="164" y="0"/>
    </contour>
    <contour>
      <point x="205" y="76" type="qcurve"/>
      <point x="246" y="76"/>
      <point x="246" y="76"/>
      <point x="246" y="114" type="qcurve"/>
      <point x="246" y="152"/>
      <point x="246" y="152"/>
      <point x="205" y="152" type="qcurve"/>
      <point x="164" y="152"/>
      <point x="164" y="152"/>
      <point x="164" y="114" type="qcurve"/>
      <point x="164" y="76"/>
      <point x="164" y="76"/>
    </contour>
    <contour>
      <point x="287" y="0" type="qcurve"/>
      <point x="328" y="0"/>
      <point x="328" y="0"/>
      <point x="328" y="38" type="qcurve"/>
      <point x="328" y="76"/>
      <point x="328" y="76"/>
      <point x="287" y="76" type="qcurve"/>
      <point x="246" y="76"/>
      <point x="246" y="76"/>
      <point x="246" y="38" type="qcurve"/>
      <point x="246" y="0"/>
      <point x="246" y="0"/>
    </contour>
    <contour>
      <point x="287" y="76" type="qcurve"/>
      <point x="328" y="76"/>
      <point x="328" y="76"/>
      <point x="328" y="114" type="qcurve"/>
      <point x="328" y="152"/>
      <point x="328" y="152"/>
      <point x="287" y="152" type="qcurve"/>
      <point x="246" y="152"/>
      <point x="246" y="152"/>
      <point x="246" y="114" type="qcurve"/>
      <point x="246" y="76"/>
      <point x="246" y="76"/>
    </contour>
    <contour>
      <point x="697" y="0" type="qcurve"/>
      <point x="738" y="0"/>
      <point x="738" y="0"/>
      <point x="738" y="38" type="qcurve"/>
      <point x="738" y="76"/>
      <point x="738" y="76"/>
      <point x="697" y="76" type="qcurve"/>
      <point x="656" y="76"/>
      <point x="656" y="76"/>
      <point x="656" y="38" type="qcurve"/>
      <point x="656" y="0"/>
      <point x="656" y="0"/>
    </contour>
    <contour>
      <point x="697" y="76" type="qcurve"/>
      <point x="738" y="76"/>
      <point x="738" y="76"/>
      <point x="738" y="114" type="qcurve"/>
      <point x="738" y="152"/>
      <point x="738" y="152"/>
      <point x="697" y="152" type="qcurve"/>
      <point x="656" y="152"/>
      <point x="656" y="152"/>
      <point x="656" y="114" type="qcurve"/>
      <point x="656" y="76"/>
      <point x="656" y="76"/>
    </contour>
    <contour>
      <point x="779" y="0" type="qcurve"/>
      <point x="820" y="0"/>
      <point x="820" y="0"/>
      <point x="820" y="38" type="qcurve"/>
      <point x="820" y="76"/>
      <point x="820" y="76"/>
      <point x="779" y="76" type="qcurve"/>
      <point x="738" y="76"/>
      <point x="738" y="76"/>
      <point x="738" y="38" type="qcurve"/>
      <point x="738" y="0"/>
      <point x="738" y="0"/>
    </contour>
    <contour>
      <point x="779" y="76" type="qcurve"/>
      <point x="820" y="76"/>
      <point x="820" y="76"/>
      <point x="820" y="114" type="qcurve"/>
      <point x="820" y="152"/>
      <point x="820" y="152"/>
      <point x="779" y="152" type="qcurve"/>
      <point x="738" y="152"/>
      <point x="738" y="152"/>
      <point x="738" y="114" type="qcurve"/>
      <point x="738" y="76"/>
      <point x="738" y="76"/>
    </contour>
    <contour>
      <point x="615" y="608" type="qcurve"/>
      <point x="656" y="608"/>
      <point x="656" y="608"/>
      <point x="656" y="646" type="qcurve"/>
      <point x="656" y="684"/>
      <point x="656" y="684"/>
      <point x="615" y="684" type="qcurve"/>
      <point x="574" y="684"/>
      <point x="574" y="684"/>
      <point x="574" y="646" type="qcurve"/>
      <point x="574" y="608"/>
      <point x="574" y="608"/>
    </contour>
    <contour>
      <point x="615" y="684" type="qcurve"/>
      <point x="656" y="684"/>
      <point x="656" y="684"/>
      <point x="656" y="722" type="qcurve"/>
      <point x="656" y="760"/>
      <point x="656" y="760"/>
      <point x="615" y="760" type="qcurve"/>
      <point x="574" y="760"/>
      <point x="574" y="760"/>
      <point x="574" y="722" type="qcurve"/>
      <point x="574" y="684"/>
      <point x="574" y="684"/>
    </contour>
    <contour>
      <point x="697" y="608" type="qcurve"/>
      <point x="738" y="608"/>
      <point x="738" y="608"/>
      <point x="738" y="646" type="qcurve"/>
      <point x="738" y="684"/>
      <point x="738" y="684"/>
      <point x="697" y="684" type="qcurve"/>
      <point x="656" y="684"/>
      <point x="656" y="684"/>
      <point x="656" y="646" type="qcurve"/>
      <point x="656" y="608"/>
      <point x="656" y="608"/>
    </contour>
    <contour>
      <point x="697" y="684" type="qcurve"/>
      <point x="738" y="684"/>
      <point x="738" y="684"/>
      <point x="738" y="722" type="qcurve"/>
      <point x="738" y="760"/>
      <point x="738" y="760"/>
      <point x="697" y="760" type="qcurve"/>
      <point x="656" y="760"/>
      <point x="656" y="760"/>
      <point x="656" y="722" type="qcurve"/>
      <point x="656" y="684"/>
      <point x="656" y="684"/>
    </contour>
    <contour>
      <point x="697" y="1216" type="qcurve"/>
      <point x="738" y="1216"/>
      <point x="738" y="1216"/>
      <point x="738" y="1254" type="qcurve"/>
      <point x="738" y="1292"/>
      <point x="738" y="1292"/>
      <point x="697" y="1292" type="qcurve"/>
      <point x="656" y="1292"/>
      <point x="656" y="1292"/>
      <point x="656" y="1254" type="qcurve"/>
      <point x="656" y="1216"/>
      <point x="656" y="1216"/>
    </contour>
    <contour>
      <point x="697" y="1292" type="qcurve"/>
      <point x="738" y="1292"/>
      <point x="738" y="1292"/>
      <point x="738" y="1330" type="qcurve"/>
      <point x="738" y="1368"/>
      <point x="738" y="1368"/>
      <point x="697" y="1368" type="qcurve"/>
      <point x="656" y="1368"/>
      <point x="656" y="1368"/>
      <point x="656" y="1330" type="qcurve"/>
      <point x="656" y="1292"/>
      <point x="656" y="1292"/>
    </contour>
    <contour>
      <point x="779" y="1216" type="qcurve"/>
      <point x="820" y="1216"/>
      <point x="820" y="1216"/>
      <point x="820" y="1254" type="qcurve"/>
      <point x="820" y="1292"/>
      <point x="820" y="1292"/>
      <point x="779" y="1292" type="qcurve"/>
      <point x="738" y="1292"/>
      <point x="738" y="1292"/>
      <point x="738" y="1254" type="qcurve"/>
      <point x="738" y="1216"/>
      <point x="738" y="1216"/>
    </contour>
    <contour>
      <point x="779" y="1292" type="qcurve"/>
      <point x="820" y="1292"/>
      <point x="820" y="1292"/>
      <point x="820" y="1330" type="qcurve"/>
      <point x="820" y="1368"/>
      <point x="820" y="1368"/>
      <point x="779" y="1368" type="qcurve"/>
      <point x="738" y="1368"/>
      <point x="738" y="1368"/>
      <point x="738" y="1330" type="qcurve"/>
      <point x="738" y="1292"/>
      <point x="738" y="1292"/>
    </contour>
    <contour>
      <point x="615" y="608" type="qcurve"/>
      <point x="656" y="608"/>
      <point x="656" y="608"/>
      <point x="656" y="646" type="qcurve"/>
      <point x="656" y="684"/>
      <point x="656" y="684"/>
      <point x="615" y="684" type="qcurve"/>
      <point x="574" y="684"/>
      <point x="574" y="684"/>
      <point x="574" y="646" type="qcurve"/>
      <point x="574" y="608"/>
      <point x="574" y="608"/>
    </contour>
    <contour>
      <point x="615" y="684" type="qcurve"/>
      <point x="656" y="684"/>
      <point x="656" y="684"/>
      <point x="656" y="722" type="qcurve"/>
      <point x="656" y="760"/>
      <point x="656" y="760"/>
      <point x="615" y="760" type="qcurve"/>
      <point x="574" y="760"/>
      <point x="574" y="760"/>
      <point x="574" y="722" type="qcurve"/>
      <point x="574" y="684"/>
      <point x="574" y="684"/>
    </contour>
    <contour>
      <point x="697" y="608" type="qcurve"/>
      <point x="738" y="608"/>
      <point x="738" y="608"/>
      <point x="738" y="646" type="qcurve"/>
      <point x="738" y="684"/>
      <point x="738" y="684"/>
      <point x="697" y="684" type="qcurve"/>
      <point x="656" y="684"/>
      <point x="656" y="684"/>
      <point x="656" y="646" type="qcurve"/>
      <point x="656" y="608"/>
      <point x="656" y="608"/>
    </contour>
    <contour>
      <point x="697" y="684" type="qcurve"/>
      <point x="738" y="684"/>
      <point x="738" y="684"/>
      <point x="738" y="722" type="qcurve"/>
      <point x="738" y="760"/>
      <point x="738" y="760"/>
      <point x="697" y="760" type="qcurve"/>
      <point x="656" y="760"/>
      <point x="656" y="760"/>
      <point x="656" y="722" type="qcurve"/>
      <point x="656" y="684"/>
      <point x="656" y="684"/>
    </contour>
  </outline>
</glyph>
<glyph name="F" format="2">
  <advance width="738"/>
  <unicode hex="0066"/>
  <unicode hex="0046"/>
  <outline>
    <contour>
      <point x="368" y="608" type="qcurve"/>
      <point x="379" y="608"/>
      <point x="401" y="608"/>
      <point x="412" y="608" type="qcurve"/>
      <point x="422" y="608"/>
      <point x="442" y="608"/>
      <point x="453" y="608" type="qcurve"/>
      <point x="493" y="608"/>
      <point x="493" y="608"/>
      <point x="493" y="645" type="qcurve"/>
      <point x="493" y="684"/>
      <point x="493" y="684"/>
      <point x="453" y="684" type="qcurve"/>
      <point x="442" y="684"/>
      <point x="422" y="684"/>
      <point x="412" y="684" type="qcurve"/>
      <point x="401" y="684"/>
      <point x="379" y="684"/>
      <point x="368" y="684" type="qcurve"/>
      <point x="328" y="684"/>
      <point x="328" y="684"/>
      <point x="328" y="646" type="qcurve"/>
      <point x="328" y="608"/>
      <point x="328" y="608"/>
    </contour>
    <contour>
      <point x="368" y="684" type="qcurve"/>
      <point x="384" y="684"/>
      <point x="405" y="684"/>
      <point x="412" y="684" type="qcurve"/>
      <point x="423" y="684"/>
      <point x="439" y="684"/>
      <point x="453" y="684" type="qcurve"/>
      <point x="493" y="684"/>
      <point x="493" y="684"/>
      <point x="493" y="721" type="qcurve"/>
      <point x="493" y="760"/>
      <point x="493" y="760"/>
      <point x="453" y="760" type="qcurve"/>
      <point x="442" y="760"/>
      <point x="422" y="760"/>
      <point x="412" y="760" type="qcurve"/>
      <point x="401" y="760"/>
      <point x="379" y="760"/>
      <point x="368" y="760" type="qcurve"/>
      <point x="328" y="760"/>
      <point x="328" y="760"/>
      <point x="328" y="722" type="qcurve"/>
      <point x="328" y="684"/>
      <point x="328" y="684"/>
    </contour>
    <contour>
      <point x="368" y="1216" type="qcurve"/>
      <point x="389" y="1216"/>
      <point x="428" y="1216"/>
      <point x="447" y="1216" type="qcurve"/>
      <point x="468" y="1216"/>
      <point x="511" y="1216"/>
      <point x="534" y="1216" type="qcurve"/>
      <point x="574" y="1216"/>
      <point x="574" y="1216"/>
      <point x="574" y="1253" type="qcurve"/>
      <point x="574" y="1292"/>
      <point x="574" y="1292"/>
      <point x="534" y="1292" type="qcurve"/>
      <point x="511" y="1292"/>
      <point x="468" y="1292"/>
      <point x="447" y="1292" type="qcurve"/>
      <point x="428" y="1292"/>
      <point x="389" y="1292"/>
      <point x="368" y="1292" type="qcurve"/>
      <point x="328" y="1292"/>
      <point x="328" y="1292"/>
      <point x="328" y="1254" type="qcurve"/>
      <point x="328" y="1216"/>
      <point x="328" y="1216"/>
    </contour>
    <contour>
      <point x="368" y="1292" type="qcurve"/>
      <point x="389" y="1292"/>
      <point x="428" y="1292"/>
      <point x="447" y="1292" type="qcurve"/>
      <point x="468" y="1292"/>
      <point x="511" y="1292"/>
      <point x="534" y="1292" type="qcurve"/>
      <point x="574" y="1292"/>
      <point x="574" y="1292"/>
      <point x="574" y="1329" type="qcurve"/>
      <point x="574" y="1368"/>
      <point x="574" y="1368"/>
      <point x="534" y="1368" type="qcurve"/>
      <point x="511" y="1368"/>
      <point x="468" y="1368"/>
      <point x="447" y="1368" type="qcurve"/>
      <point x="428" y="1368"/>
      <point x="389" y="1368"/>
      <point x="368" y="1368" type="qcurve"/>
      <point x="328" y="1368"/>
      <point x="328" y="1368"/>
      <point x="328" y="1330" type="qcurve"/>
      <point x="328" y="1292"/>
      <point x="328" y="1292"/>
    </contour>
    <contour>
      <point x="205" y="1216" type="qcurve"/>
      <point x="246" y="1216"/>
      <point x="246" y="1216"/>
      <point x="246" y="1254" type="qcurve"/>
      <point x="246" y="1292"/>
      <point x="246" y="1292"/>
      <point x="205" y="1292" type="qcurve"/>
      <point x="164" y="1292"/>
      <point x="164" y="1292"/>
      <point x="164" y="1254" type="qcurve"/>
      <point x="164" y="1216"/>
      <point x="164" y="1216"/>
    </contour>
    <contour>
      <point x="205" y="1292" type="qcurve"/>
      <point x="246" y="1292"/>
      <point x="246" y="1292"/>
      <point x="246" y="1330" type="qcurve"/>
      <point x="246" y="1368"/>
      <point x="246" y="1368"/>
      <point x="205" y="1368" type="qcurve"/>
      <point x="164" y="1368"/>
      <point x="164" y="1368"/>
      <point x="164" y="1330" type="qcurve"/>
      <point x="164" y="1292"/>
      <point x="164" y="1292"/>
    </contour>
    <contour>
      <point x="287" y="1216" type="qcurve"/>
      <point x="328" y="1216"/>
      <point x="328" y="1216"/>
      <point x="328" y="1254" type="qcurve"/>
      <point x="328" y="1292"/>
      <point x="328" y="1292"/>
      <point x="287" y="1292" type="qcurve"/>
      <point x="246" y="1292"/>
      <point x="246" y="1292"/>
      <point x="246" y="1254" type="qcurve"/>
      <point x="246" y="1216"/>
      <point x="246" y="1216"/>
    </contour>
    <contour>
      <point x="287" y="1292" type="qcurve"/>
      <point x="328" y="1292"/>
      <point x="328" y="1292"/>
      <point x="328" y="1330" type="qcurve"/>
      <point x="328" y="1368"/>
      <point x="328" y="1368"/>
      <point x="287" y="1368" type="qcurve"/>
      <point x="246" y="1368"/>
      <point x="246" y="1368"/>
      <point x="246" y="1330" type="qcurve"/>
      <point x="246" y="1292"/>
      <point x="246" y="1292"/>
    </contour>
    <contour>
      <point x="205" y="0" type="qcurve"/>
      <point x="246" y="0"/>
      <point x="246" y="0"/>
      <point x="246" y="38" type="qcurve"/>
      <point x="246" y="76"/>
      <point x="246" y="76"/>
      <point x="205" y="76" type="qcurve"/>
      <point x="164" y="76"/>
      <point x="164" y="76"/>
      <point x="164" y="38" type="qcurve"/>
      <point x="164" y="0"/>
      <point x="164" y="0"/>
    </contour>
    <contour>
      <point x="205" y="76" type="qcurve"/>
      <point x="246" y="76"/>
      <point x="246" y="76"/>
      <point x="246" y="114" type="qcurve"/>
      <point x="246" y="152"/>
      <point x="246" y="152"/>
      <point x="205" y="152" type="qcurve"/>
      <point x="164" y="152"/>
      <point x="164" y="152"/>
      <point x="164" y="114" type="qcurve"/>
      <point x="164" y="76"/>
      <point x="164" y="76"/>
    </contour>
    <contour>
      <point x="287" y="0" type="qcurve"/>
      <point x="328" y="0"/>
      <point x="328" y="0"/>
      <point x="328" y="38" type="qcurve"/>
      <point x="328" y="76"/>
      <point x="328" y="76"/>
      <point x="287" y="76" type="qcurve"/>
      <point x="246" y="76"/>
      <point x="246" y="76"/>
      <point x="246" y="38" type="qcurve"/>
      <point x="246" y="0"/>
      <point x="246" y="0"/>
    </contour>
    <contour>
      <point x="287" y="76" type="qcurve"/>
      <point x="328" y="76"/>
      <point x="328" y="76"/>
      <point x="328" y="114" type="qcurve"/>
      <point x="328" y="152"/>
      <point x="328" y="152"/>
      <point x="287" y="152" type="qcurve"/>
      <point x="246" y="152"/>
      <point x="246" y="152"/>
      <point x="246" y="114" type="qcurve"/>
      <point x="246" y="76"/>
      <point x="246" y="76"/>
    </contour>
    <contour>
      <point x="205" y="760" type="qcurve"/>
      <point x="246" y="760"/>
      <point x="246" y="760"/>
      <point x="246" y="798" type="qcurve"/>
      <point x="246" y="836"/>
      <point x="246" y="875"/>
      <point x="246" y="992" type="qcurve"/>
      <point x="246" y="1102"/>
      <point x="246" y="1140"/>
      <point x="246" y="1178" type="qcurve"/>
      <point x="246" y="1216"/>
      <point x="246" y="1216"/>
      <point x="205" y="1216" type="qcurve"/>
      <point x="164" y="1216"/>
      <point x="164" y="1216"/>
      <point x="164" y="1178" type="qcurve"/>
      <point x="164" y="1140"/>
      <point x="164" y="1103"/>
      <point x="164" y="992" type="qcurve"/>
      <point x="164" y="877"/>
      <point x="164" y="836"/>
      <point x="164" y="798" type="qcurve"/>
      <point x="164" y="760"/>
      <point x="164" y="760"/>
    </contour>
    <contour>
      <point x="287" y="760" type="qcurve"/>
      <point x="328" y="760"/>
      <point x="328" y="760"/>
      <point x="328" y="798" type="qcurve"/>
      <point x="328" y="836"/>
      <point x="328" y="875"/>
      <point x="328" y="992" type="qcurve"/>
      <point x="328" y="1102"/>
      <point x="328" y="1140"/>
      <point x="328" y="1178" type="qcurve"/>
      <point x="328" y="1216"/>
      <point x="328" y="1216"/>
      <point x="287" y="1216" type="qcurve"/>
      <point x="246" y="1216"/>
      <point x="246" y="1216"/>
      <point x="246" y="1178" type="qcurve"/>
      <point x="246" y="1140"/>
      <point x="246" y="1103"/>
      <point x="246" y="992" type="qcurve"/>
      <point x="246" y="877"/>
      <point x="246" y="836"/>
      <point x="246" y="798" type="qcurve"/>
      <point x="246" y="760"/>
      <point x="246" y="760"/>
    </contour>
    <contour>
      <point x="205" y="152" type="qcurve"/>
      <point x="246" y="152"/>
      <point x="246" y="152"/>
      <point x="246" y="190" type="qcurve"/>
      <point x="246" y="228"/>
      <point x="246" y="263"/>
      <point x="246" y="380" type="qcurve"/>
      <point x="246" y="490"/>
      <point x="246" y="532"/>
      <point x="246" y="570" type="qcurve"/>
      <point x="246" y="608"/>
      <point x="246" y="608"/>
      <point x="205" y="608" type="qcurve"/>
      <point x="164" y="608"/>
      <point x="164" y="608"/>
      <point x="164" y="570" type="qcurve"/>
      <point x="164" y="532"/>
      <point x="164" y="491"/>
      <point x="164" y="380" type="qcurve"/>
      <point x="164" y="265"/>
      <point x="164" y="228"/>
      <point x="164" y="190" type="qcurve"/>
      <point x="164" y="152"/>
      <point x="164" y="152"/>
    </contour>
    <contour>
      <point x="287" y="152" type="qcurve"/>
      <point x="328" y="152"/>
      <point x="328" y="152"/>
      <point x="328" y="190" type="qcurve"/>
      <point x="328" y="228"/>
      <point x="328" y="263"/>
      <point x="328" y="380" type="qcurve"/>
      <point x="328" y="490"/>
      <point x="328" y="532"/>
      <point x="328" y="570" type="qcurve"/>
      <point x="328" y="608"/>
      <point x="328" y="608"/>
      <point x="287" y="608" type="qcurve"/>
      <point x="246" y="608"/>
      <point x="246" y="608"/>
      <point x="246" y="570" type="qcurve"/>
      <point x="246" y="532"/>
      <point x="246" y="491"/>
      <point x="246" y="380" type="qcurve"/>
      <point x="246" y="265"/>
      <point x="246" y="228"/>
      <point x="246" y="190" type="qcurve"/>
      <point x="246" y="152"/>
      <point x="246" y="152"/>
    </contour>
    <contour>
      <point x="205" y="608" type="qcurve"/>
      <point x="246" y="608"/>
      <point x="246" y="608"/>
      <point x="246" y="646" type="qcurve"/>
      <point x="246" y="684"/>
      <point x="246" y="684"/>
      <point x="205" y="684" type="qcurve"/>
      <point x="164" y="684"/>
      <point x="164" y="684"/>
      <point x="164" y="646" type="qcurve"/>
      <point x="164" y="608"/>
      <point x="164" y="608"/>
    </contour>
    <contour>
      <point x="205" y="684" type="qcurve"/>
      <point x="246" y="684"/>
      <point x="246" y="684"/>
      <point x="246" y="722" type="qcurve"/>
      <point x="246" y="760"/>
      <point x="246" y="760"/>
      <point x="205" y="760" type="qcurve"/>
      <point x="164" y="760"/>
      <point x="164" y="760"/>
      <point x="164" y="722" type="qcurve"/>
      <point x="164" y="684"/>
      <point x="164" y="684"/>
    </contour>
    <contour>
      <point x="287" y="608" type="qcurve"/>
      <point x="328" y="608"/>
      <point x="328" y="608"/>
      <point x="328" y="646" type="qcurve"/>
      <point x="328" y="684"/>
      <point x="328" y="684"/>
      <point x="287" y="684" type="qcurve"/>
      <point x="246" y="684"/>
      <point x="246" y="684"/>
      <point x="246" y="646" type="qcurve"/>
      <point x="246" y="608"/>
      <point x="246" y="608"/>
    </contour>
    <contour>
      <point x="287" y="684" type="qcurve"/>
      <point x="328" y="684"/>
      <point x="328" y="684"/>
      <point x="328" y="722" type="qcurve"/>
      <point x="328" y="760"/>
      <point x="328" y="760"/>
      <point x="287" y="760" type="qcurve"/>
      <point x="246" y="760"/>
      <point x="246" y="760"/>
      <point x="246" y="722" type="qcurve"/>
      <point x="246" y="684"/>
      <point x="246" y="684"/>
    </contour>
    <contour>
      <point x="534" y="608" type="qcurve"/>
      <point x="575" y="608"/>
      <point x="575" y="608"/>
      <point x="575" y="646" type="qcurve"/>
      <point x="575" y="684"/>
      <point x="575" y="684"/>
      <point x="534" y="684" type="qcurve"/>
      <point x="493" y="684"/>
      <point x="493" y="684"/>
      <point x="493" y="646" type="qcurve"/>
      <point x="493" y="608"/>
      <point x="493" y="608"/>
    </contour>
    <contour>
      <point x="534" y="684" type="qcurve"/>
      <point x="575" y="684"/>
      <point x="575" y="684"/>
      <point x="575" y="722" type="qcurve"/>
      <point x="575" y="760"/>
      <point x="575" y="760"/>
      <point x="534" y="760" type="qcurve"/>
      <point x="493" y="760"/>
      <point x="493" y="760"/>
      <point x="493" y="722" type="qcurve"/>
      <point x="493" y="684"/>
      <point x="493" y="684"/>
    </contour>
    <contour>
      <point x="616" y="608" type="qcurve"/>
      <point x="657" y="608"/>
      <point x="657" y="608"/>
      <point x="657" y="646" type="qcurve"/>
      <point x="657" y="684"/>
      <point x="657" y="684"/>
      <point x="616" y="684" type="qcurve"/>
      <point x="575" y="684"/>
      <point x="575" y="684"/>
      <point x="575" y="646" type="qcurve"/>
      <point x="575" y="608"/>
      <point x="575" y="608"/>
    </contour>
    <contour>
      <point x="616" y="684" type="qcurve"/>
      <point x="657" y="684"/>
      <point x="657" y="684"/>
      <point x="657" y="722" type="qcurve"/>
      <point x="657" y="760"/>
      <point x="657" y="760"/>
      <point x="616" y="760" type="qcurve"/>
      <point x="575" y="760"/>
      <point x="575" y="760"/>
      <point x="575" y="722" type="qcurve"/>
      <point x="575" y="684"/>
      <point x="575" y="684"/>
    </contour>
    <contour>
      <point x="615" y="1216" type="qcurve"/>
      <point x="656" y="1216"/>
      <point x="656" y="1216"/>
      <point x="656" y="1254" type="qcurve"/>
      <point x="656" y="1292"/>
      <point x="656" y="1292"/>
      <point x="615" y="1292" type="qcurve"/>
      <point x="574" y="1292"/>
      <point x="574" y="1292"/>
      <point x="574" y="1254" type="qcurve"/>
      <point x="574" y="1216"/>
      <point x="574" y="1216"/>
    </contour>
    <contour>
      <point x="615" y="1292" type="qcurve"/>
      <point x="656" y="1292"/>
      <point x="656" y="1292"/>
      <point x="656" y="1330" type="qcurve"/>
      <point x="656" y="1368"/>
      <point x="656" y="1368"/>
      <point x="615" y="1368" type="qcurve"/>
      <point x="574" y="1368"/>
      <point x="574" y="1368"/>
      <point x="574" y="1330" type="qcurve"/>
      <point x="574" y="1292"/>
      <point x="574" y="1292"/>
    </contour>
    <contour>
      <point x="697" y="1216" type="qcurve"/>
      <point x="738" y="1216"/>
      <point x="738" y="1216"/>
      <point x="738" y="1254" type="qcurve"/>
      <point x="738" y="1292"/>
      <point x="738" y="1292"/>
      <point x="697" y="1292" type="qcurve"/>
      <point x="656" y="1292"/>
      <point x="656" y="1292"/>
      <point x="656" y="1254" type="qcurve"/>
      <point x="656" y="1216"/>
      <point x="656" y="1216"/>
    </contour>
    <contour>
      <point x="697" y="1292" type="qcurve"/>
      <point x="738" y="1292"/>
      <point x="738" y="1292"/>
      <point x="738" y="1330" type="qcurve"/>
      <point x="738" y="1368"/>
      <point x="738" y="1368"/>
      <point x="697" y="1368" type="qcurve"/>
      <point x="656" y="1368"/>
      <point x="656" y="1368"/>
      <point x="656" y="1330" type="qcurve"/>
      <point x="656" y="1292"/>
      <point x="656" y="1292"/>
    </contour>
    <contour>
      <point x="534" y="608" type="qcurve"/>
      <point x="575" y="608"/>
      <point x="575" y="608"/>
      <point x="575" y="646" type="qcurve"/>
      <point x="575" y="684"/>
      <point x="575" y="684"/>
      <point x="534" y="684" type="qcurve"/>
      <point x="493" y="684"/>
      <point x="493" y="684"/>
      <point x="493" y="646" type="qcurve"/>
      <point x="493" y="608"/>
      <point x="493" y="608"/>
    </contour>
    <contour>
      <point x="534" y="684" type="qcurve"/>
      <point x="575" y="684"/>
      <point x="575" y="684"/>
      <point x="575" y="722" type="qcurve"/>
      <point x="575" y="760"/>
      <point x="575" y="760"/>
      <point x="534" y="760" type="qcurve"/>
      <point x="493" y="760"/>
      <point x="493" y="760"/>
      <point x="493" y="722" type="qcurve"/>
      <point x="493" y="684"/>
      <point x="493" y="684"/>
    </contour>
    <contour>
      <point x="616" y="608" type="qcurve"/>
      <point x="657" y="608"/>
      <point x="657" y="608"/>
      <point x="657" y="646" type="qcurve"/>
      <point x="657" y="684"/>
      <point x="657" y="684"/>
      <point x="616" y="684" type="qcurve"/>
      <point x="575" y="684"/>
      <point x="575" y="684"/>
      <point x="575" y="646" type="qcurve"/>
      <point x="575" y="608"/>
      <point x="575" y="608"/>
    </contour>
    <contour>
      <point x="616" y="684" type="qcurve"/>
      <point x="657" y="684"/>
      <point x="657" y="684"/>
      <point x="657" y="722" type="qcurve"/>
      <point x="657" y="760"/>
      <point x="657" y="760"/>
      <point x="616" y="760" type="qcurve"/>
      <point x="575" y="760"/>
      <point x="575" y="760"/>
      <point x="575" y="722" type="qcurve"/>
      <point x="575" y="684"/>
      <point x="575" y="684"/>
    </contour>
  </outline>
</glyph>
<glyph name="K" format="2">
  <advance width="1163"/>
  <unicode hex="006B"/>
  <unicode hex="004B"/>
  <outline>
    <contour>
      <point x="205" y="152" type="qcurve"/>
      <point x="246" y="152"/>
      <point x="246" y="152"/>
      <point x="246" y="190" type="qcurve"/>
      <point x="246" y="228"/>
      <point x="246" y="263"/>
      <point x="246" y="380" type="qcurve"/>
      <point x="246" y="490"/>
      <point x="246" y="548"/>
      <point x="246" y="586" type="qcurve"/>
      <point x="246" y="624"/>
      <point x="246" y="624"/>
      <point x="205" y="624" type="qcurve"/>
      <point x="164" y="624"/>
      <point x="164" y="624"/>
      <point x="164" y="586" type="qcurve"/>
      <point x="164" y="548"/>
      <point x="164" y="491"/>
      <point x="164" y="380" type="qcurve"/>
      <point x="164" y="265"/>
      <point x="164" y="228"/>
      <point x="164" y="190" type="qcurve"/>
      <point x="164" y="152"/>
      <point x="164" y="152"/>
    </contour>
    <contour>
      <point x="205" y="776" type="qcurve"/>
      <point x="246" y="776"/>
      <point x="246" y="776"/>
      <point x="246" y="814" type="qcurve"/>
      <point x="246" y="852"/>
      <point x="246" y="875"/>
      <point x="246" y="992" type="qcurve"/>
      <point x="246" y="1102"/>
      <point x="246" y="1140"/>
      <point x="246" y="1178" type="qcurve"/>
      <point x="246" y="1216"/>
      <point x="246" y="1216"/>
      <point x="205" y="1216" type="qcurve"/>
      <point x="164" y="1216"/>
      <point x="164" y="1216"/>
      <point x="164" y="1178" type="qcurve"/>
      <point x="164" y="1140"/>
      <point x="164" y="1103"/>
      <point x="164" y="992" type="qcurve"/>
      <point x="164" y="877"/>
      <point x="164" y="852"/>
      <point x="164" y="814" type="qcurve"/>
      <point x="164" y="776"/>
      <point x="164" y="776"/>
    </contour>
    <contour>
      <point x="287" y="152" type="qcurve"/>
      <point x="328" y="152"/>
      <point x="328" y="152"/>
      <point x="328" y="190" type="qcurve"/>
      <point x="328" y="228"/>
      <point x="328" y="263"/>
      <point x="328" y="380" type="qcurve"/>
      <point x="328" y="490"/>
      <point x="328" y="548"/>
      <point x="328" y="586" type="qcurve"/>
      <point x="328" y="624"/>
      <point x="328" y="624"/>
      <point x="287" y="624" type="qcurve"/>
      <point x="246" y="624"/>
      <point x="246" y="624"/>
      <point x="246" y="586" type="qcurve"/>
      <point x="246" y="548"/>
      <point x="246" y="491"/>
      <point x="246" y="380" type="qcurve"/>
      <point x="246" y="265"/>
      <point x="246" y="228"/>
      <point x="246" y="190" type="qcurve"/>
      <point x="246" y="152"/>
      <point x="246" y="152"/>
    </contour>
    <contour>
      <point x="287" y="776" type="qcurve"/>
      <point x="328" y="776"/>
      <point x="328" y="776"/>
      <point x="328" y="814" type="qcurve"/>
      <point x="328" y="852"/>
      <point x="328" y="875"/>
      <point x="328" y="992" type="qcurve"/>
      <point x="328" y="1102"/>
      <point x="328" y="1140"/>
      <point x="328" y="1178" type="qcurve"/>
      <point x="328" y="1216"/>
      <point x="328" y="1216"/>
      <point x="287" y="1216" type="qcurve"/>
      <point x="246" y="1216"/>
      <point x="246" y="1216"/>
      <point x="246" y="1178" type="qcurve"/>
      <point x="246" y="1140"/>
      <point x="246" y="1103"/>
      <point x="246" y="992" type="qcurve"/>
      <point x="246" y="877"/>
      <point x="246" y="852"/>
      <point x="246" y="814" type="qcurve"/>
      <point x="246" y="776"/>
      <point x="246" y="776"/>
    </contour>
    <contour>
      <point x="928" y="112" type="qcurve"/>
      <point x="955" y="86"/>
      <point x="955" y="86"/>
      <point x="982" y="113" type="qcurve"/>
      <point x="1010" y="141"/>
      <point x="1010" y="141"/>
      <point x="983" y="167" type="qcurve"/>
      <point x="955" y="193"/>
      <point x="929" y="221"/>
      <point x="851" y="299" type="qcurve"/>
      <point x="769" y="381"/>
      <point x="556" y="593"/>
      <point x="530" y="620" type="qcurve"/>
      <point x="503" y="646"/>
      <point x="503" y="646"/>
      <point x="476" y="619" type="qcurve"/>
      <point x="448" y="591"/>
      <point x="448" y="591"/>
      <point x="474" y="565" type="qcurve"/>
      <point x="501" y="538"/>
      <point x="713" y="327"/>
      <point x="795" y="244" type="qcurve"/>
      <point x="873" y="166"/>
      <point x="900" y="138"/>
    </contour>
    <contour>
      <point x="481" y="780" type="qcurve"/>
      <point x="507" y="754"/>
      <point x="507" y="754"/>
      <point x="533" y="780" type="qcurve"/>
      <point x="559" y="806"/>
      <point x="664" y="911"/>
      <point x="747" y="993" type="qcurve"/>
      <point x="824" y="1071"/>
      <point x="923" y="1170"/>
      <point x="950" y="1197" type="qcurve"/>
      <point x="976" y="1223"/>
      <point x="976" y="1223"/>
      <point x="950" y="1249" type="qcurve"/>
      <point x="923" y="1276"/>
      <point x="924" y="1276"/>
      <point x="898" y="1249" type="qcurve"/>
      <point x="871" y="1222"/>
      <point x="773" y="1124"/>
      <point x="694" y="1046" type="qcurve"/>
      <point x="613" y="964"/>
      <point x="507" y="859"/>
      <point x="481" y="832" type="qcurve"/>
      <point x="455" y="806"/>
      <point x="455" y="806"/>
    </contour>
    <contour>
      <point x="983" y="167" type="qcurve"/>
      <point x="1010" y="141"/>
      <point x="1010" y="141"/>
      <point x="1037" y="168" type="qcurve"/>
      <point x="1065" y="196"/>
      <point x="1065" y="196"/>
      <point x="1038" y="222" type="qcurve"/>
      <point x="1010" y="248"/>
      <point x="984" y="276"/>
      <point x="906" y="354" type="qcurve"/>
      <point x="824" y="436"/>
      <point x="612" y="649"/>
      <point x="585" y="675" type="qcurve"/>
      <point x="559" y="702"/>
      <point x="559" y="702"/>
      <point x="531" y="674" type="qcurve"/>
      <point x="503" y="646"/>
      <point x="503" y="646"/>
      <point x="530" y="620" type="qcurve"/>
      <point x="556" y="593"/>
      <point x="768" y="382"/>
      <point x="851" y="299" type="qcurve"/>
      <point x="928" y="221"/>
      <point x="955" y="193"/>
    </contour>
    <contour>
      <point x="533" y="728" type="qcurve"/>
      <point x="559" y="702"/>
      <point x="559" y="702"/>
      <point x="585" y="728" type="qcurve"/>
      <point x="611" y="754"/>
      <point x="716" y="859"/>
      <point x="799" y="941" type="qcurve"/>
      <point x="876" y="1019"/>
      <point x="975" y="1118"/>
      <point x="1002" y="1145" type="qcurve"/>
      <point x="1028" y="1171"/>
      <point x="1028" y="1171"/>
      <point x="1002" y="1197" type="qcurve"/>
      <point x="976" y="1223"/>
      <point x="976" y="1223"/>
      <point x="950" y="1197" type="qcurve"/>
      <point x="922" y="1169"/>
      <point x="824" y="1071"/>
      <point x="747" y="993" type="qcurve"/>
      <point x="664" y="911"/>
      <point x="559" y="806"/>
      <point x="533" y="780" type="qcurve"/>
      <point x="507" y="754"/>
      <point x="507" y="754"/>
    </contour>
    <contour>
      <point x="365" y="622" type="qcurve"/>
      <point x="397" y="618"/>
      <point x="397" y="618"/>
      <point x="397" y="660" type="qcurve"/>
      <point x="397" y="700"/>
      <point x="397" y="700"/>
      <point x="364" y="700" type="qcurve"/>
      <point x="328" y="700"/>
      <point x="328" y="700"/>
      <point x="328" y="662" type="qcurve"/>
      <point x="328" y="624"/>
      <point x="328" y="624"/>
    </contour>
    <contour>
      <point x="364" y="700" type="qcurve"/>
      <point x="397" y="700"/>
      <point x="397" y="700"/>
      <point x="397" y="738" type="qcurve"/>
      <point x="397" y="782"/>
      <point x="397" y="782"/>
      <point x="364" y="778" type="qcurve"/>
      <point x="328" y="776"/>
      <point x="328" y="776"/>
      <point x="328" y="738" type="qcurve"/>
      <point x="328" y="700"/>
      <point x="328" y="700"/>
    </contour>
    <contour>
      <point x="426" y="610" type="qcurve"/>
      <point x="448" y="591"/>
      <point x="448" y="591"/>
      <point x="476" y="619" type="qcurve"/>
      <point x="503" y="646"/>
      <point x="503" y="646"/>
      <point x="460" y="683" type="qcurve"/>
      <point x="397" y="700"/>
      <point x="397" y="700"/>
      <point x="397" y="660" type="qcurve"/>
      <point x="397" y="618"/>
      <point x="397" y="618"/>
    </contour>
    <contour>
      <point x="531" y="674" type="qcurve"/>
      <point x="559" y="702"/>
      <point x="559" y="702"/>
      <point x="533" y="728" type="qcurve"/>
      <point x="507" y="754"/>
      <point x="507" y="754"/>
      <point x="460" y="721" type="qcurve"/>
      <point x="397" y="700"/>
      <point x="397" y="700"/>
      <point x="460" y="683" type="qcurve"/>
      <point x="503" y="646"/>
      <point x="503" y="646"/>
    </contour>
    <contour>
      <point x="460" y="721" type="qcurve"/>
      <point x="507" y="754"/>
      <point x="507" y="754"/>
      <point x="481" y="780" type="qcurve"/>
      <point x="455" y="806"/>
      <point x="455" y="806"/>
      <point x="426" y="790" type="qcurve"/>
      <point x="397" y="782"/>
      <point x="397" y="782"/>
      <point x="397" y="738" type="qcurve"/>
      <point x="397" y="700"/>
      <point x="397" y="700"/>
    </contour>
    <contour>
      <point x="949" y="1249" type="qcurve"/>
      <point x="975" y="1223"/>
      <point x="975" y="1223"/>
      <point x="1002" y="1249" type="qcurve"/>
      <point x="1028" y="1275"/>
      <point x="1028" y="1275"/>
      <point x="1002" y="1301" type="qcurve"/>
      <point x="975" y="1328"/>
      <point x="975" y="1328"/>
      <point x="949" y="1301" type="qcurve"/>
      <point x="923" y="1275"/>
      <point x="923" y="1275"/>
    </contour>
    <contour>
      <point x="1002" y="1301" type="qcurve"/>
      <point x="1028" y="1275"/>
      <point x="1028" y="1275"/>
      <point x="1054" y="1301" type="qcurve"/>
      <point x="1080" y="1328"/>
      <point x="1080" y="1328"/>
      <point x="1054" y="1354" type="qcurve"/>
      <point x="1028" y="1380"/>
      <point x="1028" y="1380"/>
      <point x="1002" y="1354" type="qcurve"/>
      <point x="975" y="1328"/>
      <point x="975" y="1328"/>
    </contour>
    <contour>
      <point x="1002" y="1197" type="qcurve"/>
      <point x="1028" y="1171"/>
      <point x="1028" y="1171"/>
      <point x="1054" y="1197" type="qcurve"/>
      <point x="1080" y="1223"/>
      <point x="1080" y="1223"/>
      <point x="1054" y="1249" type="qcurve"/>
      <point x="1028" y="1275"/>
      <point x="1028" y="1275"/>
      <point x="1002" y="1249" type="qcurve"/>
      <point x="975" y="1223"/>
      <point x="975" y="1223"/>
    </contour>
    <contour>
      <point x="1054" y="1249" type="qcurve"/>
      <point x="1080" y="1223"/>
      <point x="1080" y="1223"/>
      <point x="1106" y="1249" type="qcurve"/>
      <point x="1132" y="1275"/>
      <point x="1132" y="1275"/>
      <point x="1106" y="1301" type="qcurve"/>
      <point x="1080" y="1328"/>
      <point x="1080" y="1328"/>
      <point x="1054" y="1301" type="qcurve"/>
      <point x="1028" y="1275"/>
      <point x="1028" y="1275"/>
    </contour>
    <contour>
      <point x="1037" y="169" type="qcurve"/>
      <point x="1009" y="142"/>
      <point x="1009" y="142"/>
      <point x="1035" y="116" type="qcurve"/>
      <point x="1061" y="89"/>
      <point x="1061" y="89"/>
      <point x="1089" y="117" type="qcurve"/>
      <point x="1117" y="145"/>
      <point x="1117" y="145"/>
      <point x="1090" y="171" type="qcurve"/>
      <point x="1064" y="197"/>
      <point x="1064" y="197"/>
    </contour>
    <contour>
      <point x="1089" y="117" type="qcurve"/>
      <point x="1061" y="89"/>
      <point x="1061" y="89"/>
      <point x="1088" y="63" type="qcurve"/>
      <point x="1114" y="37"/>
      <point x="1114" y="37"/>
      <point x="1141" y="65" type="qcurve"/>
      <point x="1169" y="92"/>
      <point x="1169" y="92"/>
      <point x="1143" y="118" type="qcurve"/>
      <point x="1117" y="145"/>
      <point x="1117" y="145"/>
    </contour>
    <contour>
      <point x="981" y="114" type="qcurve"/>
      <point x="954" y="87"/>
      <point x="954" y="87"/>
      <point x="980" y="60" type="qcurve"/>
      <point x="1006" y="34"/>
      <point x="1006" y="34"/>
      <point x="1034" y="62" type="qcurve"/>
      <point x="1061" y="89"/>
      <point x="1061" y="89"/>
      <point x="1035" y="116" type="qcurve"/>
      <point x="1009" y="142"/>
      <point x="1009" y="142"/>
    </contour>
    <contour>
      <point x="1034" y="62" type="qcurve"/>
      <point x="1006" y="34"/>
      <point x="1006" y="34"/>
      <point x="1032" y="8" type="qcurve"/>
      <point x="1059" y="-18"/>
      <point x="1059" y="-18"/>
      <point x="1086" y="9" type="qcurve"/>
      <point x="1114" y="37"/>
      <point x="1114" y="37"/>
      <point x="1088" y="63" type="qcurve"/>
      <point x="1061" y="89"/>
      <point x="1061" y="89"/>
    </contour>
    <contour>
      <point x="205" y="1216" type="qcurve"/>
      <point x="246" y="1216"/>
      <point x="246" y="1216"/>
      <point x="246" y="1254" type="qcurve"/>
      <point x="246" y="1292"/>
      <point x="246" y="1292"/>
      <point x="205" y="1292" type="qcurve"/>
      <point x="164" y="1292"/>
      <point x="164" y="1292"/>
      <point x="164" y="1254" type="qcurve"/>
      <point x="164" y="1216"/>
      <point x="164" y="1216"/>
    </contour>
    <contour>
      <point x="205" y="1292" type="qcurve"/>
      <point x="246" y="1292"/>
      <point x="246" y="1292"/>
      <point x="246" y="1330" type="qcurve"/>
      <point x="246" y="1368"/>
      <point x="246" y="1368"/>
      <point x="205" y="1368" type="qcurve"/>
      <point x="164" y="1368"/>
      <point x="164" y="1368"/>
      <point x="164" y="1330" type="qcurve"/>
      <point x="164" y="1292"/>
      <point x="164" y="1292"/>
    </contour>
    <contour>
      <point x="287" y="1216" type="qcurve"/>
      <point x="328" y="1216"/>
      <point x="328" y="1216"/>
      <point x="328" y="1254" type="qcurve"/>
      <point x="328" y="1292"/>
      <point x="328" y="1292"/>
      <point x="287" y="1292" type="qcurve"/>
      <point x="246" y="1292"/>
      <point x="246" y="1292"/>
      <point x="246" y="1254" type="qcurve"/>
      <point x="246" y="1216"/>
      <point x="246" y="1216"/>
    </contour>
    <contour>
      <point x="287" y="1292" type="qcurve"/>
      <point x="328" y="1292"/>
      <point x="328" y="1292"/>
      <point x="328" y="1330" type="qcurve"/>
      <point x="328" y="1368"/>
      <point x="328" y="1368"/>
      <point x="287" y="1368" type="qcurve"/>
      <point x="246" y="1368"/>
      <point x="246" y="1368"/>
      <point x="246" y="1330" type="qcurve"/>
      <point x="246" y="1292"/>
      <point x="246" y="1292"/>
    </contour>
    <contour>
      <point x="205" y="624" type="qcurve"/>
      <point x="246" y="624"/>
      <point x="246" y="624"/>
      <point x="246" y="662" type="qcurve"/>
      <point x="246" y="700"/>
      <point x="246" y="700"/>
      <point x="205" y="700" type="qcurve"/>
      <point x="164" y="700"/>
      <point x="164" y="700"/>
      <point x="164" y="662" type="qcurve"/>
      <point x="164" y="624"/>
      <point x="164" y="624"/>
    </contour>
    <contour>
      <point x="205" y="700" type="qcurve"/>
      <point x="246" y="700"/>
      <point x="246" y="700"/>
      <point x="246" y="738" type="qcurve"/>
      <point x="246" y="776"/>
      <point x="246" y="776"/>
      <point x="205" y="776" type="qcurve"/>
      <point x="164" y="776"/>
      <point x="164" y="776"/>
      <point x="164" y="738" type="qcurve"/>
      <point x="164" y="700"/>
      <point x="164" y="700"/>
    </contour>
    <contour>
      <point x="287" y="624" type="qcurve"/>
      <point x="328" y="624"/>
      <point x="328" y="624"/>
      <point x="328" y="662" type="qcurve"/>
      <point x="328" y="700"/>
      <point x="328" y="700"/>
      <point x="287" y="700" type="qcurve"/>
      <point x="246" y="700"/>
      <point x="246" y="700"/>
      <point x="246" y="662" type="qcurve"/>
      <point x="246" y="624"/>
      <point x="246" y="624"/>
    </contour>
    <contour>
      <point x="287" y="700" type="qcurve"/>
      <point x="328" y="700"/>
      <point x="328" y="700"/>
      <point x="328" y="738" type="qcurve"/>
      <point x="328" y="776"/>
      <point x="328" y="776"/>
      <point x="287" y="776" type="qcurve"/>
      <point x="246" y="776"/>
      <point x="246" y="776"/>
      <point x="246" y="738" type="qcurve"/>
      <point x="246" y="700"/>
      <point x="246" y="700"/>
    </contour>
    <contour>
      <point x="205" y="0" type="qcurve"/>
      <point x="246" y="0"/>
      <point x="246" y="0"/>
      <point x="246" y="38" type="qcurve"/>
      <point x="246" y="76"/>
      <point x="246" y="76"/>
      <point x="205" y="76" type="qcurve"/>
      <point x="164" y="76"/>
      <point x="164" y="76"/>
      <point x="164" y="38" type="qcurve"/>
      <point x="164" y="0"/>
      <point x="164" y="0"/>
    </contour>
    <contour>
      <point x="205" y="76" type="qcurve"/>
      <point x="246" y="76"/>
      <point x="246" y="76"/>
      <point x="246" y="114" type="qcurve"/>
      <point x="246" y="152"/>
      <point x="246" y="152"/>
      <point x="205" y="152" type="qcurve"/>
      <point x="164" y="152"/>
      <point x="164" y="152"/>
      <point x="164" y="114" type="qcurve"/>
      <point x="164" y="76"/>
      <point x="164" y="76"/>
    </contour>
    <contour>
      <point x="287" y="0" type="qcurve"/>
      <point x="328" y="0"/>
      <point x="328" y="0"/>
      <point x="328" y="38" type="qcurve"/>
      <point x="328" y="76"/>
      <point x="328" y="76"/>
      <point x="287" y="76" type="qcurve"/>
      <point x="246" y="76"/>
      <point x="246" y="76"/>
      <point x="246" y="38" type="qcurve"/>
      <point x="246" y="0"/>
      <point x="246" y="0"/>
    </contour>
    <contour>
      <point x="287" y="76" type="qcurve"/>
      <point x="328" y="76"/>
      <point x="328" y="76"/>
      <point x="328" y="114" type="qcurve"/>
      <point x="328" y="152"/>
      <point x="328" y="152"/>
      <point x="287" y="152" type="qcurve"/>
      <point x="246" y="152"/>
      <point x="246" y="152"/>
      <point x="246" y="114" type="qcurve"/>
      <point x="246" y="76"/>
      <point x="246" y="76"/>
    </contour>
  </outline>
</glyph>
